SplineFontDB: 3.2
FontName: Samaano-Bold-Slanted
FullName: Samaano Bold Slanted
FamilyName: Samaano
Weight: Bold
Copyright: Copyright 2024 The Samaano Project Authors (https://github.com/mitradranirban/samaano-fonts)
UComments: "2024-8-27: Created with FontForge (http://fontforge.org)"
Version: 1.600
StyleMapFamilyName: Samaano
ItalicAngle: -20
UnderlinePosition: 0
UnderlineWidth: 102
Ascent: 1638
Descent: 410
InvalidEm: 0
UFOAscent: 1638
UFODescent: -410
LayerCount: 2
Layer: 0 0 "Back" 1
Layer: 1 0 "public.default" 0 "glyphs"
StyleMap: 0x0021
FSType: 0
OS2Version: 0
OS2_WeightWidthSlopeOnly: 0
OS2_UseTypoMetrics: 0
CreationTime: 1731319684
ModificationTime: 1731319842
PfmFamily: 16
TTFWeight: 700
TTFWidth: 5
LineGap: 0
VLineGap: 0
Panose: 2 7 8 9 2 2 5 2 4 4
OS2TypoAscent: 2457
OS2TypoAOffset: 0
OS2TypoDescent: -615
OS2TypoDOffset: 0
OS2TypoLinegap: 0
OS2WinAscent: 3225
OS2WinAOffset: 0
OS2WinDescent: 978
OS2WinDOffset: 0
HheadAscent: 2457
HheadAOffset: 0
HheadDescent: -615
HheadDOffset: 0
OS2CapHeight: 1548
OS2XHeight: 1023
OS2FamilyClass: 1031
OS2Vendor: 'anir'
Lookup: 4 0 1 "ligaStandardLigaturesinLatinlookup0" { "ligaStandardLigaturesinLatinlookup0 subtable"  } ['liga' ('latn' <'dflt' > 'DFLT' <'dflt' > ) ]
Lookup: 4 0 0 "nuktNuktaFormsinDevanagari2lookup0" { "nuktNuktaFormsinDevanagari2lookup0 subtable"  } ['nukt' ('dev2' <'dflt' > 'DFLT' <'dflt' > ) ]
Lookup: 4 0 0 "akhnAkhandinDevanagari2lookup0" { "akhnAkhandinDevanagari2lookup0 subtable"  } ['akhn' ('dev2' <'dflt' > 'DFLT' <'dflt' > ) ]
Lookup: 4 0 0 "rphfRephForminDevanagari2lookup0" { "rphfRephForminDevanagari2lookup0 subtable"  } ['rphf' ('dev2' <'dflt' > 'DFLT' <'dflt' > ) ]
Lookup: 4 0 0 "rkrfRakarVariantsinDevanagari2lookup0" { "rkrfRakarVariantsinDevanagari2lookup0 subtable"  } ['rkrf' ('dev2' <'dflt' > 'DFLT' <'dflt' > ) ]
Lookup: 4 0 0 "blwfBelowBaseFormsinDevanagari2lookup0" { "blwfBelowBaseFormsinDevanagari2lookup0 subtable"  } ['blwf' ('dev2' <'dflt' > 'DFLT' <'dflt' > ) ]

StartChar: .notdef
Encoding: 0 0 0
GlifName: _notdef
Width: 1024
VWidth: 0
Flags: W
LayerCount: 2
Fore
SplineSet
-285.455 -26 m 257
 712.545 -26 l 257
 1309.46 1614 l 257
 311.455 1614 l 257
 -285.455 -26 l 257
-182.338 54 m 257
 357.43 1537 l 257
 488.371 817 l 257
 -182.338 54 l 257
-90.3379 54 m 257
 498.346 740 l 257
 589.662 54 l 257
 -90.3379 54 l 257
481.434 1548 m 257
 1112.43 1548 l 257
 558.217 899 l 257
 481.434 1548 l 257
568.191 822 m 257
 1208.43 1548 l 257
 664.662 54 l 257
 568.191 822 l 257
EndSplineSet
EndChar

StartChar: A
Encoding: 1 65 1
GlifName: A_
Width: 1024
VWidth: 0
GlyphClass: 2
Flags: W
AnchorPoint: "top" 809 1641 basechar 0
AnchorPoint: "base" 546 0 basechar 0
LayerCount: 2
Fore
SplineSet
-168.213 0 m 257
 30.7871 0 l 257
 594.213 1548 l 257
 395.213 1548 l 257
 -168.213 0 l 257
377.596 1332 m 257
 1038.6 1332 l 257
 1117.21 1548 l 257
 456.213 1548 l 257
 377.596 1332 l 257
283.129 1023 m 257
 219.798 849 l 257
 850.798 849 l 257
 914.129 1023 l 257
 283.129 1023 l 257
428.787 0 m 257
 628.787 0 l 257
 1192.21 1548 l 257
 992.213 1548 l 257
 428.787 0 l 257
EndSplineSet
EndChar

StartChar: AE
Encoding: 2 198 2
GlifName: A_E_
Width: 1024
VWidth: 0
GlyphClass: 2
Flags: W
LayerCount: 2
Fore
SplineSet
713.335 185 m 257
 646 0 l 257
 996 0 l 257
 1063.33 185 l 257
 713.335 185 l 257
125 0 m 257
 324 0 l 257
 887.426 1548 l 257
 688.426 1548 l 257
 125 0 l 257
670.809 1332 m 257
 1458.81 1332 l 257
 1537.43 1548 l 257
 749.426 1548 l 257
 670.809 1332 l 257
576.342 1023 m 257
 513.011 849 l 257
 1231.01 849 l 257
 1294.34 1023 l 257
 576.342 1023 l 257
551 0 m 257
 751 0 l 257
 1314.43 1548 l 257
 1114.43 1548 l 257
 551 0 l 257
EndSplineSet
EndChar

StartChar: B
Encoding: 14 66 14
GlifName: B_
Width: 1024
VWidth: 0
GlyphClass: 2
Flags: W
AnchorPoint: "top" 668 1657 basechar 0
AnchorPoint: "base" 250 -67 basechar 0
LayerCount: 2
Fore
SplineSet
-128.111 0 m 257
 79.8887 0 l 257
 639.311 1537 l 257
 431.311 1537 l 257
 -128.111 0 l 257
680.332 1331 m 257
 1068.86 989 l 257
 1151.11 1215 l 257
 755.311 1537 l 257
 680.332 1331 l 257
493.344 820 m 257
 1070.58 991 l 257
 1152.11 1215 l 257
 567.23 1023 l 257
 493.344 820 l 257
210.047 201 m 257
 136.889 0 l 257
 823.373 364 l 257
 904.902 588 l 257
 210.047 201 l 257
410.26 567 m 257
 823.373 364 l 257
 904.174 586 l 257
 482.689 766 l 257
 410.26 567 l 257
405.23 1023 m 257
 331.344 820 l 257
 493.344 820 l 257
 567.23 1023 l 257
 405.23 1023 l 257
310.689 766 m 257
 238.26 567 l 257
 410.26 567 l 257
 482.689 766 l 257
 310.689 766 l 257
42.6816 200 m 257
 -30.1113 0 l 257
 136.889 0 l 257
 209.682 200 l 257
 42.6816 200 l 257
591.311 1537 m 257
 516.332 1331 l 257
 679.332 1331 l 257
 754.311 1537 l 257
 591.311 1537 l 257
EndSplineSet
EndChar

StartChar: C
Encoding: 15 67 15
GlifName: C_
Width: 1024
VWidth: 0
GlyphClass: 2
Flags: W
AnchorPoint: "top" 470 1637 basechar 0
AnchorPoint: "base" 518 -47 basechar 0
LayerCount: 2
Fore
SplineSet
350.711 1537 m 257
 -208.711 0 l 257
 -8.71094 0 l 257
 550.711 1537 l 257
 350.711 1537 l 257
449.711 1537 m 257
 377.281 1338 l 257
 1160.28 1338 l 257
 1232.71 1537 l 257
 449.711 1537 l 257
-51.2812 199 m 257
 -123.711 0 l 257
 671.289 0 l 257
 743.719 199 l 257
 -51.2812 199 l 257
EndSplineSet
EndChar

StartChar: D
Encoding: 21 68 21
GlifName: D_
Width: 1024
VWidth: 0
GlyphClass: 2
Flags: W
AnchorPoint: "base" 124 -108 basechar 0
AnchorPoint: "top" 685 1660 basechar 0
LayerCount: 2
Fore
SplineSet
484.755 1548 m 257
 -78.6709 0 l 257
 123.329 0 l 257
 686.755 1548 l 257
 484.755 1548 l 257
810.755 1548 m 257
 738.688 1350 l 257
 1009.49 767 l 257
 1102.67 1023 l 257
 810.755 1548 l 257
328.487 201 m 257
 255.329 0 l 257
 1007.22 769 l 257
 1099.67 1023 l 257
 328.487 201 l 257
648.755 1548 m 257
 576.325 1349 l 257
 738.325 1349 l 257
 810.755 1548 l 257
 648.755 1548 l 257
166.123 200 m 257
 93.3291 0 l 257
 255.329 0 l 257
 328.123 200 l 257
 166.123 200 l 257
EndSplineSet
EndChar

StartChar: Dcroat
Encoding: 23 272 23
GlifName: D_croat
Width: 1024
VWidth: 0
GlyphClass: 2
Flags: W
AnchorPoint: "top" 922 1631 basechar 0
AnchorPoint: "base" 248 -124 basechar 0
LayerCount: 2
Fore
SplineSet
340.312 935 m 257
 265.698 730 l 257
 741.698 730 l 257
 816.312 935 l 257
 340.312 935 l 257
670.426 1548 m 257
 107 0 l 257
 309 0 l 257
 872.426 1548 l 257
 670.426 1548 l 257
996.426 1548 m 257
 924.359 1350 l 257
 1195.17 767 l 257
 1288.34 1023 l 257
 996.426 1548 l 257
514.158 201 m 257
 441 0 l 257
 1192.89 769 l 257
 1285.34 1023 l 257
 514.158 201 l 257
834.426 1548 m 257
 761.996 1349 l 257
 923.996 1349 l 257
 996.426 1548 l 257
 834.426 1548 l 257
351.794 200 m 257
 279 0 l 257
 441 0 l 257
 513.794 200 l 257
 351.794 200 l 257
EndSplineSet
EndChar

StartChar: E
Encoding: 24 69 24
GlifName: E_
Width: 1024
VWidth: 0
GlyphClass: 2
Flags: W
AnchorPoint: "top" 822 1645 basechar 0
AnchorPoint: "base" 294 -84 basechar 0
LayerCount: 2
Fore
SplineSet
393.211 1537 m 257
 -166.211 0 l 257
 33.7891 0 l 257
 593.211 1537 l 257
 393.211 1537 l 257
471.211 1537 m 257
 396.961 1333 l 257
 1115.96 1333 l 257
 1190.21 1537 l 257
 471.211 1537 l 257
-25.3252 203 m 257
 -99.2109 0 l 257
 646.789 0 l 257
 720.675 203 l 257
 -25.3252 203 l 257
223.995 888 m 257
 151.2 688 l 257
 650.2 688 l 257
 722.995 888 l 257
 223.995 888 l 257
EndSplineSet
EndChar

StartChar: Eng
Encoding: 33 330 33
GlifName: E_ng
Width: 1024
VWidth: 0
GlyphClass: 2
Flags: W
AnchorPoint: "top" 498 1627 basechar 0
AnchorPoint: "base" 524 -511 basechar 0
LayerCount: 2
Fore
SplineSet
524 -211 m 257
 524 -406 l 257
 911 -406 l 257
 911 -211 l 257
 524 -211 l 257
112 1490 m 257
 112 0 l 257
 313 0 l 257
 313 1490 l 257
 112 1490 l 257
711 1476 m 257
 711 -406 l 257
 912 -406 l 257
 912 1476 l 257
 711 1476 l 257
112 1548 m 257
 112 1353 l 257
 911 1353 l 257
 911 1548 l 257
 112 1548 l 257
EndSplineSet
EndChar

StartChar: Eth
Encoding: 35 208 35
GlifName: E_th
Width: 1024
VWidth: 0
GlyphClass: 2
Flags: W
AnchorPoint: "top" 958 1645 basechar 0
AnchorPoint: "base" 292 -132 basechar 0
LayerCount: 2
Fore
SplineSet
340.312 935 m 257
 265.698 730 l 257
 741.698 730 l 257
 816.312 935 l 257
 340.312 935 l 257
670.426 1548 m 257
 107 0 l 257
 309 0 l 257
 872.426 1548 l 257
 670.426 1548 l 257
996.426 1548 m 257
 924.359 1350 l 257
 1195.17 767 l 257
 1288.34 1023 l 257
 996.426 1548 l 257
514.158 201 m 257
 441 0 l 257
 1192.89 769 l 257
 1285.34 1023 l 257
 514.158 201 l 257
834.426 1548 m 257
 761.996 1349 l 257
 923.996 1349 l 257
 996.426 1548 l 257
 834.426 1548 l 257
351.794 200 m 257
 279 0 l 257
 441 0 l 257
 513.794 200 l 257
 351.794 200 l 257
EndSplineSet
EndChar

StartChar: Euro
Encoding: 36 8364 36
GlifName: E_uro
Width: 1024
VWidth: 0
GlyphClass: 2
Flags: W
LayerCount: 2
Fore
SplineSet
303.265 520 m 257
 249.396 372 l 257
 1045.4 372 l 257
 1099.26 520 l 257
 303.265 520 l 257
466.312 935 m 257
 412.809 788 l 257
 1192.81 788 l 257
 1246.31 935 l 257
 466.312 935 l 257
754.342 1023 m 257
 447.15 179 l 257
 637.15 179 l 257
 944.342 1023 l 257
 754.342 1023 l 257
1294.36 1633 m 257
 753.342 1023 l 257
 944.342 1023 l 257
 1402.72 1601 l 257
 1294.36 1633 l 257
447.15 179 m 257
 578.229 -406 l 257
 730.229 -406 l 257
 637.15 179 l 257
 447.15 179 l 257
EndSplineSet
EndChar

StartChar: F
Encoding: 37 70 37
GlifName: F_
Width: 1024
VWidth: 0
GlyphClass: 2
Flags: W
AnchorPoint: "top" 815 1648 basechar 0
AnchorPoint: "base" 266 -71 basechar 0
LayerCount: 2
Fore
SplineSet
425.713 1548 m 257
 -137.713 0 l 257
 62.2871 0 l 257
 625.713 1548 l 257
 425.713 1548 l 257
527.713 1548 m 257
 454.555 1347 l 257
 1088.55 1347 l 257
 1161.71 1548 l 257
 527.713 1548 l 257
270.761 875 m 257
 196.875 672 l 257
 745.875 672 l 257
 819.761 875 l 257
 270.761 875 l 257
EndSplineSet
EndChar

StartChar: G
Encoding: 38 71 38
GlifName: G_
Width: 1024
VWidth: 0
GlyphClass: 2
Flags: W
AnchorPoint: "top" 826 1637 basechar 0
AnchorPoint: "base" 268 -58 basechar 0
LayerCount: 2
Fore
SplineSet
414.713 1548 m 257
 -148.713 0 l 257
 53.2871 0 l 257
 616.713 1548 l 257
 414.713 1548 l 257
472.713 1548 m 257
 399.555 1347 l 257
 1099.55 1347 l 257
 1172.71 1548 l 257
 472.713 1548 l 257
-44.1904 202 m 257
 -117.713 0 l 257
 645.287 0 l 257
 718.81 202 l 257
 -44.1904 202 l 257
650.475 561 m 257
 452.839 18 l 257
 651.839 18 l 257
 849.475 561 l 257
 650.475 561 l 257
EndSplineSet
EndChar

StartChar: H
Encoding: 42 72 42
GlifName: H_
Width: 1024
VWidth: 0
GlyphClass: 2
Flags: W
AnchorPoint: "top" 820 1642 basechar 0
AnchorPoint: "base" 208 -46 basechar 0
LayerCount: 2
Fore
SplineSet
393.711 1537 m 257
 -165.711 0 l 257
 34.2891 0 l 257
 593.711 1537 l 257
 393.711 1537 l 257
979.711 1537 m 257
 420.289 0 l 257
 630.289 0 l 257
 1189.71 1537 l 257
 979.711 1537 l 257
326.631 1023 m 257
 252.017 818 l 257
 798.017 818 l 257
 872.631 1023 l 257
 326.631 1023 l 257
EndSplineSet
EndChar

StartChar: Hbar
Encoding: 43 294 43
GlifName: H_bar
Width: 1024
VWidth: 0
GlyphClass: 2
Flags: W
LayerCount: 2
Fore
SplineSet
648.422 1537 m 257
 89 0 l 257
 289 0 l 257
 848.422 1537 l 257
 648.422 1537 l 257
1234.42 1537 m 257
 675 0 l 257
 885 0 l 257
 1444.42 1537 l 257
 1234.42 1537 l 257
581.342 1023 m 257
 506.728 818 l 257
 1052.73 818 l 257
 1127.34 1023 l 257
 581.342 1023 l 257
549.934 1434 m 257
 474.228 1226 l 257
 1399.23 1226 l 257
 1474.93 1434 l 257
 549.934 1434 l 257
EndSplineSet
EndChar

StartChar: I
Encoding: 45 73 45
GlifName: I_
Width: 1024
VWidth: 0
GlyphClass: 2
Flags: W
AnchorPoint: "top" 790 1645 basechar 0
AnchorPoint: "base" 236 -50 basechar 0
LayerCount: 2
Fore
SplineSet
450.119 1537 m 257
 376.598 1335 l 257
 1077.6 1335 l 257
 1151.12 1537 l 257
 450.119 1537 l 257
658.006 1468 m 257
 154.271 84 l 257
 354.271 84 l 257
 858.006 1468 l 257
 658.006 1468 l 257
-55.0527 204 m 257
 -127.119 6 l 257
 628.881 6 l 257
 700.947 204 l 257
 -55.0527 204 l 257
EndSplineSet
EndChar

StartChar: J
Encoding: 56 74 56
GlifName: J_
Width: 1024
VWidth: 0
GlyphClass: 2
Flags: W
AnchorPoint: "base" 534 -67 basechar 0
AnchorPoint: "top" 1071 1602 basechar 0
LayerCount: 2
Fore
SplineSet
976.891 1527 m 257
 421.109 0 l 257
 621.109 0 l 257
 1176.89 1527 l 257
 976.891 1527 l 257
-77.1855 208 m 257
 -152.891 0 l 257
 462.109 0 l 257
 537.814 208 l 257
 -77.1855 208 l 257
29.1855 503 m 257
 -134.965 52 l 257
 63.0352 52 l 257
 227.186 503 l 257
 29.1855 503 l 257
EndSplineSet
EndChar

StartChar: K
Encoding: 58 75 58
GlifName: K_
Width: 1024
VWidth: 0
GlyphClass: 2
Flags: W
AnchorPoint: "base" 202 -86 basechar 0
AnchorPoint: "top" 524 1642 basechar 0
LayerCount: 2
Fore
SplineSet
381.756 1537 m 257
 -175.846 5 l 257
 25.1543 5 l 257
 582.756 1537 l 257
 381.756 1537 l 257
230.941 999 m 257
 290.25 835 l 257
 1199.85 1529 l 257
 932.846 1529 l 257
 230.941 999 l 257
287.783 798 m 257
 94.3672 643 l 257
 415.334 0 l 257
 696.334 0 l 257
 287.783 798 l 257
EndSplineSet
EndChar

StartChar: L
Encoding: 59 76 59
GlifName: L_
Width: 1024
VWidth: 0
GlyphClass: 2
Flags: W
AnchorPoint: "base" 498 -43 basechar 0
AnchorPoint: "top" 780 1663 basechar 0
LayerCount: 2
Fore
SplineSet
618.98 1542 m 257
 57.7383 0 l 257
 255.738 0 l 257
 816.98 1542 l 257
 618.98 1542 l 257
240.262 202 m 257
 166.738 0 l 257
 892.738 0 l 257
 966.262 202 l 257
 240.262 202 l 257
EndSplineSet
EndChar

StartChar: Lcaron
Encoding: 61 317 61
GlifName: L_caron
Width: 1024
VWidth: 0
GlyphClass: 2
Flags: W
LayerCount: 2
Fore
SplineSet
614.242 1542 m 257
 53 0 l 257
 251 0 l 257
 812.242 1542 l 257
 614.242 1542 l 257
235.522 202 m 257
 162 0 l 257
 888 0 l 257
 961.522 202 l 257
 235.522 202 l 257
991.499 1496 m 257
 907.059 1264 l 257
 1037.06 1264 l 257
 1121.5 1496 l 257
 991.499 1496 l 257
EndSplineSet
EndChar

StartChar: Lslash
Encoding: 63 321 63
GlifName: L_slash
Width: 1024
VWidth: 0
GlyphClass: 2
Flags: W
LayerCount: 2
Fore
SplineSet
732.242 1542 m 257
 171 0 l 257
 369 0 l 257
 930.242 1542 l 257
 732.242 1542 l 257
353.522 202 m 257
 280 0 l 257
 1006 0 l 257
 1079.52 202 l 257
 353.522 202 l 257
344.301 902 m 257
 361.698 730 l 257
 869.221 932 l 257
 851.823 1104 l 257
 344.301 902 l 257
EndSplineSet
EndChar

StartChar: M
Encoding: 64 77 64
GlifName: M_
Width: 1024
VWidth: 0
GlyphClass: 2
Flags: W
AnchorPoint: "base" 288 -67 basechar 0
AnchorPoint: "top" 814 1620 basechar 0
LayerCount: 2
Fore
SplineSet
384.215 1548 m 257
 -179.211 0 l 257
 23.7891 0 l 257
 587.215 1548 l 257
 384.215 1548 l 257
1001.21 1537 m 257
 441.789 0 l 257
 643.789 0 l 257
 1203.21 1537 l 257
 1001.21 1537 l 257
377.902 1429 m 257
 523.042 1031 l 257
 711.042 1031 l 257
 563.215 1548 l 257
 377.902 1429 l 257
1028.21 1537 m 257
 519.131 1023 l 257
 706.131 1023 l 257
 1176.38 1488 l 257
 1028.21 1537 l 257
EndSplineSet
EndChar

StartChar: N
Encoding: 65 78 65
GlifName: N_
Width: 1024
VWidth: 0
GlyphClass: 2
Flags: W
AnchorPoint: "top" 820 1617 basechar 0
AnchorPoint: "base" 256 -55 basechar 0
LayerCount: 2
Fore
SplineSet
379.213 1548 m 257
 -184.213 0 l 257
 20.7871 0 l 257
 584.213 1548 l 257
 379.213 1548 l 257
1006.21 1548 m 257
 442.787 0 l 257
 644.787 0 l 257
 1208.21 1548 l 257
 1006.21 1548 l 257
380.213 1548 m 257
 443.787 0 l 257
 646.787 0 l 257
 585.213 1548 l 257
 380.213 1548 l 257
EndSplineSet
EndChar

StartChar: O
Encoding: 69 79 69
GlifName: O_
Width: 1024
VWidth: 0
GlyphClass: 2
Flags: W
AnchorPoint: "top" 857 1630 basechar 0
AnchorPoint: "base" 524 -109 basechar 0
LayerCount: 2
Fore
SplineSet
391.711 1537 m 257
 -167.711 0 l 257
 33.2891 0 l 257
 592.711 1537 l 257
 391.711 1537 l 257
988.711 1537 m 257
 429.289 0 l 257
 632.289 0 l 257
 1191.71 1537 l 257
 988.711 1537 l 257
455.711 1537 m 257
 382.917 1337 l 257
 1025.92 1337 l 257
 1098.71 1537 l 257
 455.711 1537 l 257
-53.4609 204 m 257
 -127.711 0 l 257
 545.289 0 l 257
 619.539 204 l 257
 -53.4609 204 l 257
EndSplineSet
EndChar

StartChar: OE
Encoding: 70 338 70
GlifName: O_E_
Width: 1024
VWidth: 0
GlyphClass: 2
Flags: W
AnchorPoint: "top" 755 1650 basechar 0
AnchorPoint: "base" 126 -78 basechar 0
LayerCount: 2
Fore
SplineSet
393 1548 m 257
 -171 0 l 257
 30 0 l 257
 594 1548 l 257
 393 1548 l 257
785 1548 m 257
 221 0 l 257
 422 0 l 257
 986 1548 l 257
 785 1548 l 257
430 1548 m 257
 357 1349 l 257
 1089 1349 l 257
 1162 1548 l 257
 430 1548 l 257
-59 200 m 257
 -132 0 l 257
 606 0 l 257
 679 200 l 257
 -59 200 l 257
637 859 m 257
 564 659 l 257
 808 659 l 257
 881 859 l 257
 637 859 l 257
EndSplineSet
EndChar

StartChar: Oslash
Encoding: 79 216 79
GlifName: O_slash
Width: 1024
VWidth: 0
GlyphClass: 2
Flags: W
AnchorPoint: "top" 1137 1639 basechar 0
AnchorPoint: "base" 553 -87 basechar 0
LayerCount: 2
Fore
SplineSet
1394.74 1667 m 257
 18.6211 -45 l 257
 180.052 -118 l 257
 1556.17 1594 l 257
 1394.74 1667 l 257
669.422 1537 m 257
 110 0 l 257
 311 0 l 257
 870.422 1537 l 257
 669.422 1537 l 257
1266.42 1537 m 257
 707 0 l 257
 910 0 l 257
 1469.42 1537 l 257
 1266.42 1537 l 257
733.422 1537 m 257
 660.628 1337 l 257
 1303.63 1337 l 257
 1376.42 1537 l 257
 733.422 1537 l 257
224.25 204 m 257
 150 0 l 257
 823 0 l 257
 897.25 204 l 257
 224.25 204 l 257
EndSplineSet
EndChar

StartChar: P
Encoding: 82 80 82
GlifName: P_
Width: 1024
VWidth: 0
GlyphClass: 2
Flags: W
AnchorPoint: "base" 508 -19 basechar 0
AnchorPoint: "top" 730 1658 basechar 0
LayerCount: 2
Fore
SplineSet
414.575 1548 m 257
 -145.575 9 l 257
 44.4248 9 l 257
 604.575 1548 l 257
 414.575 1548 l 257
493.575 1548 m 257
 420.054 1346 l 257
 1076.05 1346 l 257
 1149.58 1548 l 257
 493.575 1548 l 257
969.575 1548 m 257
 726.808 881 l 257
 926.808 881 l 257
 1169.58 1548 l 257
 969.575 1548 l 257
302.869 1068 m 257
 230.075 868 l 257
 917.075 868 l 257
 989.869 1068 l 257
 302.869 1068 l 257
EndSplineSet
EndChar

StartChar: Q
Encoding: 83 81 83
GlifName: Q_
Width: 1024
VWidth: 0
GlyphClass: 2
Flags: W
AnchorPoint: "base" 226 -35 basechar 0
AnchorPoint: "top" 765 1626 basechar 0
LayerCount: 2
Fore
SplineSet
390.801 1537 m 257
 -166.801 5 l 257
 32.1992 5 l 257
 589.801 1537 l 257
 390.801 1537 l 257
989.801 1537 m 257
 430.379 0 l 257
 631.379 0 l 257
 1190.8 1537 l 257
 989.801 1537 l 257
454.801 1537 m 257
 382.007 1337 l 257
 1025.01 1337 l 257
 1097.8 1537 l 257
 454.801 1537 l 257
-54.0068 205 m 257
 -128.621 0 l 257
 544.379 0 l 257
 618.993 205 l 257
 -54.0068 205 l 257
287.022 21 m 257
 361.647 -285 l 257
 594.868 -169 l 257
 520.243 137 l 257
 287.022 21 l 257
EndSplineSet
EndChar

StartChar: R
Encoding: 84 82 84
GlifName: R_
Width: 1024
VWidth: 0
GlyphClass: 2
Flags: W
AnchorPoint: "base" 275 -59 basechar 0
AnchorPoint: "top" 803 1636 basechar 0
LayerCount: 2
Fore
SplineSet
410.711 1537 m 257
 -148.711 0 l 257
 52.2891 0 l 257
 611.711 1537 l 257
 410.711 1537 l 257
489.711 1537 m 257
 416.189 1335 l 257
 1072.19 1335 l 257
 1145.71 1537 l 257
 489.711 1537 l 257
972.711 1537 m 257
 730.671 872 l 257
 930.671 872 l 257
 1172.71 1537 l 257
 972.711 1537 l 257
307.013 1079 m 257
 230.215 868 l 257
 917.215 868 l 257
 994.013 1079 l 257
 307.013 1079 l 257
371.399 874 m 257
 455.289 0 l 257
 695.289 0 l 257
 597.671 872 l 257
 371.399 874 l 257
EndSplineSet
EndChar

StartChar: S
Encoding: 87 83 87
GlifName: S_
Width: 1024
VWidth: 0
GlyphClass: 2
Flags: W
AnchorPoint: "top" 834 1644 basechar 0
AnchorPoint: "base" 330 -77 basechar 0
LayerCount: 2
Fore
SplineSet
478.711 1537 m 257
 405.554 1336 l 257
 1003.55 1336 l 257
 1076.71 1537 l 257
 478.711 1537 l 257
480.531 1542 m 257
 293.45 1028 l 257
 495.45 1028 l 257
 682.531 1542 l 257
 480.531 1542 l 257
19.7188 199 m 257
 -52.7109 0 l 257
 655.289 0 l 257
 727.719 199 l 257
 19.7188 199 l 257
490.289 0 m 257
 691.289 0 l 257
 820.498 355 l 257
 619.498 355 l 257
 490.289 0 l 257
293.45 1028 m 257
 619.498 355 l 257
 820.498 355 l 257
 495.45 1028 l 257
 293.45 1028 l 257
EndSplineSet
EndChar

StartChar: T
Encoding: 92 84 92
GlifName: T_
Width: 1024
VWidth: 0
GlyphClass: 2
Flags: W
AnchorPoint: "top" 704 1629 basechar 0
AnchorPoint: "base" 100 -79 basechar 0
LayerCount: 2
Fore
SplineSet
262.121 1548 m 257
 189.327 1348 l 257
 963.327 1348 l 257
 1036.12 1548 l 257
 262.121 1548 l 257
508.356 1436 m 257
 -12.1211 6 l 257
 187.879 6 l 257
 708.356 1436 l 257
 508.356 1436 l 257
EndSplineSet
EndChar

StartChar: Thorn
Encoding: 94 222 94
GlifName: T_horn
Width: 1024
VWidth: 0
GlyphClass: 2
Flags: W
LayerCount: 2
Fore
SplineSet
673.242 1542 m 257
 115.275 9 l 257
 305.275 9 l 257
 863.242 1542 l 257
 673.242 1542 l 257
640.14 1234 m 257
 567.709 1035 l 257
 1223.71 1035 l 257
 1296.14 1234 l 257
 640.14 1234 l 257
1115.78 1233 m 257
 874.099 569 l 257
 1074.1 569 l 257
 1315.78 1233 l 257
 1115.78 1233 l 257
427.956 684 m 257
 355.161 484 l 257
 1042.16 484 l 257
 1114.96 684 l 257
 427.956 684 l 257
EndSplineSet
EndChar

StartChar: U
Encoding: 95 85 95
GlifName: U_
Width: 1024
VWidth: 0
GlyphClass: 2
Flags: W
AnchorPoint: "top" 778 1642 basechar 0
AnchorPoint: "base" 201 -100 basechar 0
LayerCount: 2
Fore
SplineSet
436.711 1537 m 257
 -122.711 0 l 257
 77.2891 0 l 257
 636.711 1537 l 257
 436.711 1537 l 257
947.711 1537 m 257
 388.289 0 l 257
 587.289 0 l 257
 1146.71 1537 l 257
 947.711 1537 l 257
-2.91699 200 m 257
 -75.7109 0 l 257
 544.289 0 l 257
 617.083 200 l 257
 -2.91699 200 l 257
EndSplineSet
EndChar

StartChar: V
Encoding: 107 86 107
GlifName: V_
Width: 1024
VWidth: 0
GlyphClass: 2
Flags: W
AnchorPoint: "top" 681 1642 basechar 0
AnchorPoint: "base" 103 -82 basechar 0
LayerCount: 2
Fore
SplineSet
258.213 1548 m 257
 -45.2129 0 l 257
 175.787 0 l 257
 459.213 1548 l 257
 258.213 1548 l 257
868.213 1548 m 257
 79.7871 0 l 257
 302.787 0 l 257
 1069.21 1548 l 257
 868.213 1548 l 257
EndSplineSet
EndChar

StartChar: W
Encoding: 108 87 108
GlifName: W_
Width: 1024
VWidth: 0
GlyphClass: 2
Flags: W
AnchorPoint: "base" 234 -67 basechar 0
AnchorPoint: "top" 822 1627 basechar 0
LayerCount: 2
Fore
SplineSet
385.213 1548 m 257
 -178.213 0 l 257
 22.7871 0 l 257
 586.213 1548 l 257
 385.213 1548 l 257
1002.21 1548 m 257
 443.154 12 l 257
 644.154 12 l 257
 1203.21 1548 l 257
 1002.21 1548 l 257
504.948 1028 m 257
 130.787 0 l 257
 331.787 0 l 257
 705.948 1028 l 257
 504.948 1028 l 257
-106.055 201 m 257
 -179.213 0 l 257
 639.787 0 l 257
 712.945 201 l 257
 -106.055 201 l 257
EndSplineSet
EndChar

StartChar: X
Encoding: 113 88 113
GlifName: X_
Width: 1024
VWidth: 0
GlyphClass: 2
Flags: W
AnchorPoint: "top" 811 1627 basechar 0
AnchorPoint: "base" 288 -32 basechar 0
LayerCount: 2
Fore
SplineSet
374.121 1548 m 257
 452.695 0 l 257
 652.695 0 l 257
 573.121 1548 l 257
 374.121 1548 l 257
-184.121 6 m 257
 16.8789 6 l 257
 1208.12 1548 l 257
 1009.12 1548 l 257
 -184.121 6 l 257
EndSplineSet
EndChar

StartChar: Y
Encoding: 114 89 114
GlifName: Y_
Width: 1024
VWidth: 0
GlyphClass: 2
Flags: W
AnchorPoint: "top" 662 1638 basechar 0
AnchorPoint: "base" 75 -123 basechar 0
LayerCount: 2
Fore
SplineSet
330.269 897 m 257
 3.78711 0 l 257
 205.787 0 l 257
 532.269 897 l 257
 330.269 897 l 257
316.213 1548 m 257
 65.4375 859 l 257
 265.438 859 l 257
 516.213 1548 l 257
 316.213 1548 l 257
821.213 1548 m 257
 570.438 859 l 257
 769.438 859 l 257
 1020.21 1548 l 257
 821.213 1548 l 257
193.129 1023 m 257
 133.438 859 l 257
 679.438 859 l 257
 739.129 1023 l 257
 193.129 1023 l 257
EndSplineSet
EndChar

StartChar: Z
Encoding: 119 90 119
GlifName: Z_
Width: 1024
VWidth: 0
GlyphClass: 2
Flags: W
AnchorPoint: "top" 784 1649 basechar 0
AnchorPoint: "base" 178 -84 basechar 0
LayerCount: 2
Fore
SplineSet
376.213 1548 m 257
 299.052 1336 l 257
 1133.05 1336 l 257
 1210.21 1548 l 257
 376.213 1548 l 257
-109.051 212 m 257
 -186.213 0 l 257
 641.787 0 l 257
 718.949 212 l 257
 -109.051 212 l 257
871.688 1335 m 257
 -109.415 211 l 257
 97.585 211 l 257
 1116.69 1335 l 257
 871.688 1335 l 257
EndSplineSet
EndChar

StartChar: a
Encoding: 123 97 123
GlifName: a
Width: 1024
VWidth: 0
GlyphClass: 2
Flags: W
AnchorPoint: "top" 659 1144 basechar 0
AnchorPoint: "base" 347 -76 basechar 0
LayerCount: 2
Fore
SplineSet
353.671 1023 m 257
 281.24 824 l 257
 887.24 824 l 257
 959.671 1023 l 257
 353.671 1023 l 257
846.671 1023 m 257
 474.329 0 l 257
 668.329 0 l 257
 1040.67 1023 l 257
 846.671 1023 l 257
203.348 599 m 257
 130.917 400 l 257
 754.917 400 l 257
 827.348 599 l 257
 203.348 599 l 257
194.612 575 m 257
 -14.6709 0 l 257
 186.329 0 l 257
 395.612 575 l 257
 194.612 575 l 257
56.4873 201 m 257
 -16.6709 0 l 257
 673.329 0 l 257
 746.487 201 l 257
 56.4873 201 l 257
EndSplineSet
EndChar

StartChar: acute
Encoding: 127 180 127
GlifName: acute
Width: 1024
VWidth: 0
GlyphClass: 2
Flags: W
LayerCount: 2
Fore
SplineSet
586.914 1556 m 257
 364.465 1302 l 257
 435.723 1256 l 257
 659.535 1511 l 257
 586.914 1556 l 257
EndSplineSet
EndChar

StartChar: acutecomb
Encoding: 128 769 128
GlifName: acutecomb
Width: 0
VWidth: 0
GlyphClass: 4
Flags: W
AnchorPoint: "top" -8 779 mark 0
LayerCount: 2
Fore
SplineSet
172 1077 m 257
 -50 823 l 257
 21 777 l 257
 245 1032 l 257
 172 1077 l 257
EndSplineSet
EndChar

StartChar: ae
Encoding: 130 230 130
GlifName: ae
Width: 1024
VWidth: 0
GlyphClass: 2
Flags: W
AnchorPoint: "top" 955 1125 basechar 0
AnchorPoint: "base" 507 -102 basechar 0
LayerCount: 2
Fore
SplineSet
420.342 1023 m 257
 347.911 824 l 257
 1166.91 824 l 257
 1239.34 1023 l 257
 420.342 1023 l 257
821.342 1023 m 257
 449 0 l 257
 643 0 l 257
 1015.34 1023 l 257
 821.342 1023 l 257
289.019 599 m 257
 216.588 400 l 257
 1013.59 400 l 257
 1086.02 599 l 257
 289.019 599 l 257
280.283 575 m 257
 71 0 l 257
 272 0 l 257
 481.283 575 l 257
 280.283 575 l 257
142.158 201 m 257
 69 0 l 257
 989 0 l 257
 1062.16 201 l 257
 142.158 201 l 257
1145.34 1023 m 257
 918.588 400 l 257
 1113.59 400 l 257
 1340.34 1023 l 257
 1145.34 1023 l 257
EndSplineSet
EndChar

StartChar: ampersand
Encoding: 134 38 134
GlifName: ampersand
Width: 1024
VWidth: 0
GlyphClass: 2
Flags: W
LayerCount: 2
Fore
SplineSet
594.619 1537 m 257
 487.564 12 l 257
 649.58 56 l 257
 756.619 1537 l 257
 594.619 1537 l 257
1089.12 1401 m 257
 1138.62 1537 l 257
 672.619 1537 l 257
 623.119 1401 l 257
 1089.12 1401 l 257
945.498 1446 m 257
 752.958 917 l 257
 912.958 917 l 257
 1105.5 1446 l 257
 945.498 1446 l 257
263.546 1045 m 257
 190.024 843 l 257
 886.024 843 l 257
 959.546 1045 l 257
 263.546 1045 l 257
263.546 1045 m 257
 -108.067 24 l 257
 101.933 24 l 257
 473.546 1045 l 257
 263.546 1045 l 257
-47.6484 190 m 257
 -114.619 6 l 257
 693.381 6 l 257
 760.352 190 l 257
 -47.6484 190 l 257
EndSplineSet
EndChar

StartChar: asciicircum
Encoding: 138 94 138
GlifName: asciicircum
Width: 1024
VWidth: 0
GlyphClass: 2
Flags: W
LayerCount: 2
Fore
SplineSet
812.98 1023 m 257
 663.98 1023 l 257
 174.773 407 l 257
 302.207 345 l 257
 812.98 1023 l 257
626.668 904 m 257
 678.48 343 l 257
 849.227 400 l 257
 812.98 1023 l 257
 626.668 904 l 257
EndSplineSet
EndChar

StartChar: asciitilde
Encoding: 139 126 139
GlifName: asciitilde
Width: 1024
VWidth: 0
GlyphClass: 2
Flags: W
LayerCount: 2
Fore
SplineSet
384.377 815 m 257
 348.344 716 l 257
 676.142 655 l 257
 712.175 754 l 257
 384.377 815 l 257
125.267 757 m 257
 104.598 659 l 257
 348.344 716 l 257
 384.377 815 l 257
 125.267 757 l 257
712.175 754 m 257
 676.142 655 l 257
 908.462 796 l 257
 919.402 892 l 257
 712.175 754 l 257
EndSplineSet
EndChar

StartChar: asterisk
Encoding: 140 42 140
GlifName: asterisk
Width: 1024
VWidth: 0
GlyphClass: 2
Flags: W
LayerCount: 2
Fore
SplineSet
587.666 1297 m 257
 224.787 300 l 257
 454.787 300 l 257
 817.666 1297 l 257
 587.666 1297 l 257
158.6 1099 m 257
 617.625 360 l 257
 829.037 504 l 257
 365.283 1241 l 257
 158.6 1099 l 257
959.008 1232 m 257
 -21.3203 525 l 257
 64.9922 372 l 257
 1045.32 1079 l 257
 959.008 1232 l 257
EndSplineSet
EndChar

StartChar: at
Encoding: 141 64 141
GlifName: at
Width: 1024
VWidth: 0
GlyphClass: 2
Flags: W
LayerCount: 2
Fore
SplineSet
336.307 1023 m 257
 283.895 879 l 257
 1102.89 879 l 257
 1155.31 1023 l 257
 336.307 1023 l 257
715.436 592 m 257
 499.965 0 l 257
 652.965 0 l 257
 868.436 592 l 257
 715.436 592 l 257
385.348 600 m 257
 328.568 444 l 257
 753.568 444 l 257
 810.348 600 l 257
 385.348 600 l 257
378.344 589 m 257
 168.332 12 l 257
 342.332 12 l 257
 552.344 589 l 257
 378.344 589 l 257
230.393 188 m 257
 161.965 0 l 257
 655.965 0 l 257
 724.393 188 l 257
 230.393 188 l 257
248.307 1023 m 257
 -205.199 -223 l 257
 -29.1992 -223 l 257
 424.307 1023 l 257
 248.307 1023 l 257
-157.336 -86 m 257
 -219.939 -258 l 257
 728.061 -258 l 257
 790.664 -86 l 257
 -157.336 -86 l 257
1092.94 1011 m 257
 724.965 0 l 257
 875.965 0 l 257
 1243.94 1011 l 257
 1092.94 1011 l 257
660.66 175 m 257
 596.965 0 l 257
 805.965 0 l 257
 869.66 175 l 257
 660.66 175 l 257
EndSplineSet
EndChar

StartChar: b
Encoding: 143 98 143
GlifName: b
Width: 1024
VWidth: 0
GlyphClass: 2
Flags: W
AnchorPoint: "base" 314 -60 basechar 0
AnchorPoint: "top" 632 1639 basechar 0
LayerCount: 2
Fore
SplineSet
506.432 1537 m 257
 -52.9902 0 l 257
 146.01 0 l 257
 705.432 1537 l 257
 506.432 1537 l 257
419.99 1033 m 257
 347.561 834 l 257
 865.561 834 l 257
 937.99 1033 l 257
 419.99 1033 l 257
877.99 1033 m 257
 502.01 0 l 257
 701.01 0 l 257
 1076.99 1033 l 257
 877.99 1033 l 257
147.352 207 m 257
 72.0098 0 l 257
 622.01 0 l 257
 697.352 207 l 257
 147.352 207 l 257
EndSplineSet
EndChar

StartChar: backslash
Encoding: 144 92 144
GlifName: backslash
Width: 1024
VWidth: 0
GlyphClass: 2
Flags: W
LayerCount: 2
Fore
SplineSet
353.412 1441 m 257
 451.199 -13 l 257
 670.588 65 l 257
 573.801 1519 l 257
 353.412 1441 l 257
EndSplineSet
EndChar

StartChar: bar
Encoding: 145 124 145
GlifName: bar
Width: 1024
VWidth: 0
GlyphClass: 2
Flags: W
LayerCount: 2
Fore
SplineSet
688.027 1435 m 257
 132.973 -90 l 257
 335.973 -90 l 257
 891.027 1435 l 257
 688.027 1435 l 257
EndSplineSet
EndChar

StartChar: braceleft
Encoding: 146 123 146
GlifName: braceleft
Width: 1024
VWidth: 0
GlyphClass: 2
Flags: W
LayerCount: 2
Fore
SplineSet
693.252 1548 m 257
 434.832 838 l 257
 580.832 838 l 257
 839.252 1548 l 257
 693.252 1548 l 257
296.148 424 m 257
 37.7305 -286 l 257
 183.73 -286 l 257
 442.148 424 l 257
 296.148 424 l 257
91.9648 690 m 257
 70.127 630 l 257
 580.832 838 l 257
 434.832 838 l 257
 91.9648 690 l 257
91.9648 690 m 257
 70.127 630 l 257
 294.514 425 l 257
 443.514 425 l 257
 91.9648 690 l 257
714.27 1603 m 257
 659.311 1452 l 257
 971.715 1574 l 257
 986.27 1603 l 257
 714.27 1603 l 257
91.8691 -140 m 257
 38.3672 -287 l 257
 314.367 -287 l 257
 319.098 -274 l 257
 91.8691 -140 l 257
EndSplineSet
EndChar

StartChar: braceright
Encoding: 147 125 147
GlifName: braceright
Width: 1024
VWidth: 0
GlyphClass: 2
Flags: W
LayerCount: 2
Fore
SplineSet
987.387 1548 m 257
 825.387 1548 l 257
 566.969 838 l 257
 728.969 838 l 257
 987.387 1548 l 257
564.285 424 m 257
 404.285 424 l 257
 145.865 -286 l 257
 305.865 -286 l 257
 564.285 424 l 257
948.102 690 m 257
 723.969 838 l 257
 562.969 838 l 257
 926.262 630 l 257
 948.102 690 l 257
948.102 690 m 257
 404.285 424 l 257
 564.285 424 l 257
 926.262 630 l 257
 948.102 690 l 257
1008.41 1603 m 257
 733.406 1603 l 257
 726.85 1574 l 257
 953.445 1452 l 257
 1008.41 1603 l 257
344.006 -140 m 257
 19.2344 -274 l 257
 15.5938 -284 l 257
 291.594 -284 l 257
 344.006 -140 l 257
EndSplineSet
EndChar

StartChar: bracketleft
Encoding: 148 91 148
GlifName: bracketleft
Width: 1024
VWidth: 0
GlyphClass: 2
Flags: W
LayerCount: 2
Fore
SplineSet
704.979 1542 m 257
 55.6562 -242 l 257
 177.656 -242 l 257
 826.979 1542 l 257
 704.979 1542 l 257
759.344 1543 m 257
 713.119 1416 l 257
 922.119 1416 l 257
 968.344 1543 l 257
 759.344 1543 l 257
164.616 -91 m 257
 109.656 -242 l 257
 323.656 -242 l 257
 378.616 -91 l 257
 164.616 -91 l 257
EndSplineSet
EndChar

StartChar: bracketright
Encoding: 149 93 149
GlifName: bracketright
Width: 1024
VWidth: 0
GlyphClass: 2
Flags: W
LayerCount: 2
Fore
SplineSet
850.662 1542 m 257
 201.338 -242 l 257
 323.338 -242 l 257
 972.662 1542 l 257
 850.662 1542 l 257
701.025 1543 m 257
 654.801 1416 l 257
 863.801 1416 l 257
 910.025 1543 l 257
 701.025 1543 l 257
106.299 -91 m 257
 51.3379 -242 l 257
 265.338 -242 l 257
 320.299 -91 l 257
 106.299 -91 l 257
EndSplineSet
EndChar

StartChar: breve
Encoding: 150 728 150
GlifName: breve
Width: 1024
VWidth: 0
GlyphClass: 2
Flags: W
LayerCount: 2
Fore
SplineSet
659.348 1548 m 257
 634.598 1480 l 257
 824.348 1548 l 257
 859.652 1645 l 257
 659.348 1548 l 257
335.348 1548 m 257
 310.598 1480 l 257
 634.598 1480 l 257
 659.348 1548 l 257
 335.348 1548 l 257
194.193 1630 m 257
 164.348 1548 l 257
 310.598 1480 l 257
 335.348 1548 l 257
 194.193 1630 l 257
EndSplineSet
EndChar

StartChar: brokenbar
Encoding: 151 166 151
GlifName: brokenbar
Width: 1024
VWidth: 0
GlyphClass: 2
Flags: W
LayerCount: 2
Fore
SplineSet
97.3535 -332 m 257
 207.354 -332 l 257
 576.419 682 l 257
 466.419 682 l 257
 97.3535 -332 l 257
508.728 790 m 257
 618.728 790 l 257
 926.646 1636 l 257
 816.646 1636 l 257
 508.728 790 l 257
EndSplineSet
EndChar

StartChar: bullet
Encoding: 152 8226 152
GlifName: bullet
Width: 1024
VWidth: 0
GlyphClass: 2
Flags: W
LayerCount: 2
Fore
SplineSet
416.452 1023 m 257
 322.548 765 l 257
 607.548 765 l 257
 701.452 1023 l 257
 416.452 1023 l 257
EndSplineSet
EndChar

StartChar: c
Encoding: 153 99 153
GlifName: c
Width: 1024
VWidth: 0
GlyphClass: 2
Flags: W
AnchorPoint: "base" 352 -67 basechar 0
AnchorPoint: "top" 677 1116 basechar 0
LayerCount: 2
Fore
SplineSet
349.171 1023 m 257
 277.469 826 l 257
 973.469 826 l 257
 1045.17 1023 l 257
 349.171 1023 l 257
336.976 984 m 257
 -21.1709 0 l 257
 180.829 0 l 257
 538.976 984 l 257
 336.976 984 l 257
157.987 201 m 257
 84.8291 0 l 257
 666.829 0 l 257
 739.987 201 l 257
 157.987 201 l 257
EndSplineSet
EndChar

StartChar: caron
Encoding: 155 711 155
GlifName: caron
Width: 1024
VWidth: 0
GlyphClass: 2
Flags: W
LayerCount: 2
Fore
SplineSet
433.938 1083 m 257
 424.783 1437 l 257
 334.772 1404 l 257
 355.938 1083 l 257
 433.938 1083 l 257
381.868 1146 m 257
 433.938 1083 l 257
 689.228 1408 l 257
 621.783 1437 l 257
 381.868 1146 l 257
EndSplineSet
EndChar

StartChar: cedilla
Encoding: 160 184 160
GlifName: cedilla
Width: 1024
VWidth: 0
GlyphClass: 2
Flags: W
LayerCount: 2
Fore
SplineSet
427.765 242 m 257
 309.838 -82 l 257
 465.838 -82 l 257
 583.765 242 l 257
 427.765 242 l 257
258.427 -226 m 257
 214.75 -346 l 257
 660.75 -346 l 257
 704.427 -226 l 257
 258.427 -226 l 257
657.25 62 m 257
 521.853 -310 l 257
 673.853 -310 l 257
 809.25 62 l 257
 657.25 62 l 257
363.25 62 m 257
 306.471 -94 l 257
 752.471 -94 l 257
 809.25 62 l 257
 363.25 62 l 257
EndSplineSet
EndChar

StartChar: cent
Encoding: 161 162 161
GlifName: cent
Width: 1024
VWidth: 0
GlyphClass: 2
Flags: W
LayerCount: 2
Fore
SplineSet
934.406 1183 m 257
 787.406 1183 l 257
 325.527 -86 l 257
 472.527 -86 l 257
 934.406 1183 l 257
349.171 1023 m 257
 277.469 826 l 257
 973.469 826 l 257
 1045.17 1023 l 257
 349.171 1023 l 257
336.976 984 m 257
 -21.1709 0 l 257
 180.829 0 l 257
 538.976 984 l 257
 336.976 984 l 257
157.987 201 m 257
 84.8291 0 l 257
 666.829 0 l 257
 739.987 201 l 257
 157.987 201 l 257
EndSplineSet
EndChar

StartChar: circumflex
Encoding: 162 710 162
GlifName: circumflex
Width: 1024
VWidth: 0
GlyphClass: 2
Flags: W
LayerCount: 2
Fore
SplineSet
632.946 1330 m 257
 572.946 1330 l 257
 377.046 1083 l 257
 427.946 1058 l 257
 632.946 1330 l 257
557.476 1282 m 257
 578.946 1058 l 257
 646.954 1080 l 257
 632.946 1330 l 257
 557.476 1282 l 257
EndSplineSet
EndChar

StartChar: colon
Encoding: 163 58 163
GlifName: colon
Width: 1024
VWidth: 0
GlyphClass: 2
Flags: W
LayerCount: 2
Fore
SplineSet
275.439 430 m 257
 192.09 201 l 257
 440.09 201 l 257
 523.439 430 l 257
 275.439 430 l 257
565.91 1294 m 257
 476.01 1047 l 257
 742.01 1047 l 257
 831.91 1294 l 257
 565.91 1294 l 257
EndSplineSet
EndChar

StartChar: comma
Encoding: 164 44 164
GlifName: comma
Width: 1024
VWidth: 0
GlyphClass: 2
Flags: W
LayerCount: 2
Fore
SplineSet
467.7 237 m 257
 384.352 8 l 257
 632.352 8 l 257
 715.7 237 l 257
 467.7 237 l 257
528.575 135 m 257
 308.3 -146 l 257
 430.462 -206 l 257
 627.439 0 l 257
 528.575 135 l 257
EndSplineSet
EndChar

StartChar: copyright
Encoding: 165 169 165
GlifName: copyright
Width: 1024
VWidth: 0
GlyphClass: 2
Flags: W
LayerCount: 2
Fore
SplineSet
291.211 1537 m 257
 -268.211 0 l 257
 -67.2109 0 l 257
 492.211 1537 l 257
 291.211 1537 l 257
1089.21 1537 m 257
 529.789 0 l 257
 732.789 0 l 257
 1292.21 1537 l 257
 1089.21 1537 l 257
401.211 1537 m 257
 328.417 1337 l 257
 1019.42 1337 l 257
 1092.21 1537 l 257
 401.211 1537 l 257
-59.9609 204 m 257
 -134.211 0 l 257
 538.789 0 l 257
 613.039 204 l 257
 -59.9609 204 l 257
413.462 1197 m 257
 340.304 996 l 257
 775.304 996 l 257
 848.462 1197 l 257
 413.462 1197 l 257
398.811 1154 m 257
 102.539 340 l 257
 271.539 340 l 257
 567.811 1154 l 257
 398.811 1154 l 257
158.954 495 m 257
 85.7959 294 l 257
 525.796 294 l 257
 598.954 495 l 257
 158.954 495 l 257
EndSplineSet
EndChar

StartChar: currency
Encoding: 166 164 166
GlifName: currency
Width: 1024
VWidth: 0
GlyphClass: 2
Flags: W
LayerCount: 2
Fore
SplineSet
278.613 1202 m 257
 -93.3633 180 l 257
 106.637 180 l 257
 478.613 1202 l 257
 278.613 1202 l 257
894.342 1204 m 257
 521.637 180 l 257
 723.637 180 l 257
 1096.34 1204 l 257
 894.342 1204 l 257
402.342 1204 m 257
 328.82 1002 l 257
 914.82 1002 l 257
 988.342 1204 l 257
 402.342 1204 l 257
106.43 380 m 257
 34 181 l 257
 606 181 l 257
 678.43 380 l 257
 106.43 380 l 257
255.666 1356 m 257
 165.764 1109 l 257
 433.764 1109 l 257
 523.666 1356 l 257
 255.666 1356 l 257
944.566 1331 m 257
 854.666 1084 l 257
 1118.67 1084 l 257
 1208.57 1331 l 257
 944.566 1331 l 257
-94.666 366 m 257
 -184.566 119 l 257
 79.4336 119 l 257
 169.334 366 l 257
 -94.666 366 l 257
577.154 371 m 257
 487.254 124 l 257
 751.254 124 l 257
 841.154 371 l 257
 577.154 371 l 257
EndSplineSet
EndChar

StartChar: d
Encoding: 167 100 167
GlifName: d
Width: 1024
VWidth: 0
GlyphClass: 2
Flags: W
AnchorPoint: "base" 298 -63 basechar 0
AnchorPoint: "top" 1032 1632 basechar 0
LayerCount: 2
Fore
SplineSet
969.391 1527 m 257
 413.609 0 l 257
 614.609 0 l 257
 1170.39 1527 l 257
 969.391 1527 l 257
321.951 1023 m 257
 248.793 822 l 257
 801.793 822 l 257
 874.951 1023 l 257
 321.951 1023 l 257
225.951 1023 m 257
 -146.391 0 l 257
 54.6094 0 l 257
 426.951 1023 l 257
 225.951 1023 l 257
20.584 195 m 257
 -50.3906 0 l 257
 566.609 0 l 257
 637.584 195 l 257
 20.584 195 l 257
EndSplineSet
EndChar

StartChar: dagger
Encoding: 168 8224 168
GlifName: dagger
Width: 1024
VWidth: 0
GlyphClass: 2
Flags: W
LayerCount: 2
Fore
SplineSet
324.664 1251 m 257
 264.607 1086 l 257
 870.607 1086 l 257
 930.664 1251 l 257
 324.664 1251 l 257
656.762 1548 m 257
 93.3359 0 l 257
 238.336 0 l 257
 801.762 1548 l 257
 656.762 1548 l 257
EndSplineSet
EndChar

StartChar: daggerdbl
Encoding: 169 8225 169
GlifName: daggerdbl
Width: 1024
VWidth: 0
GlyphClass: 2
Flags: W
LayerCount: 2
Fore
SplineSet
210.377 937 m 257
 150.322 772 l 257
 756.322 772 l 257
 816.377 937 l 257
 210.377 937 l 257
324.664 1251 m 257
 264.607 1086 l 257
 870.607 1086 l 257
 930.664 1251 l 257
 324.664 1251 l 257
656.762 1548 m 257
 93.3359 0 l 257
 238.336 0 l 257
 801.762 1548 l 257
 656.762 1548 l 257
EndSplineSet
EndChar

StartChar: dcaron
Encoding: 170 271 170
GlifName: dcaron
Width: 1024
VWidth: 0
GlyphClass: 2
Flags: W
LayerCount: 2
Fore
SplineSet
1168.78 1527 m 257
 613 0 l 257
 814 0 l 257
 1369.78 1527 l 257
 1168.78 1527 l 257
521.342 1023 m 257
 448.184 822 l 257
 1001.18 822 l 257
 1074.34 1023 l 257
 521.342 1023 l 257
425.342 1023 m 257
 53 0 l 257
 254 0 l 257
 626.342 1023 l 257
 425.342 1023 l 257
219.975 195 m 257
 149 0 l 257
 766 0 l 257
 836.975 195 l 257
 219.975 195 l 257
1404.5 1496 m 257
 1320.06 1264 l 257
 1450.06 1264 l 257
 1534.5 1496 l 257
 1404.5 1496 l 257
EndSplineSet
EndChar

StartChar: dcroat
Encoding: 171 273 171
GlifName: dcroat
Width: 1024
VWidth: 0
GlyphClass: 2
Flags: W
AnchorPoint: "top" 1338 1627 basechar 0
AnchorPoint: "base" 522 -86 basechar 0
LayerCount: 2
Fore
SplineSet
1247.78 1527 m 257
 692 0 l 257
 893 0 l 257
 1448.78 1527 l 257
 1247.78 1527 l 257
600.342 1023 m 257
 527.184 822 l 257
 1080.18 822 l 257
 1153.34 1023 l 257
 600.342 1023 l 257
504.342 1023 m 257
 132 0 l 257
 333 0 l 257
 705.342 1023 l 257
 504.342 1023 l 257
298.975 195 m 257
 228 0 l 257
 845 0 l 257
 915.975 195 l 257
 298.975 195 l 257
1065.65 1403 m 257
 992.492 1202 l 257
 1436.49 1202 l 257
 1509.65 1403 l 257
 1065.65 1403 l 257
EndSplineSet
EndChar

StartChar: degree
Encoding: 172 176 172
GlifName: degree
Width: 1024
VWidth: 0
GlyphClass: 2
Flags: W
LayerCount: 2
Fore
SplineSet
459.93 1456 m 257
 607.93 1456 l 257
 560.615 1326 l 257
 412.615 1326 l 257
 459.93 1456 l 257
388.416 1548 m 257
 275.584 1238 l 257
 635.584 1238 l 257
 748.416 1548 l 257
 388.416 1548 l 257
EndSplineSet
EndChar

StartChar: dieresis
Encoding: 173 168 173
GlifName: dieresis
Width: 1024
VWidth: 0
GlyphClass: 2
Flags: W
LayerCount: 2
Fore
SplineSet
353.381 1030 m 257
 316.619 929 l 257
 428.619 929 l 257
 465.381 1030 l 257
 353.381 1030 l 257
595.381 1030 m 257
 558.619 929 l 257
 670.619 929 l 257
 707.381 1030 l 257
 595.381 1030 l 257
EndSplineSet
EndChar

StartChar: divide
Encoding: 174 247 174
GlifName: divide
Width: 1024
VWidth: 0
GlyphClass: 2
Flags: W
LayerCount: 2
Fore
SplineSet
556.507 430 m 257
 473.158 201 l 257
 721.158 201 l 257
 804.507 430 l 257
 556.507 430 l 257
846.978 1294 m 257
 757.077 1047 l 257
 1023.08 1047 l 257
 1112.98 1294 l 257
 846.978 1294 l 257
393.088 808 m 257
 317.382 600 l 257
 1143.38 600 l 257
 1219.09 808 l 257
 393.088 808 l 257
EndSplineSet
EndChar

StartChar: dollar
Encoding: 175 36 175
GlifName: dollar
Width: 1024
VWidth: 0
GlyphClass: 2
Flags: W
LayerCount: 2
Fore
SplineSet
478.711 1537 m 257
 413.561 1358 l 257
 1011.56 1358 l 257
 1076.71 1537 l 257
 478.711 1537 l 257
480.531 1542 m 257
 293.45 1028 l 257
 498.45 1028 l 257
 685.531 1542 l 257
 480.531 1542 l 257
6.61621 163 m 257
 -52.7109 0 l 257
 655.289 0 l 257
 714.616 163 l 257
 6.61621 163 l 257
485.289 0 m 257
 691.289 0 l 257
 820.498 355 l 257
 614.498 355 l 257
 485.289 0 l 257
293.45 1028 m 257
 614.498 355 l 257
 820.498 355 l 257
 498.45 1028 l 257
 293.45 1028 l 257
773.744 1636 m 257
 100.035 -215 l 257
 314.035 -215 l 257
 987.744 1636 l 257
 773.744 1636 l 257
EndSplineSet
EndChar

StartChar: dotaccent
Encoding: 176 729 176
GlifName: dotaccent
Width: 1024
VWidth: 0
GlyphClass: 2
Flags: W
LayerCount: 2
Fore
SplineSet
455.48 1053 m 257
 400.52 902 l 257
 568.52 902 l 257
 623.48 1053 l 257
 455.48 1053 l 257
EndSplineSet
EndChar

StartChar: dotbelowcomb
Encoding: 177 803 177
GlifName: dotbelowcomb
Width: 0
VWidth: 0
GlyphClass: 4
Flags: W
AnchorPoint: "base" -70 -191 mark 0
LayerCount: 2
Fore
SplineSet
-206.25 -204 m 257
 -296.15 -451 l 257
 -32.1504 -451 l 257
 57.75 -204 l 257
 -206.25 -204 l 257
EndSplineSet
EndChar

StartChar: dotlessi
Encoding: 178 305 178
GlifName: dotlessi
Width: 1024
VWidth: 0
GlyphClass: 2
Flags: W
AnchorPoint: "top" 925.488 1191 basechar 0
AnchorPoint: "base" 1178.72 -9 basechar 0
LayerCount: 2
Fore
SplineSet
781.521 1018 m 257
 461.592 139 l 257
 663.592 139 l 257
 983.521 1018 l 257
 781.521 1018 l 257
215.25 204 m 257
 143.184 6 l 257
 885.184 6 l 257
 957.25 204 l 257
 215.25 204 l 257
561.521 1018 m 257
 488.728 818 l 257
 864.728 818 l 257
 937.521 1018 l 257
 561.521 1018 l 257
EndSplineSet
EndChar

StartChar: e
Encoding: 179 101 179
GlifName: e
Width: 1024
VWidth: 0
GlyphClass: 2
Flags: W
AnchorPoint: "top" 730 1156 basechar 0
AnchorPoint: "base" 329 -75 basechar 0
LayerCount: 2
Fore
SplineSet
405.671 1023 m 257
 328.873 812 l 257
 963.873 812 l 257
 1040.67 1023 l 257
 405.671 1023 l 257
355.671 1023 m 257
 -16.6709 0 l 257
 185.329 0 l 257
 557.671 1023 l 257
 355.671 1023 l 257
158.487 201 m 257
 85.3291 0 l 257
 667.329 0 l 257
 740.487 201 l 257
 158.487 201 l 257
280.811 625 m 257
 215.66 446 l 257
 805.66 446 l 257
 870.811 625 l 257
 280.811 625 l 257
832.752 993 m 257
 633.296 445 l 257
 828.296 445 l 257
 1027.75 993 l 257
 832.752 993 l 257
EndSplineSet
EndChar

StartChar: eight
Encoding: 187 56 187
GlifName: eight
Width: 1024
VWidth: 0
GlyphClass: 2
Flags: W
LayerCount: 2
Fore
SplineSet
337.213 1548 m 257
 -226.213 0 l 257
 686.787 0 l 257
 1250.21 1548 l 257
 337.213 1548 l 257
761.04 759 m 257
 556.489 197 l 257
 49.4893 197 l 257
 254.04 759 l 257
 761.04 759 l 257
834.835 959 m 257
 326.835 959 l 257
 469.146 1350 l 257
 977.146 1350 l 257
 834.835 959 l 257
EndSplineSet
EndChar

StartChar: ellipsis
Encoding: 188 8230 188
GlifName: ellipsis
Width: 1024
VWidth: 0
GlyphClass: 2
Flags: W
LayerCount: 2
Fore
SplineSet
200.746 114 m 257
 159.254 0 l 257
 301.254 0 l 257
 342.746 114 l 257
 200.746 114 l 257
456.746 114 m 257
 415.254 0 l 257
 559.254 0 l 257
 600.746 114 l 257
 456.746 114 l 257
722.746 114 m 257
 681.254 0 l 257
 823.254 0 l 257
 864.746 114 l 257
 722.746 114 l 257
EndSplineSet
EndChar

StartChar: emdash
Encoding: 190 8212 190
GlifName: emdash
Width: 1024
VWidth: 0
GlyphClass: 2
Flags: W
LayerCount: 2
Fore
SplineSet
-37.8535 600 m 257
 986.146 600 l 257
 1061.85 808 l 257
 37.8535 808 l 257
 -37.8535 600 l 257
EndSplineSet
EndChar

StartChar: endash
Encoding: 191 8211 191
GlifName: endash
Width: 1024
VWidth: 0
GlyphClass: 2
Flags: W
LayerCount: 2
Fore
SplineSet
317.382 600 m 257
 1143.38 600 l 257
 1219.09 808 l 257
 393.088 808 l 257
 317.382 600 l 257
EndSplineSet
EndChar

StartChar: eng
Encoding: 192 331 192
GlifName: eng
Width: 1024
VWidth: 0
GlyphClass: 2
Flags: W
AnchorPoint: "top" 800 1119 basechar 0
AnchorPoint: "base" 304 -441 basechar 0
LayerCount: 2
Fore
SplineSet
267 -211 m 257
 196 -406 l 257
 583 -406 l 257
 654 -211 l 257
 267 -211 l 257
492 990 m 257
 132 0 l 257
 333 0 l 257
 693 990 l 257
 492 990 l 257
886 976 m 257
 383 -406 l 257
 584 -406 l 257
 1087 976 l 257
 886 976 l 257
325 1023 m 257
 253 826 l 257
 1031 826 l 257
 1103 1023 l 257
 325 1023 l 257
EndSplineSet
EndChar

StartChar: equal
Encoding: 194 61 194
GlifName: equal
Width: 1024
VWidth: 0
GlyphClass: 2
Flags: W
LayerCount: 2
Fore
SplineSet
206.64 914 m 257
 137.485 724 l 257
 953.485 724 l 257
 1022.64 914 l 257
 206.64 914 l 257
70.5146 540 m 257
 1.36035 350 l 257
 817.36 350 l 257
 886.515 540 l 257
 70.5146 540 l 257
EndSplineSet
EndChar

StartChar: eth
Encoding: 195 240 195
GlifName: eth
Width: 1024
VWidth: 0
GlyphClass: 2
Flags: W
AnchorPoint: "top" 869 1634 basechar 0
AnchorPoint: "base" 513 -132 basechar 0
LayerCount: 2
Fore
SplineSet
804.426 1548 m 257
 692 0 l 257
 893 0 l 257
 1005.43 1548 l 257
 804.426 1548 l 257
600.342 1023 m 257
 527.184 822 l 257
 868.184 822 l 257
 941.342 1023 l 257
 600.342 1023 l 257
504.342 1023 m 257
 132 0 l 257
 333 0 l 257
 705.342 1023 l 257
 504.342 1023 l 257
298.975 195 m 257
 228 0 l 257
 845 0 l 257
 915.975 195 l 257
 298.975 195 l 257
676.382 1416 m 257
 608.319 1229 l 257
 1140.32 1229 l 257
 1208.38 1416 l 257
 676.382 1416 l 257
EndSplineSet
EndChar

StartChar: exclam
Encoding: 196 33 196
GlifName: exclam
Width: 1024
VWidth: 0
GlyphClass: 2
Flags: W
LayerCount: 2
Fore
SplineSet
169.477 17 m 257
 313.477 17 l 257
 403.741 265 l 257
 259.741 265 l 257
 169.477 17 l 257
356.002 502 m 257
 484.002 502 l 257
 854.523 1520 l 257
 726.523 1520 l 257
 356.002 502 l 257
EndSplineSet
EndChar

StartChar: exclamdown
Encoding: 197 161 197
GlifName: exclamdown
Width: 1024
VWidth: 0
GlyphClass: 2
Flags: W
LayerCount: 2
Fore
SplineSet
854.523 1520 m 257
 710.523 1520 l 257
 620.259 1272 l 257
 764.259 1272 l 257
 854.523 1520 l 257
667.998 1035 m 257
 539.998 1035 l 257
 169.477 17 l 257
 297.477 17 l 257
 667.998 1035 l 257
EndSplineSet
EndChar

StartChar: f
Encoding: 198 102 198
GlifName: f
Width: 1024
VWidth: 0
GlyphClass: 2
Flags: W
AnchorPoint: "top" 811 1647 basechar 0
AnchorPoint: "base" 95 -88 basechar 0
LayerCount: 2
Fore
SplineSet
503 1551 m 257
 -20 -6 l 257
 180 -6 l 257
 703 1551 l 257
 503 1551 l 257
565 1551 m 257
 495 1359 l 257
 977 1359 l 257
 1047 1551 l 257
 565 1551 l 257
147 959 m 257
 73 756 l 257
 704 756 l 257
 778 959 l 257
 147 959 l 257
EndSplineSet
EndChar

StartChar: five
Encoding: 199 53 199
GlifName: five
Width: 1024
VWidth: 0
GlyphClass: 2
Flags: W
LayerCount: 2
Fore
SplineSet
755.54 759 m 257
 551.354 198 l 257
 -161.646 198 l 257
 -233.713 0 l 257
 684.287 0 l 257
 1033.33 959 l 257
 316.335 959 l 257
 459.375 1352 l 257
 1186.38 1352 l 257
 1257.71 1548 l 257
 330.713 1548 l 257
 43.54 759 l 257
 755.54 759 l 257
EndSplineSet
EndChar

StartChar: four
Encoding: 200 52 200
GlifName: four
Width: 1024
VWidth: 0
GlyphClass: 2
Flags: W
LayerCount: 2
Fore
SplineSet
-50.2227 761 m 257
 591.777 761 l 257
 317.344 7 l 257
 513.344 7 l 257
 1074.22 1548 l 257
 875.223 1548 l 257
 661.572 961 l 257
 222.572 961 l 257
 436.223 1548 l 257
 236.223 1548 l 257
 -50.2227 761 l 257
EndSplineSet
EndChar

StartChar: g
Encoding: 201 103 201
GlifName: g
Width: 1024
VWidth: 0
GlyphClass: 2
Flags: W
AnchorPoint: "top" 758 1134 basechar 0
AnchorPoint: "base" 237 -467 basechar 0
LayerCount: 2
Fore
SplineSet
487.33 1023 m 257
 114.988 0 l 257
 306.988 0 l 257
 679.33 1023 l 257
 487.33 1023 l 257
527.33 1023 m 257
 454.537 823 l 257
 970.537 823 l 257
 1043.33 1023 l 257
 527.33 1023 l 257
871.33 1023 m 257
 349.396 -411 l 257
 543.396 -411 l 257
 1065.33 1023 l 257
 871.33 1023 l 257
250.055 198 m 257
 177.988 0 l 257
 634.988 0 l 257
 707.055 198 l 257
 250.055 198 l 257
31.0996 -214 m 257
 -41.3301 -413 l 257
 493.67 -413 l 257
 566.1 -214 l 257
 31.0996 -214 l 257
EndSplineSet
EndChar

StartChar: germandbls
Encoding: 205 223 205
GlifName: germandbls
Width: 1024
VWidth: 0
GlyphClass: 2
Flags: W
LayerCount: 2
Fore
SplineSet
18 1221 m 257
 18 1023 l 257
 269 1023 l 257
 269 1221 l 257
 18 1221 l 257
204 1548 m 257
 204 0 l 257
 410 0 l 257
 410 1548 l 257
 204 1548 l 257
410 1548 m 257
 410 1328 l 257
 805 1328 l 257
 805 1548 l 257
 410 1548 l 257
690 1548 m 257
 690 1023 l 257
 889 1023 l 257
 889 1548 l 257
 690 1548 l 257
690 1062 m 257
 490 1062 l 257
 490 826 l 257
 690 826 l 257
 690 1062 l 257
690 848 m 257
 690 175 l 257
 890 175 l 257
 890 848 l 257
 690 848 l 257
547 251 m 257
 547 40 l 257
 890 40 l 257
 890 251 l 257
 547 251 l 257
EndSplineSet
EndChar

StartChar: grave
Encoding: 206 96 206
GlifName: grave
Width: 1024
VWidth: 0
GlyphClass: 2
Flags: W
LayerCount: 2
Fore
SplineSet
406.674 1358 m 257
 442.119 1057 l 257
 617.326 1129 l 257
 580.881 1430 l 257
 406.674 1358 l 257
EndSplineSet
EndChar

StartChar: gravecomb
Encoding: 207 768 207
GlifName: gravecomb
Width: 0
VWidth: 0
GlyphClass: 4
Flags: W
AnchorPoint: "top" 16 885 mark 0
LayerCount: 2
Fore
SplineSet
-68 1114 m 257
 -34 878 l 257
 69 929 l 257
 36 1166 l 257
 -68 1114 l 257
EndSplineSet
EndChar

StartChar: greater
Encoding: 208 62 208
GlifName: greater
Width: 1024
VWidth: 0
GlyphClass: 2
Flags: W
LayerCount: 2
Fore
SplineSet
1041.2 777 m 257
 305.098 1013 l 257
 230.119 807 l 257
 967.131 568 l 257
 1041.2 777 l 257
1041.2 777 m 257
 54.502 319 l 257
 -17.2002 122 l 257
 967.131 568 l 257
 1041.2 777 l 257
EndSplineSet
EndChar

StartChar: guillemotleft
Encoding: 209 171 209
GlifName: guillemotleft
Width: 1024
VWidth: 0
GlyphClass: 2
Flags: W
LayerCount: 2
Fore
SplineSet
116.361 609 m 257
 59.9453 454 l 257
 493.367 631 l 257
 549.055 784 l 257
 116.361 609 l 257
116.361 609 m 257
 59.9453 454 l 257
 307.107 122 l 257
 360.246 268 l 257
 116.361 609 l 257
531.361 609 m 257
 474.945 454 l 257
 908.367 631 l 257
 964.055 784 l 257
 531.361 609 l 257
531.361 609 m 257
 474.945 454 l 257
 722.107 122 l 257
 775.246 268 l 257
 531.361 609 l 257
EndSplineSet
EndChar

StartChar: guillemotright
Encoding: 210 187 210
GlifName: guillemotright
Width: 1024
VWidth: 0
GlyphClass: 2
Flags: W
LayerCount: 2
Fore
SplineSet
992.127 609 m 257
 686.821 784 l 257
 631.134 631 l 257
 935.711 454 l 257
 992.127 609 l 257
992.127 609 m 257
 500.013 268 l 257
 446.873 122 l 257
 935.711 454 l 257
 992.127 609 l 257
577.127 609 m 257
 271.821 784 l 257
 216.134 631 l 257
 520.711 454 l 257
 577.127 609 l 257
577.127 609 m 257
 85.0127 268 l 257
 31.873 122 l 257
 520.711 454 l 257
 577.127 609 l 257
EndSplineSet
EndChar

StartChar: guilsinglleft
Encoding: 211 8249 211
GlifName: guilsinglleft
Width: 1024
VWidth: 0
GlyphClass: 2
Flags: W
LayerCount: 2
Fore
SplineSet
97.9043 777 m 257
 22.1982 569 l 257
 926.823 807 l 257
 1001.8 1013 l 257
 97.9043 777 l 257
97.9043 777 m 257
 22.1982 569 l 257
 675.504 122 l 257
 747.206 319 l 257
 97.9043 777 l 257
EndSplineSet
EndChar

StartChar: guilsinglright
Encoding: 212 8250 212
GlifName: guilsinglright
Width: 1024
VWidth: 0
GlyphClass: 2
Flags: W
LayerCount: 2
Fore
SplineSet
1041.2 777 m 257
 305.098 1013 l 257
 230.119 807 l 257
 967.131 568 l 257
 1041.2 777 l 257
1041.2 777 m 257
 54.502 319 l 257
 -17.2002 122 l 257
 967.131 568 l 257
 1041.2 777 l 257
EndSplineSet
EndChar

StartChar: h
Encoding: 213 104 213
GlifName: h
Width: 1024
VWidth: 0
GlyphClass: 2
Flags: W
AnchorPoint: "top" 685 1636 basechar 0
AnchorPoint: "base" 321 -36 basechar 0
LayerCount: 2
Fore
SplineSet
546.159 1537 m 257
 -11.0791 6 l 257
 188.921 6 l 257
 746.159 1537 l 257
 546.159 1537 l 257
496.079 1023 m 257
 424.377 826 l 257
 955.377 826 l 257
 1027.08 1023 l 257
 496.079 1023 l 257
836.079 1023 m 257
 463.737 0 l 257
 662.737 0 l 257
 1035.08 1023 l 257
 836.079 1023 l 257
EndSplineSet
EndChar

StartChar: hbar
Encoding: 214 295 214
GlifName: hbar
Width: 1024
VWidth: 0
GlyphClass: 2
Flags: W
LayerCount: 2
Fore
SplineSet
733.422 1537 m 257
 176.184 6 l 257
 376.184 6 l 257
 933.422 1537 l 257
 733.422 1537 l 257
683.342 1023 m 257
 611.64 826 l 257
 1142.64 826 l 257
 1214.34 1023 l 257
 683.342 1023 l 257
1023.34 1023 m 257
 651 0 l 257
 850 0 l 257
 1222.34 1023 l 257
 1023.34 1023 l 257
558.113 1429 m 257
 482.407 1221 l 257
 938.407 1221 l 257
 1014.11 1429 l 257
 558.113 1429 l 257
EndSplineSet
EndChar

StartChar: hookabovecomb
Encoding: 216 777 216
GlifName: hookabovecomb
Width: 0
VWidth: 0
GlyphClass: 4
Flags: W
AnchorPoint: "top" -8 769 mark 0
LayerCount: 2
Fore
SplineSet
17 1075 m 257
 -14 999 l 257
 206 999 l 257
 237 1075 l 257
 17 1075 l 257
139 1075 m 257
 79 927 l 257
 179 927 l 257
 240 1075 l 257
 139 1075 l 257
3 936 m 257
 -27 865 l 257
 153 865 l 257
 183 936 l 257
 3 936 l 257
3 936 m 257
 -44 823 l 257
 44 823 l 257
 90 936 l 257
 3 936 l 257
EndSplineSet
EndChar

StartChar: hungarumlaut
Encoding: 217 733 217
GlifName: hungarumlaut
Width: 1024
VWidth: 0
GlyphClass: 2
Flags: W
LayerCount: 2
Fore
SplineSet
194.867 122 m 257
 338.867 122 l 257
 429.133 370 l 257
 285.133 370 l 257
 194.867 122 l 257
594.867 122 m 257
 738.867 122 l 257
 829.133 370 l 257
 685.133 370 l 257
 594.867 122 l 257
EndSplineSet
EndChar

StartChar: hyphen
Encoding: 218 45 218
GlifName: hyphen
Width: 1024
VWidth: 0
GlyphClass: 2
Flags: W
LayerCount: 2
Fore
SplineSet
136.854 808 m 257
 61.1465 600 l 257
 887.146 600 l 257
 962.854 808 l 257
 136.854 808 l 257
EndSplineSet
EndChar

StartChar: i
Encoding: 219 105 219
GlifName: i
Width: 1024
VWidth: 0
GlyphClass: 2
Flags: W
AnchorPoint: "top" 885 1457 basechar 0
AnchorPoint: "base" 486 -78 basechar 0
LayerCount: 2
Fore
SplineSet
700.292 1018 m 257
 380.362 139 l 257
 582.362 139 l 257
 902.292 1018 l 257
 700.292 1018 l 257
134.021 204 m 257
 61.9541 6 l 257
 803.954 6 l 257
 876.021 204 l 257
 134.021 204 l 257
764.046 1369 m 257
 690.888 1168 l 257
 888.888 1168 l 257
 962.046 1369 l 257
 764.046 1369 l 257
480.292 1018 m 257
 407.498 818 l 257
 783.498 818 l 257
 856.292 1018 l 257
 480.292 1018 l 257
EndSplineSet
EndChar

StartChar: j
Encoding: 229 106 229
GlifName: j
Width: 1024
VWidth: 0
GlyphClass: 2
Flags: W
AnchorPoint: "top" 1070 1521 basechar 0
AnchorPoint: "base" 176 -455 basechar 0
LayerCount: 2
Fore
SplineSet
819.582 1023 m 257
 297.648 -411 l 257
 496.648 -411 l 257
 1018.58 1023 l 257
 819.582 1023 l 257
-58.8281 -209 m 257
 -130.531 -406 l 257
 399.469 -406 l 257
 471.172 -209 l 257
 -58.8281 -209 l 257
16.0566 -6 m 257
 -109.514 -351 l 257
 90.4863 -351 l 257
 216.057 -6 l 257
 16.0566 -6 l 257
953.531 1413 m 257
 881.102 1214 l 257
 1082.1 1214 l 257
 1154.53 1413 l 257
 953.531 1413 l 257
EndSplineSet
EndChar

StartChar: k
Encoding: 231 107 231
GlifName: k
Width: 1024
VWidth: 0
GlyphClass: 2
Flags: W
AnchorPoint: "base" 328 -31 basechar 0
AnchorPoint: "top" 615 1621 basechar 0
LayerCount: 2
Fore
SplineSet
491.841 1537 m 257
 -65.7607 5 l 257
 134.239 5 l 257
 691.841 1537 l 257
 491.841 1537 l 257
169.228 516 m 257
 138.882 298 l 257
 1089.76 1023 l 257
 872.761 1023 l 257
 169.228 516 l 257
468.084 631 m 257
 262.217 483 l 257
 536.419 0 l 257
 774.419 0 l 257
 468.084 631 l 257
EndSplineSet
EndChar

StartChar: kgreenlandic
Encoding: 232 312 232
GlifName: kgreenlandic
Width: 1024
VWidth: 0
GlyphClass: 2
Flags: W
AnchorPoint: "base" 297 -89 basechar 0
AnchorPoint: "top" 329 1141 basechar 0
LayerCount: 2
Fore
SplineSet
228 1022 m 257
 -142 5 l 257
 58 5 l 257
 428 1022 l 257
 228 1022 l 257
93 516 m 257
 62 298 l 257
 1198 1023 l 257
 981 1023 l 257
 93 516 l 257
467 631 m 257
 186 483 l 257
 579 0 l 257
 817 0 l 257
 467 631 l 257
EndSplineSet
EndChar

StartChar: l
Encoding: 233 108 233
GlifName: l
Width: 1024
VWidth: 0
GlyphClass: 2
Flags: W
AnchorPoint: "base" 347 -61 basechar 0
AnchorPoint: "top" 925 1640 basechar 0
LayerCount: 2
Fore
SplineSet
96.2188 209 m 257
 23.4248 9 l 257
 657.425 9 l 257
 730.219 209 l 257
 96.2188 209 l 257
800.575 1548 m 257
 268.451 86 l 257
 468.451 86 l 257
 1000.58 1548 l 257
 800.575 1548 l 257
644.575 1548 m 257
 572.146 1349 l 257
 807.146 1349 l 257
 879.575 1548 l 257
 644.575 1548 l 257
EndSplineSet
EndChar

StartChar: lcaron
Encoding: 235 318 235
GlifName: lcaron
Width: 1024
VWidth: 0
GlyphClass: 2
Flags: W
LayerCount: 2
Fore
SplineSet
209.069 209 m 257
 136.275 9 l 257
 770.275 9 l 257
 843.069 209 l 257
 209.069 209 l 257
913.426 1548 m 257
 381.302 86 l 257
 581.302 86 l 257
 1113.43 1548 l 257
 913.426 1548 l 257
757.426 1548 m 257
 684.996 1349 l 257
 919.996 1349 l 257
 992.426 1548 l 257
 757.426 1548 l 257
1174.5 1496 m 257
 1090.06 1264 l 257
 1220.06 1264 l 257
 1304.5 1496 l 257
 1174.5 1496 l 257
EndSplineSet
EndChar

StartChar: less
Encoding: 237 60 237
GlifName: less
Width: 1024
VWidth: 0
GlyphClass: 2
Flags: W
LayerCount: 2
Fore
SplineSet
97.9043 777 m 257
 22.1982 569 l 257
 926.823 807 l 257
 1001.8 1013 l 257
 97.9043 777 l 257
97.9043 777 m 257
 22.1982 569 l 257
 675.504 122 l 257
 747.206 319 l 257
 97.9043 777 l 257
EndSplineSet
EndChar

StartChar: logicalnot
Encoding: 238 172 238
GlifName: logicalnot
Width: 1024
VWidth: 0
GlyphClass: 2
Flags: W
LayerCount: 2
Fore
SplineSet
685.199 935 m 257
 577.828 640 l 257
 687.828 640 l 257
 795.199 935 l 257
 685.199 935 l 257
255.199 935 m 257
 218.801 835 l 257
 768.801 835 l 257
 805.199 935 l 257
 255.199 935 l 257
EndSplineSet
EndChar

StartChar: lslash
Encoding: 239 322 239
GlifName: lslash
Width: 1024
VWidth: 0
GlyphClass: 2
Flags: W
LayerCount: 2
Fore
SplineSet
271.069 209 m 257
 198.275 9 l 257
 832.275 9 l 257
 905.069 209 l 257
 271.069 209 l 257
975.426 1548 m 257
 443.302 86 l 257
 643.302 86 l 257
 1175.43 1548 l 257
 975.426 1548 l 257
819.426 1548 m 257
 746.996 1349 l 257
 981.996 1349 l 257
 1054.43 1548 l 257
 819.426 1548 l 257
1256.5 1213 m 257
 414.096 830 l 257
 452.765 656 l 257
 1295.17 1039 l 257
 1256.5 1213 l 257
EndSplineSet
EndChar

StartChar: m
Encoding: 240 109 240
GlifName: m
Width: 1024
VWidth: 0
GlyphClass: 2
Flags: W
AnchorPoint: "base" 321 -112 basechar 0
AnchorPoint: "top" 716 1110 basechar 0
LayerCount: 2
Fore
SplineSet
272.752 993 m 257
 -88.6709 0 l 257
 111.329 0 l 257
 472.752 993 l 257
 272.752 993 l 257
580.108 972 m 257
 226.329 0 l 257
 426.329 0 l 257
 780.108 972 l 257
 580.108 972 l 257
896.564 976 m 257
 541.329 0 l 257
 741.329 0 l 257
 1096.56 976 l 257
 896.564 976 l 257
206.671 1023 m 257
 134.969 826 l 257
 1040.97 826 l 257
 1112.67 1023 l 257
 206.671 1023 l 257
EndSplineSet
EndChar

StartChar: macron
Encoding: 241 175 241
GlifName: macron
Width: 1024
VWidth: 0
GlyphClass: 2
Flags: W
LayerCount: 2
Fore
SplineSet
246.377 1023 m 257
 217.623 944 l 257
 777.623 944 l 257
 806.377 1023 l 257
 246.377 1023 l 257
EndSplineSet
EndChar

StartChar: mu
Encoding: 243 181 243
GlifName: mu
Width: 1024
VWidth: 0
GlyphClass: 2
Flags: W
LayerCount: 2
Fore
SplineSet
972.91 935 m 257
 632.598 0 l 257
 742.598 0 l 257
 1082.91 935 l 257
 972.91 935 l 257
241.273 120 m 257
 197.598 0 l 257
 712.598 0 l 257
 756.273 120 l 257
 241.273 120 l 257
437.91 935 m 257
 -58.9102 -430 l 257
 36.0898 -430 l 257
 532.91 935 l 257
 437.91 935 l 257
EndSplineSet
EndChar

StartChar: multiply
Encoding: 244 215 244
GlifName: multiply
Width: 1024
VWidth: 0
GlyphClass: 2
Flags: W
LayerCount: 2
Fore
SplineSet
91 302 m 257
 292 302 l 257
 927 1323 l 257
 728 1323 l 257
 91 302 l 257
93 1325 m 257
 735 298 l 257
 934 298 l 257
 295 1325 l 257
 93 1325 l 257
EndSplineSet
EndChar

StartChar: n
Encoding: 245 110 245
GlifName: n
Width: 1024
VWidth: 0
GlyphClass: 2
Flags: W
AnchorPoint: "base" 322 -33 basechar 0
AnchorPoint: "top" 724 1127 basechar 0
LayerCount: 2
Fore
SplineSet
386.659 990 m 257
 26.3291 0 l 257
 227.329 0 l 257
 587.659 990 l 257
 386.659 990 l 257
780.564 976 m 257
 425.329 0 l 257
 626.329 0 l 257
 981.564 976 l 257
 780.564 976 l 257
219.671 1023 m 257
 147.969 826 l 257
 925.969 826 l 257
 997.671 1023 l 257
 219.671 1023 l 257
EndSplineSet
EndChar

StartChar: nine
Encoding: 248 57 248
GlifName: nine
Width: 1024
VWidth: 0
GlyphClass: 2
Flags: W
LayerCount: 2
Fore
SplineSet
758.448 759 m 257
 554.989 200 l 257
 -147.011 200 l 257
 -219.805 0 l 257
 678.195 0 l 257
 1243.8 1554 l 257
 323.805 1554 l 257
 317.617 1537 l 257
 34.4482 759 l 257
 758.448 759 l 257
828.243 959 m 257
 307.243 959 l 257
 451.011 1354 l 257
 972.011 1354 l 257
 828.243 959 l 257
EndSplineSet
EndChar

StartChar: numbersign
Encoding: 250 35 250
GlifName: numbersign
Width: 1024
VWidth: 0
GlyphClass: 2
Flags: W
LayerCount: 2
Fore
SplineSet
404.976 1347 m 257
 28.6309 313 l 257
 168.631 313 l 257
 544.976 1347 l 257
 404.976 1347 l 257
816.067 1350 m 257
 426.256 279 l 257
 594.256 279 l 257
 984.067 1350 l 257
 816.067 1350 l 257
205.821 1157 m 257
 152.318 1010 l 257
 970.318 1010 l 257
 1023.82 1157 l 257
 205.821 1157 l 257
63.873 767 m 257
 0.178711 592 l 257
 828.179 592 l 257
 891.873 767 l 257
 63.873 767 l 257
EndSplineSet
EndChar

StartChar: o
Encoding: 251 111 251
GlifName: o
Width: 1024
VWidth: 0
GlyphClass: 2
Flags: W
AnchorPoint: "top" 695 1127 basechar 0
AnchorPoint: "base" 304 -69 basechar 0
LayerCount: 2
Fore
SplineSet
289.671 1023 m 257
 -82.6709 0 l 257
 117.329 0 l 257
 489.671 1023 l 257
 289.671 1023 l 257
904.671 1023 m 257
 532.329 0 l 257
 734.329 0 l 257
 1106.67 1023 l 257
 904.671 1023 l 257
412.671 1023 m 257
 339.513 822 l 257
 925.513 822 l 257
 998.671 1023 l 257
 412.671 1023 l 257
117.123 200 m 257
 44.3291 0 l 257
 616.329 0 l 257
 689.123 200 l 257
 117.123 200 l 257
EndSplineSet
EndChar

StartChar: oe
Encoding: 256 339 256
GlifName: oe
Width: 1024
VWidth: 0
GlyphClass: 2
Flags: W
AnchorPoint: "top" 754 1152 basechar 0
AnchorPoint: "base" 362 -128 basechar 0
LayerCount: 2
Fore
SplineSet
646 645 m 257
 573 446 l 257
 800 446 l 257
 873 645 l 257
 646 645 l 257
985 1023 m 257
 775 445 l 257
 975 445 l 257
 1185 1023 l 257
 985 1023 l 257
289 1023 m 257
 -83 0 l 257
 117 0 l 257
 489 1023 l 257
 289 1023 l 257
637 1023 m 257
 265 0 l 257
 465 0 l 257
 837 1023 l 257
 637 1023 l 257
344 1023 m 257
 271 823 l 257
 972 823 l 257
 1045 1023 l 257
 344 1023 l 257
36 200 m 257
 -37 0 l 257
 813 0 l 257
 886 200 l 257
 36 200 l 257
EndSplineSet
EndChar

StartChar: ogonek
Encoding: 257 731 257
GlifName: ogonek
Width: 1024
VWidth: 0
GlyphClass: 2
Flags: W
LayerCount: 2
Fore
SplineSet
210.062 -288 m 257
 167.114 -406 l 257
 709.114 -406 l 257
 752.062 -288 l 257
 210.062 -288 l 257
314.886 0 m 257
 167.114 -406 l 257
 285.114 -406 l 257
 432.886 0 l 257
 314.886 0 l 257
314.886 0 m 257
 270.846 -121 l 257
 812.846 -121 l 257
 856.886 0 l 257
 314.886 0 l 257
EndSplineSet
EndChar

StartChar: one
Encoding: 262 49 262
GlifName: one
Width: 1024
VWidth: 0
GlyphClass: 2
Flags: W
LayerCount: 2
Fore
SplineSet
130.787 0 m 257
 329.787 0 l 257
 893.213 1548 l 257
 694.213 1548 l 257
 130.787 0 l 257
698.213 1548 m 257
 392.478 1252 l 257
 506.081 1152 l 257
 812.18 1449 l 257
 698.213 1548 l 257
EndSplineSet
EndChar

StartChar: onehalf
Encoding: 263 189 263
GlifName: onehalf
Width: 1024
VWidth: 0
GlyphClass: 2
Flags: W
LayerCount: 2
Fore
SplineSet
983.844 1483 m 257
 -123.74 6 l 257
 40.1562 -30 l 257
 1147.74 1447 l 257
 983.844 1483 l 257
353.182 863 m 257
 436.182 863 l 257
 685.502 1548 l 257
 602.502 1548 l 257
 353.182 863 l 257
604.502 1548 m 257
 475.549 1419 l 257
 521.17 1374 l 257
 651.215 1506 l 257
 604.502 1548 l 257
614.549 603 m 257
 813.549 603 l 257
 742.211 407 l 257
 545.211 407 l 257
 397.076 0 l 257
 654.076 0 l 257
 686.832 90 l 257
 495.832 90 l 257
 578.455 317 l 257
 774.455 317 l 257
 911.307 693 l 257
 647.307 693 l 257
 614.549 603 l 257
EndSplineSet
EndChar

StartChar: onequarter
Encoding: 264 188 264
GlifName: onequarter
Width: 1024
VWidth: 0
GlyphClass: 2
Flags: W
LayerCount: 2
Fore
SplineSet
1021.52 1480 m 257
 -100.518 10 l 257
 2.48242 10 l 257
 1124.52 1480 l 257
 1021.52 1480 l 257
504.191 1045 m 257
 558.191 1045 l 257
 741.268 1548 l 257
 687.268 1548 l 257
 504.191 1045 l 257
692.268 1548 m 257
 538.592 1428 l 257
 545.125 1391 l 257
 717.264 1537 l 257
 692.268 1548 l 257
522.787 379 m 257
 827.787 379 l 257
 692.391 7 l 257
 751.391 7 l 257
 1028.37 768 l 257
 968.371 768 l 257
 850.809 445 l 257
 605.809 445 l 257
 724.1 770 l 257
 665.1 770 l 257
 522.787 379 l 257
EndSplineSet
EndChar

StartChar: ordfeminine
Encoding: 265 170 265
GlifName: ordfeminine
Width: 1024
VWidth: 0
GlyphClass: 2
Flags: W
LayerCount: 2
Fore
SplineSet
453.857 1319 m 257
 381.062 1119 l 257
 987.062 1119 l 257
 1059.86 1319 l 257
 453.857 1319 l 257
947.221 1320 m 257
 574.516 296 l 257
 768.516 296 l 257
 1141.22 1320 l 257
 947.221 1320 l 257
303.17 894 m 257
 230.738 695 l 257
 854.738 695 l 257
 927.17 894 l 257
 303.17 894 l 257
294.434 870 m 257
 84.4238 293 l 257
 285.424 293 l 257
 495.434 870 l 257
 294.434 870 l 257
156.309 496 m 257
 83.5156 296 l 257
 773.516 296 l 257
 846.309 496 l 257
 156.309 496 l 257
-58.2578 162 m 257
 -117.221 0 l 257
 750.779 0 l 257
 809.742 162 l 257
 -58.2578 162 l 257
EndSplineSet
EndChar

StartChar: ordmasculine
Encoding: 266 186 266
GlifName: ordmasculine
Width: 1024
VWidth: 0
GlyphClass: 2
Flags: W
LayerCount: 2
Fore
SplineSet
368.921 1023 m 257
 -3.4209 0 l 257
 196.579 0 l 257
 568.921 1023 l 257
 368.921 1023 l 257
983.921 1023 m 257
 611.579 0 l 257
 813.579 0 l 257
 1185.92 1023 l 257
 983.921 1023 l 257
491.921 1023 m 257
 418.763 822 l 257
 1004.76 822 l 257
 1077.92 1023 l 257
 491.921 1023 l 257
196.373 200 m 257
 123.579 0 l 257
 695.579 0 l 257
 768.373 200 l 257
 196.373 200 l 257
-137.898 -70 m 257
 -161.921 -136 l 257
 862.079 -136 l 257
 886.102 -70 l 257
 -137.898 -70 l 257
EndSplineSet
EndChar

StartChar: oslash
Encoding: 267 248 267
GlifName: oslash
Width: 1024
VWidth: 0
GlyphClass: 2
Flags: W
AnchorPoint: "top" 970 1125 basechar 0
AnchorPoint: "base" 510 -116 basechar 0
LayerCount: 2
Fore
SplineSet
1260.66 1164 m 257
 7.17969 -5 l 257
 133.511 -103 l 257
 1387.99 1066 l 257
 1260.66 1164 l 257
476.342 1023 m 257
 104 0 l 257
 304 0 l 257
 676.342 1023 l 257
 476.342 1023 l 257
1091.34 1023 m 257
 719 0 l 257
 921 0 l 257
 1293.34 1023 l 257
 1091.34 1023 l 257
599.342 1023 m 257
 526.184 822 l 257
 1112.18 822 l 257
 1185.34 1023 l 257
 599.342 1023 l 257
303.794 200 m 257
 231 0 l 257
 803 0 l 257
 875.794 200 l 257
 303.794 200 l 257
EndSplineSet
EndChar

StartChar: p
Encoding: 270 112 270
GlifName: p
Width: 1024
VWidth: 0
GlyphClass: 2
Flags: W
AnchorPoint: "base" 45 -475 basechar 0
AnchorPoint: "top" 594 1308 basechar 0
LayerCount: 2
Fore
SplineSet
519.071 1203 m 257
 -66.5566 -406 l 257
 133.443 -406 l 257
 719.071 1203 l 257
 519.071 1203 l 257
551.557 1023 m 257
 478.034 821 l 257
 1017.03 821 l 257
 1090.56 1023 l 257
 551.557 1023 l 257
256.737 202 m 257
 183.215 0 l 257
 723.215 0 l 257
 796.737 202 l 257
 256.737 202 l 257
840.053 876 m 257
 584.909 175 l 257
 782.909 175 l 257
 1038.05 876 l 257
 840.053 876 l 257
EndSplineSet
EndChar

StartChar: paragraph
Encoding: 271 182 271
GlifName: paragraph
Width: 1024
VWidth: 0
GlyphClass: 2
Flags: W
LayerCount: 2
Fore
SplineSet
39.8184 1130 m 257
 -12.957 985 l 257
 552.043 985 l 257
 604.818 1130 l 257
 39.8184 1130 l 257
191.957 1548 m 257
 -7.49805 1000 l 257
 152.502 1000 l 257
 351.957 1548 l 257
 191.957 1548 l 257
191.957 1548 m 257
 150.828 1435 l 257
 970.828 1435 l 257
 1011.96 1548 l 257
 191.957 1548 l 257
661.957 1548 m 257
 98.5312 0 l 257
 243.531 0 l 257
 806.957 1548 l 257
 661.957 1548 l 257
931.957 1548 m 257
 368.531 0 l 257
 473.531 0 l 257
 1036.96 1548 l 257
 931.957 1548 l 257
EndSplineSet
EndChar

StartChar: parenleft
Encoding: 272 40 272
GlifName: parenleft
Width: 1024
VWidth: 0
GlyphClass: 2
Flags: W
LayerCount: 2
Fore
SplineSet
379.311 1023 m 257
 72.1191 179 l 257
 262.119 179 l 257
 569.311 1023 l 257
 379.311 1023 l 257
919.332 1633 m 257
 381.131 1028 l 257
 569.131 1028 l 257
 951.881 1640 l 257
 919.332 1633 l 257
72.1191 179 m 257
 203.197 -406 l 257
 235.197 -406 l 257
 262.119 179 l 257
 72.1191 179 l 257
EndSplineSet
EndChar

StartChar: parenright
Encoding: 273 41 273
GlifName: parenright
Width: 1024
VWidth: 0
GlyphClass: 2
Flags: W
LayerCount: 2
Fore
SplineSet
748.057 1023 m 257
 440.865 179 l 257
 630.865 179 l 257
 938.057 1023 l 257
 748.057 1023 l 257
826.622 1629 m 257
 748.057 1023 l 257
 938.057 1023 l 257
 864.622 1629 l 257
 826.622 1629 l 257
440.865 179 m 257
 85.9434 -406 l 257
 113.943 -406 l 257
 630.865 179 l 257
 440.865 179 l 257
EndSplineSet
EndChar

StartChar: percent
Encoding: 274 37 274
GlifName: percent
Width: 1024
VWidth: 0
GlyphClass: 2
Flags: W
LayerCount: 2
Fore
SplineSet
42.877 522 m 257
 34.1016 377 l 257
 981.486 716 l 257
 989.898 860 l 257
 42.877 522 l 257
410.723 1148 m 257
 292.068 822 l 257
 370.068 822 l 257
 488.723 1148 l 257
 410.723 1148 l 257
412.178 1152 m 257
 377.602 1057 l 257
 725.602 1057 l 257
 760.178 1152 l 257
 412.178 1152 l 257
309.902 871 m 257
 280.057 789 l 257
 624.057 789 l 257
 653.902 871 l 257
 309.902 871 l 257
668.178 1152 m 257
 536.785 791 l 257
 628.785 791 l 257
 760.178 1152 l 257
 668.178 1152 l 257
479.576 436 m 257
 360.922 110 l 257
 438.922 110 l 257
 557.576 436 l 257
 479.576 436 l 257
481.031 440 m 257
 446.453 345 l 257
 792.453 345 l 257
 827.031 440 l 257
 481.031 440 l 257
378.756 159 m 257
 348.91 77 l 257
 692.91 77 l 257
 722.756 159 l 257
 378.756 159 l 257
735.031 440 m 257
 603.639 79 l 257
 695.639 79 l 257
 827.031 440 l 257
 735.031 440 l 257
EndSplineSet
EndChar

StartChar: period
Encoding: 275 46 275
GlifName: period
Width: 1024
VWidth: 0
GlyphClass: 2
Flags: W
LayerCount: 2
Fore
SplineSet
424.769 246 m 257
 335.231 0 l 257
 599.231 0 l 257
 688.769 246 l 257
 424.769 246 l 257
EndSplineSet
EndChar

StartChar: periodcentered
Encoding: 276 183 276
GlifName: periodcentered
Width: 1024
VWidth: 0
GlyphClass: 2
Flags: W
LayerCount: 2
Fore
SplineSet
424.451 1146 m 257
 334.549 899 l 257
 599.549 899 l 257
 689.451 1146 l 257
 424.451 1146 l 257
EndSplineSet
EndChar

StartChar: perthousand
Encoding: 277 8240 277
GlifName: perthousand
Width: 1024
VWidth: 0
GlyphClass: 2
Flags: W
LayerCount: 2
Fore
SplineSet
651.01 436 m 257
 532.355 110 l 257
 610.355 110 l 257
 729.01 436 l 257
 651.01 436 l 257
652.465 440 m 257
 617.888 345 l 257
 963.888 345 l 257
 998.465 440 l 257
 652.465 440 l 257
550.189 159 m 257
 520.344 77 l 257
 864.344 77 l 257
 894.189 159 l 257
 550.189 159 l 257
906.465 440 m 257
 775.072 79 l 257
 867.072 79 l 257
 998.465 440 l 257
 906.465 440 l 257
36.3105 522 m 257
 25.5352 377 l 257
 972.921 716 l 257
 981.333 860 l 257
 36.3105 522 l 257
404.156 1148 m 257
 285.502 822 l 257
 363.502 822 l 257
 482.156 1148 l 257
 404.156 1148 l 257
405.612 1152 m 257
 371.035 1057 l 257
 717.035 1057 l 257
 751.612 1152 l 257
 405.612 1152 l 257
303.337 871 m 257
 273.491 789 l 257
 617.491 789 l 257
 647.337 871 l 257
 303.337 871 l 257
659.612 1152 m 257
 528.219 791 l 257
 620.219 791 l 257
 751.612 1152 l 257
 659.612 1152 l 257
249.01 436 m 257
 130.355 110 l 257
 208.355 110 l 257
 327.01 436 l 257
 249.01 436 l 257
250.465 440 m 257
 215.888 345 l 257
 563.888 345 l 257
 598.465 440 l 257
 250.465 440 l 257
148.189 159 m 257
 118.344 77 l 257
 462.344 77 l 257
 492.189 159 l 257
 148.189 159 l 257
506.465 440 m 257
 375.072 79 l 257
 467.072 79 l 257
 598.465 440 l 257
 506.465 440 l 257
EndSplineSet
EndChar

StartChar: plus
Encoding: 278 43 278
GlifName: plus
Width: 1024
VWidth: 0
GlyphClass: 2
Flags: W
LayerCount: 2
Fore
SplineSet
567.441 1221 m 257
 183.088 165 l 257
 408.088 165 l 257
 792.441 1221 l 257
 567.441 1221 l 257
98.8535 821 m 257
 23.1465 613 l 257
 925.146 613 l 257
 1000.85 821 l 257
 98.8535 821 l 257
EndSplineSet
EndChar

StartChar: plusminus
Encoding: 279 177 279
GlifName: plusminus
Width: 1024
VWidth: 0
GlyphClass: 2
Flags: W
LayerCount: 2
Fore
SplineSet
-11.9023 108 m 257
 -87.6084 -100 l 257
 738.392 -100 l 257
 814.098 108 l 257
 -11.9023 108 l 257
678.196 1221 m 257
 293.844 165 l 257
 518.844 165 l 257
 903.196 1221 l 257
 678.196 1221 l 257
209.608 821 m 257
 133.902 613 l 257
 1035.9 613 l 257
 1111.61 821 l 257
 209.608 821 l 257
EndSplineSet
EndChar

StartChar: q
Encoding: 280 113 280
GlifName: q
Width: 1024
VWidth: 0
GlyphClass: 2
Flags: W
AnchorPoint: "top" 960 1297 basechar 0
AnchorPoint: "base" 401 -486 basechar 0
LayerCount: 2
Fore
SplineSet
867.064 1201 m 257
 282.164 -406 l 257
 481.164 -406 l 257
 1066.06 1201 l 257
 867.064 1201 l 257
329.277 1023 m 257
 256.484 823 l 257
 905.484 823 l 257
 978.277 1023 l 257
 329.277 1023 l 257
31.8223 203 m 257
 -42.0645 0 l 257
 573.936 0 l 257
 647.822 203 l 257
 31.8223 203 l 257
267.131 855 m 257
 -5.11914 107 l 257
 194.881 107 l 257
 467.131 855 l 257
 267.131 855 l 257
371.393 -268 m 257
 321.164 -406 l 257
 557.164 -406 l 257
 607.393 -268 l 257
 371.393 -268 l 257
EndSplineSet
EndChar

StartChar: question
Encoding: 281 63 281
GlifName: question
Width: 1024
VWidth: 0
GlyphClass: 2
Flags: W
LayerCount: 2
Fore
SplineSet
94.375 247 m 257
 4.47461 0 l 257
 250.475 0 l 257
 340.375 247 l 257
 94.375 247 l 257
381.346 1519 m 257
 313.646 1333 l 257
 949.646 1333 l 257
 1017.35 1519 l 257
 381.346 1519 l 257
825.525 1514 m 257
 626.07 966 l 257
 820.07 966 l 257
 1019.53 1514 l 257
 825.525 1514 l 257
373.904 1015 m 257
 301.475 816 l 257
 765.475 816 l 257
 837.904 1015 l 257
 373.904 1015 l 257
372.448 1011 m 257
 147.151 392 l 257
 395.151 392 l 257
 620.448 1011 l 257
 372.448 1011 l 257
EndSplineSet
EndChar

StartChar: questiondown
Encoding: 282 191 282
GlifName: questiondown
Width: 1024
VWidth: 0
GlyphClass: 2
Flags: W
LayerCount: 2
Fore
SplineSet
929.988 1273 m 257
 1019.53 1519 l 257
 769.525 1519 l 257
 679.624 1272 l 257
 929.988 1273 l 257
643.654 0 m 257
 711.353 186 l 257
 74.3525 186 l 257
 6.6543 0 l 257
 643.654 0 l 257
198.475 5 m 257
 397.93 553 l 257
 203.93 553 l 257
 4.47461 5 l 257
 198.475 5 l 257
650.096 504 m 257
 722.525 703 l 257
 258.525 703 l 257
 186.096 504 l 257
 650.096 504 l 257
651.551 508 m 257
 876.849 1127 l 257
 628.849 1127 l 257
 403.551 508 l 257
 651.551 508 l 257
EndSplineSet
EndChar

StartChar: quotedbl
Encoding: 283 34 283
GlifName: quotedbl
Width: 1024
VWidth: 0
GlyphClass: 2
Flags: W
LayerCount: 2
Fore
SplineSet
194.868 1326 m 257
 338.868 1326 l 257
 429.132 1574 l 257
 285.132 1574 l 257
 194.868 1326 l 257
594.868 1326 m 257
 738.868 1326 l 257
 829.132 1574 l 257
 685.132 1574 l 257
 594.868 1326 l 257
EndSplineSet
EndChar

StartChar: quotedblbase
Encoding: 284 8222 284
GlifName: quotedblbase
Width: 1024
VWidth: 0
GlyphClass: 2
Flags: W
LayerCount: 2
Fore
SplineSet
267.7 237 m 257
 184.352 8 l 257
 432.352 8 l 257
 515.7 237 l 257
 267.7 237 l 257
329.575 135 m 257
 109.3 -146 l 257
 230.462 -206 l 257
 427.439 0 l 257
 329.575 135 l 257
666.7 237 m 257
 583.352 8 l 257
 831.352 8 l 257
 914.7 237 l 257
 666.7 237 l 257
728.575 135 m 257
 508.3 -146 l 257
 629.462 -206 l 257
 826.439 0 l 257
 728.575 135 l 257
EndSplineSet
EndChar

StartChar: quotedblleft
Encoding: 285 8220 285
GlifName: quotedblleft
Width: 1024
VWidth: 0
GlyphClass: 2
Flags: W
LayerCount: 2
Fore
SplineSet
388.3 1842 m 257
 471.648 2071 l 257
 223.648 2071 l 257
 140.3 1842 l 257
 388.3 1842 l 257
327.425 1944 m 257
 547.7 2225 l 257
 425.538 2285 l 257
 227.104 2075 l 257
 327.425 1944 l 257
724.3 1842 m 257
 807.648 2071 l 257
 559.648 2071 l 257
 476.3 1842 l 257
 724.3 1842 l 257
663.425 1944 m 257
 883.7 2225 l 257
 761.538 2285 l 257
 563.104 2075 l 257
 663.425 1944 l 257
EndSplineSet
EndChar

StartChar: quotedblright
Encoding: 286 8221 286
GlifName: quotedblright
Width: 1024
VWidth: 0
GlyphClass: 2
Flags: W
LayerCount: 2
Fore
SplineSet
625.7 2285 m 257
 542.352 2056 l 257
 790.352 2056 l 257
 873.7 2285 l 257
 625.7 2285 l 257
688.575 2183 m 257
 468.3 1902 l 257
 588.462 1842 l 257
 786.896 2052 l 257
 688.575 2183 l 257
307.7 2285 m 257
 224.352 2056 l 257
 472.352 2056 l 257
 555.7 2285 l 257
 307.7 2285 l 257
370.575 2183 m 257
 150.3 1902 l 257
 270.462 1842 l 257
 468.896 2052 l 257
 370.575 2183 l 257
EndSplineSet
EndChar

StartChar: quoteleft
Encoding: 287 8216 287
GlifName: quoteleft
Width: 1024
VWidth: 0
GlyphClass: 2
Flags: W
LayerCount: 2
Fore
SplineSet
556.3 1842 m 257
 639.648 2071 l 257
 391.648 2071 l 257
 308.3 1842 l 257
 556.3 1842 l 257
495.425 1944 m 257
 715.7 2225 l 257
 593.538 2285 l 257
 395.104 2075 l 257
 495.425 1944 l 257
EndSplineSet
EndChar

StartChar: quoteright
Encoding: 288 8217 288
GlifName: quoteright
Width: 1024
VWidth: 0
GlyphClass: 2
Flags: W
LayerCount: 2
Fore
SplineSet
467.7 2285 m 257
 384.352 2056 l 257
 632.352 2056 l 257
 715.7 2285 l 257
 467.7 2285 l 257
528.575 2183 m 257
 308.3 1902 l 257
 430.462 1842 l 257
 628.896 2052 l 257
 528.575 2183 l 257
EndSplineSet
EndChar

StartChar: quotesinglbase
Encoding: 289 8218 289
GlifName: quotesinglbase
Width: 1024
VWidth: 0
GlyphClass: 2
Flags: W
LayerCount: 2
Fore
SplineSet
467.7 237 m 257
 384.352 8 l 257
 632.352 8 l 257
 715.7 237 l 257
 467.7 237 l 257
528.575 135 m 257
 308.3 -146 l 257
 430.462 -206 l 257
 627.439 0 l 257
 528.575 135 l 257
EndSplineSet
EndChar

StartChar: quotesingle
Encoding: 290 39 290
GlifName: quotesingle
Width: 1024
VWidth: 0
GlyphClass: 2
Flags: W
LayerCount: 2
Fore
SplineSet
489.221 1496 m 257
 404.779 1264 l 257
 534.779 1264 l 257
 619.221 1496 l 257
 489.221 1496 l 257
EndSplineSet
EndChar

StartChar: r
Encoding: 291 114 291
GlifName: r
Width: 1024
VWidth: 0
GlyphClass: 2
Flags: W
AnchorPoint: "top" 504 1174 basechar 0
AnchorPoint: "base" 157 -73 basechar 0
LayerCount: 2
Fore
SplineSet
224.171 1023 m 257
 150.648 821 l 257
 883.648 821 l 257
 957.171 1023 l 257
 224.171 1023 l 257
414.057 954 m 257
 66.8291 0 l 257
 266.829 0 l 257
 614.057 954 l 257
 414.057 954 l 257
740.064 976 m 257
 621.41 650 l 257
 821.41 650 l 257
 940.064 976 l 257
 740.064 976 l 257
EndSplineSet
EndChar

StartChar: registered
Encoding: 294 174 294
GlifName: registered
Width: 1024
VWidth: 0
GlyphClass: 2
Flags: W
LayerCount: 2
Fore
SplineSet
492.906 1032 m 257
 299.638 501 l 257
 367.638 501 l 257
 560.906 1032 l 257
 492.906 1032 l 257
517.906 1032 m 257
 492.792 963 l 257
 721.792 963 l 257
 746.906 1032 l 257
 517.906 1032 l 257
686.906 1032 m 257
 603.193 802 l 257
 672.193 802 l 257
 755.906 1032 l 257
 686.906 1032 l 257
456.763 875 m 257
 429.829 801 l 257
 667.829 801 l 257
 694.763 875 l 257
 456.763 875 l 257
479.741 809 m 257
 506.274 500 l 257
 589.274 500 l 257
 549.741 809 l 257
 479.741 809 l 257
320.711 1537 m 257
 -238.711 0 l 257
 -37.7109 0 l 257
 521.711 1537 l 257
 320.711 1537 l 257
1059.71 1537 m 257
 500.289 0 l 257
 703.289 0 l 257
 1262.71 1537 l 257
 1059.71 1537 l 257
461.711 1537 m 257
 388.917 1337 l 257
 1031.92 1337 l 257
 1104.71 1537 l 257
 461.711 1537 l 257
-47.4609 204 m 257
 -121.711 0 l 257
 551.289 0 l 257
 625.539 204 l 257
 -47.4609 204 l 257
EndSplineSet
EndChar

StartChar: ring
Encoding: 295 730 295
GlifName: ring
Width: 1024
VWidth: 0
GlyphClass: 2
Flags: W
LayerCount: 2
Fore
SplineSet
460.295 1756 m 257
 608.295 1756 l 257
 560.979 1626 l 257
 412.979 1626 l 257
 460.295 1756 l 257
388.416 1847 m 257
 275.584 1537 l 257
 635.584 1537 l 257
 748.416 1847 l 257
 388.416 1847 l 257
EndSplineSet
EndChar

StartChar: s
Encoding: 296 115 296
GlifName: s
Width: 1024
VWidth: 0
GlyphClass: 2
Flags: W
AnchorPoint: "top" 711 1124 basechar 0
AnchorPoint: "base" 304 -73 basechar 0
LayerCount: 2
Fore
SplineSet
393.171 1023 m 257
 321.469 826 l 257
 930.469 826 l 257
 1002.17 1023 l 257
 393.171 1023 l 257
393.171 1023 m 257
 288.711 736 l 257
 488.711 736 l 257
 593.171 1023 l 257
 393.171 1023 l 257
94.9873 201 m 257
 21.8291 0 l 257
 626.829 0 l 257
 699.987 201 l 257
 94.9873 201 l 257
532.473 293 m 257
 430.196 12 l 257
 630.196 12 l 257
 732.473 293 l 257
 532.473 293 l 257
289.711 736 m 257
 532.473 293 l 257
 732.473 293 l 257
 489.711 736 l 257
 289.711 736 l 257
EndSplineSet
EndChar

StartChar: section
Encoding: 301 167 301
GlifName: section
Width: 1024
VWidth: 0
GlyphClass: 2
Flags: W
LayerCount: 2
Fore
SplineSet
396.503 1238 m 257
 322.617 1035 l 257
 920.617 1035 l 257
 994.503 1238 l 257
 396.503 1238 l 257
397.596 1241 m 257
 166.11 605 l 257
 368.11 605 l 257
 599.596 1241 l 257
 397.596 1241 l 257
-39.2939 -61 m 257
 -111.724 -260 l 257
 596.276 -260 l 257
 668.706 -61 l 257
 -39.2939 -61 l 257
431.64 -259 m 257
 632.64 -259 l 257
 761.485 95 l 257
 560.485 95 l 257
 431.64 -259 l 257
166.11 605 m 257
 560.485 95 l 257
 761.485 95 l 257
 368.11 605 l 257
 166.11 605 l 257
537.724 1626 m 257
 463.838 1423 l 257
 1061.84 1423 l 257
 1135.72 1626 l 257
 537.724 1626 l 257
538.815 1629 m 257
 396.14 1237 l 257
 598.14 1237 l 257
 740.815 1629 l 257
 538.815 1629 l 257
78.0039 286 m 257
 5.57324 87 l 257
 713.573 87 l 257
 786.004 286 l 257
 78.0039 286 l 257
548.938 88 m 257
 749.938 88 l 257
 878.783 442 l 257
 677.783 442 l 257
 548.938 88 l 257
396.14 1237 m 257
 677.783 442 l 257
 878.783 442 l 257
 598.14 1237 l 257
 396.14 1237 l 257
EndSplineSet
EndChar

StartChar: semicolon
Encoding: 302 59 302
GlifName: semicolon
Width: 1024
VWidth: 0
GlyphClass: 2
Flags: W
LayerCount: 2
Fore
SplineSet
390.444 430 m 257
 307.096 201 l 257
 555.096 201 l 257
 638.444 430 l 257
 390.444 430 l 257
451.319 328 m 257
 231.044 47 l 257
 353.206 -13 l 257
 551.64 197 l 257
 451.319 328 l 257
526.956 871 m 257
 437.055 624 l 257
 703.055 624 l 257
 792.956 871 l 257
 526.956 871 l 257
EndSplineSet
EndChar

StartChar: seven
Encoding: 303 55 303
GlifName: seven
Width: 1024
VWidth: 0
GlyphClass: 2
Flags: W
LayerCount: 2
Fore
SplineSet
18.7393 1355 m 257
 728.739 1355 l 257
 235.56 0 l 257
 438.56 0 l 257
 1005.26 1557 l 257
 92.2607 1557 l 257
 18.7393 1355 l 257
EndSplineSet
EndChar

StartChar: six
Encoding: 304 54 304
GlifName: six
Width: 1024
VWidth: 0
GlyphClass: 2
Flags: W
LayerCount: 2
Fore
SplineSet
321.713 1548 m 257
 -168.555 201 l 257
 -241.713 0 l 257
 697.287 0 l 257
 1046.33 959 l 257
 310.335 959 l 257
 451.919 1348 l 257
 1192.92 1348 l 257
 1265.71 1548 l 257
 321.713 1548 l 257
765.54 759 m 257
 563.173 203 l 257
 41.1729 203 l 257
 243.54 759 l 257
 765.54 759 l 257
EndSplineSet
EndChar

StartChar: slash
Encoding: 305 47 305
GlifName: slash
Width: 1024
VWidth: 0
GlyphClass: 2
Flags: W
LayerCount: 2
Fore
SplineSet
985.076 1483 m 257
 -122.508 6 l 257
 38.9238 -67 l 257
 1146.51 1410 l 257
 985.076 1483 l 257
EndSplineSet
EndChar

StartChar: sterling
Encoding: 307 163 307
GlifName: sterling
Width: 1024
VWidth: 0
GlyphClass: 2
Flags: W
LayerCount: 2
Fore
SplineSet
756.803 1543 m 257
 684.373 1344 l 257
 975.373 1344 l 257
 1047.8 1543 l 257
 756.803 1543 l 257
148.453 770 m 257
 76.0234 571 l 257
 802.023 571 l 257
 874.453 770 l 257
 148.453 770 l 257
712.439 1542 m 257
 151.197 0 l 257
 349.197 0 l 257
 910.439 1542 l 257
 712.439 1542 l 257
49.7188 202 m 257
 -23.8027 0 l 257
 702.197 0 l 257
 775.719 202 l 257
 49.7188 202 l 257
EndSplineSet
EndChar

StartChar: t
Encoding: 308 116 308
GlifName: t
Width: 1024
VWidth: 0
GlyphClass: 2
Flags: W
AnchorPoint: "top" 805 1649 basechar 0
AnchorPoint: "base" 181 -82 basechar 0
LayerCount: 2
Fore
SplineSet
670.255 1548 m 257
 106.829 0 l 257
 306.829 0 l 257
 870.255 1548 l 257
 670.255 1548 l 257
187.259 199 m 257
 114.829 0 l 257
 505.829 0 l 257
 578.259 199 l 257
 187.259 199 l 257
243.171 1023 m 257
 170.74 824 l 257
 844.74 824 l 257
 917.171 1023 l 257
 243.171 1023 l 257
EndSplineSet
EndChar

StartChar: tcaron
Encoding: 309 357 309
GlifName: tcaron
Width: 1024
VWidth: 0
GlyphClass: 2
Flags: W
LayerCount: 2
Fore
SplineSet
898.511 1529 m 257
 342 0 l 257
 543 0 l 257
 1099.51 1529 l 257
 898.511 1529 l 257
567.43 199 m 257
 495 0 l 257
 886 0 l 257
 958.43 199 l 257
 567.43 199 l 257
442.342 1023 m 257
 369.911 824 l 257
 1148.91 824 l 257
 1221.34 1023 l 257
 442.342 1023 l 257
1216.5 1496 m 257
 1141.89 1291 l 257
 1271.89 1291 l 257
 1346.5 1496 l 257
 1216.5 1496 l 257
EndSplineSet
EndChar

StartChar: thorn
Encoding: 310 254 310
GlifName: thorn
Width: 1024
VWidth: 0
GlyphClass: 2
Flags: W
LayerCount: 2
Fore
SplineSet
173 1034 m 257
 173 -406 l 257
 373 -406 l 257
 373 1034 l 257
 173 1034 l 257
360 667 m 257
 360 468 l 257
 916 468 l 257
 916 667 l 257
 360 667 l 257
368 6 m 257
 368 -195 l 257
 914 -195 l 257
 914 6 l 257
 368 6 l 257
716 597 m 257
 716 -104 l 257
 914 -104 l 257
 914 597 l 257
 716 597 l 257
EndSplineSet
EndChar

StartChar: three
Encoding: 311 51 311
GlifName: three
Width: 1024
VWidth: 0
GlyphClass: 2
Flags: W
LayerCount: 2
Fore
SplineSet
88.7148 736 m 257
 746.715 736 l 257
 548.715 192 l 257
 -151.285 192 l 257
 -224.079 -8 l 257
 679.921 -8 l 257
 1248.08 1553 l 257
 374.079 1553 l 257
 301.285 1353 l 257
 969.285 1353 l 257
 817.509 936 l 257
 161.509 936 l 257
 88.7148 736 l 257
EndSplineSet
EndChar

StartChar: threequarters
Encoding: 312 190 312
GlifName: threequarters
Width: 1024
VWidth: 0
GlyphClass: 2
Flags: W
LayerCount: 2
Fore
SplineSet
985.076 1483 m 257
 -122.508 6 l 257
 38.9238 -67 l 257
 1146.51 1410 l 257
 985.076 1483 l 257
282.279 1272 m 257
 560.279 1272 l 257
 491.854 1084 l 257
 195.854 1084 l 257
 170.738 1015 l 257
 552.738 1015 l 257
 748.555 1553 l 257
 379.555 1553 l 257
 354.441 1484 l 257
 636.441 1484 l 257
 584.029 1340 l 257
 307.029 1340 l 257
 282.279 1272 l 257
509.059 340 m 257
 774.059 340 l 257
 652.857 7 l 257
 733.857 7 l 257
 981.357 687 l 257
 899.357 687 l 257
 805.088 428 l 257
 623.088 428 l 257
 718.084 689 l 257
 636.084 689 l 257
 509.059 340 l 257
EndSplineSet
EndChar

StartChar: tilde
Encoding: 313 732 313
GlifName: tilde
Width: 1024
VWidth: 0
GlyphClass: 2
Flags: W
LayerCount: 2
Fore
SplineSet
409.646 1607 m 257
 380.893 1528 l 257
 643.059 1479 l 257
 671.812 1558 l 257
 409.646 1607 l 257
202.541 1560 m 257
 186.15 1482 l 257
 380.893 1528 l 257
 409.646 1607 l 257
 202.541 1560 l 257
671.812 1558 m 257
 643.059 1479 l 257
 829.188 1592 l 257
 837.85 1668 l 257
 671.812 1558 l 257
EndSplineSet
EndChar

StartChar: tildecomb
Encoding: 314 771 314
GlifName: tildecomb
Width: 0
VWidth: 0
GlyphClass: 4
Flags: W
AnchorPoint: "top" -11 759 mark 0
LayerCount: 2
Fore
SplineSet
-164 969 m 257
 -200 870 l 257
 128 809 l 257
 164 908 l 257
 -164 969 l 257
-423 911 m 257
 -444 813 l 257
 -200 870 l 257
 -164 969 l 257
 -423 911 l 257
164 908 m 257
 128 809 l 257
 360 950 l 257
 371 1046 l 257
 164 908 l 257
EndSplineSet
EndChar

StartChar: two
Encoding: 316 50 316
GlifName: two
Width: 1024
VWidth: 0
GlyphClass: 2
Flags: W
LayerCount: 2
Fore
SplineSet
311.463 1344 m 257
 920.463 1344 l 257
 761.772 908 l 257
 159.772 908 l 257
 -170.713 0 l 257
 617.287 0 l 257
 690.081 200 l 257
 105.081 200 l 257
 289.614 707 l 257
 888.614 707 l 257
 1194.71 1548 l 257
 385.713 1548 l 257
 311.463 1344 l 257
EndSplineSet
EndChar

StartChar: u
Encoding: 317 117 317
GlifName: u
Width: 1024
VWidth: 0
GlyphClass: 2
Flags: W
AnchorPoint: "top" 703 1122 basechar 0
AnchorPoint: "base" 360 -60 basechar 0
LayerCount: 2
Fore
SplineSet
382.171 1023 m 257
 9.8291 0 l 257
 210.829 0 l 257
 583.171 1023 l 257
 382.171 1023 l 257
814.171 1023 m 257
 441.829 0 l 257
 641.829 0 l 257
 1014.17 1023 l 257
 814.171 1023 l 257
129.623 200 m 257
 56.8291 0 l 257
 758.829 0 l 257
 831.623 200 l 257
 129.623 200 l 257
EndSplineSet
EndChar

StartChar: underscore
Encoding: 326 95 326
GlifName: underscore
Width: 1024
VWidth: 0
GlyphClass: 2
Flags: W
LayerCount: 2
Fore
SplineSet
12.0107 -5 m 257
 -12.0107 -71 l 257
 1011.99 -71 l 257
 1036.01 -5 l 257
 12.0107 -5 l 257
EndSplineSet
EndChar

StartChar: uni00B2
Encoding: 328 178 328
GlifName: uni00B_2
Width: 1024
VWidth: 0
GlyphClass: 2
Flags: W
LayerCount: 2
Fore
SplineSet
371.995 1455 m 257
 719.995 1455 l 257
 648.656 1259 l 257
 304.656 1259 l 257
 156.156 851 l 257
 605.156 851 l 257
 637.55 940 l 257
 304.55 940 l 257
 387.535 1168 l 257
 729.535 1168 l 257
 867.844 1548 l 257
 405.844 1548 l 257
 371.995 1455 l 257
EndSplineSet
EndChar

StartChar: uni00B3
Encoding: 329 179 329
GlifName: uni00B_3
Width: 1024
VWidth: 0
GlyphClass: 2
Flags: W
LayerCount: 2
Fore
SplineSet
224.857 1215 m 257
 676.857 1215 l 257
 594.965 990 l 257
 113.965 990 l 257
 84.1191 908 l 257
 705.119 908 l 257
 939.881 1553 l 257
 339.881 1553 l 257
 310.035 1471 l 257
 769.035 1471 l 257
 706.068 1298 l 257
 255.068 1298 l 257
 224.857 1215 l 257
EndSplineSet
EndChar

StartChar: uni00B9
Encoding: 330 185 330
GlifName: uni00B_9
Width: 1024
VWidth: 0
GlyphClass: 2
Flags: W
LayerCount: 2
Fore
SplineSet
321.394 887 m 257
 420.894 887 l 257
 702.606 1661 l 257
 603.106 1661 l 257
 321.394 887 l 257
605.106 1661 m 257
 452.238 1513 l 257
 509.04 1463 l 257
 662.09 1611.5 l 257
 605.106 1661 l 257
EndSplineSet
EndChar

StartChar: uni018F
Encoding: 343 399 343
GlifName: uni018F_
Width: 1024
VWidth: 0
GlyphClass: 2
Flags: W
AnchorPoint: "top" 1161.27 1630 basechar 0
AnchorPoint: "base" 647.415 -117 basechar 0
LayerCount: 2
Fore
SplineSet
804 0 m 257
 880.798 211 l 257
 341.798 211 l 257
 265 0 l 257
 804 0 l 257
854 0 m 257
 1415.61 1543 l 257
 1213.61 1543 l 257
 652 0 l 257
 854 0 l 257
1240.45 1342 m 257
 1313.61 1543 l 257
 731.606 1543 l 257
 658.448 1342 l 257
 1240.45 1342 l 257
1034.78 689 m 257
 1099.93 868 l 257
 445.926 868 l 257
 380.775 689 l 257
 1034.78 689 l 257
472.919 30 m 257
 618.29 869 l 257
 423.29 869 l 257
 277.919 30 l 257
 472.919 30 l 257
EndSplineSet
EndChar

StartChar: uni0192
Encoding: 344 402 344
GlifName: uni0192
Width: 1024
VWidth: 0
GlyphClass: 2
Flags: W
LayerCount: 2
Fore
SplineSet
413 1023 m 257
 413 -406 l 257
 613 -406 l 257
 613 1023 l 257
 413 1023 l 257
475 1023 m 257
 475 831 l 257
 957 831 l 257
 957 1023 l 257
 475 1023 l 257
229 559 m 257
 229 356 l 257
 860 356 l 257
 860 559 l 257
 229 559 l 257
167 -201 m 257
 167 -406 l 257
 615 -406 l 257
 615 -201 l 257
 167 -201 l 257
EndSplineSet
EndChar

StartChar: uni0237
Encoding: 391 567 391
GlifName: uni0237
Width: 1024
VWidth: 0
GlyphClass: 2
Flags: W
AnchorPoint: "top" 1150.21 1182 basechar 0
LayerCount: 2
Fore
SplineSet
969.132 940 m 257
 477.408 -411 l 257
 676.408 -411 l 257
 1168.13 940 l 257
 969.132 940 l 257
120.931 -209 m 257
 49.2285 -406 l 257
 579.229 -406 l 257
 650.931 -209 l 257
 120.931 -209 l 257
195.816 -6 m 257
 70.2461 -351 l 257
 270.246 -351 l 257
 395.816 -6 l 257
 195.816 -6 l 257
EndSplineSet
EndChar

StartChar: uni0259
Encoding: 392 601 392
GlifName: uni0259
Width: 1024
VWidth: 0
GlyphClass: 2
Flags: W
LayerCount: 2
Fore
SplineSet
804 0 m 257
 804 211 l 257
 240 278 l 257
 240 67 l 257
 804 0 l 257
854 0 m 257
 854 1023 l 257
 652 1023 l 257
 652 0 l 257
 854 0 l 257
752 822 m 257
 752 1023 l 257
 170 1023 l 257
 170 822 l 257
 752 822 l 257
784 398 m 257
 784 577 l 257
 194 577 l 257
 194 398 l 257
 784 398 l 257
437 97 m 257
 366 578 l 257
 171 578 l 257
 242 97 l 257
 437 97 l 257
EndSplineSet
EndChar

StartChar: uni02C9
Encoding: 396 713 396
GlifName: uni02C_9
Width: 1024
VWidth: 0
GlyphClass: 2
Flags: W
LayerCount: 2
Fore
SplineSet
246.923 1630 m 257
 217.077 1548 l 257
 777.077 1548 l 257
 806.923 1630 l 257
 246.923 1630 l 257
EndSplineSet
EndChar

StartChar: uni02CA
Encoding: 397 714 397
GlifName: uni02C_A_
Width: 1024
VWidth: 0
GlyphClass: 2
Flags: W
LayerCount: 2
Fore
SplineSet
586.914 1346 m 257
 364.465 1092 l 257
 435.723 1046 l 257
 659.535 1301 l 257
 586.914 1346 l 257
EndSplineSet
EndChar

StartChar: uni02CB
Encoding: 398 715 398
GlifName: uni02C_B_
Width: 1024
VWidth: 0
GlyphClass: 2
Flags: W
LayerCount: 2
Fore
SplineSet
441.078 2107 m 257
 475.18 1871 l 257
 582.922 1917 l 257
 550.184 2154 l 257
 441.078 2107 l 257
EndSplineSet
EndChar

StartChar: uni0302
Encoding: 399 770 399
GlifName: uni0302
Width: 0
VWidth: 0
GlyphClass: 4
Flags: W
AnchorPoint: "top" 16 767 mark 0
LayerCount: 2
Fore
SplineSet
144 1060 m 257
 84 1060 l 257
 -112 813 l 257
 -61 788 l 257
 144 1060 l 257
68 1012 m 257
 90 788 l 257
 158 810 l 257
 144 1060 l 257
 68 1012 l 257
EndSplineSet
EndChar

StartChar: uni0304
Encoding: 400 772 400
GlifName: uni0304
Width: 0
VWidth: 0
GlyphClass: 4
Flags: W
AnchorPoint: "top" -5 776 mark 0
LayerCount: 2
Fore
SplineSet
-274 891 m 257
 -304 809 l 257
 256 809 l 257
 286 891 l 257
 -274 891 l 257
EndSplineSet
EndChar

StartChar: uni0305
Encoding: 401 773 401
GlifName: uni0305
Width: 0
VWidth: 0
GlyphClass: 4
Flags: W
AnchorPoint: "top" 538 1464 mark 0
LayerCount: 2
Fore
SplineSet
206.08 1602 m 257
 184.242 1542 l 257
 938.242 1542 l 257
 960.08 1602 l 257
 206.08 1602 l 257
EndSplineSet
EndChar

StartChar: uni0306
Encoding: 402 774 402
GlifName: uni0306
Width: 0
VWidth: 0
GlyphClass: 4
Flags: W
AnchorPoint: "top" -12 826 mark 0
LayerCount: 2
Fore
SplineSet
183 899 m 257
 158 831 l 257
 348 899 l 257
 383 996 l 257
 183 899 l 257
-141 899 m 257
 -166 831 l 257
 158 831 l 257
 183 899 l 257
 -141 899 l 257
-282 981 m 257
 -312 899 l 257
 -166 831 l 257
 -141 899 l 257
 -282 981 l 257
EndSplineSet
EndChar

StartChar: uni0307
Encoding: 403 775 403
GlifName: uni0307
Width: 0
VWidth: 0
GlyphClass: 4
Flags: W
AnchorPoint: "top" -6 790 mark 0
LayerCount: 2
Fore
SplineSet
-63 995 m 257
 -136 793 l 257
 88 793 l 257
 161 995 l 257
 -63 995 l 257
EndSplineSet
EndChar

StartChar: uni0308
Encoding: 404 776 404
GlifName: uni0308
Width: 0
VWidth: 0
GlyphClass: 4
Flags: W
AnchorPoint: "top" 560 1545.8 mark 0
LayerCount: 2
Fore
SplineSet
455.58 1738 m 257
 418.818 1637 l 257
 530.818 1637 l 257
 567.58 1738 l 257
 455.58 1738 l 257
697.58 1738 m 257
 660.818 1637 l 257
 772.818 1637 l 257
 809.58 1738 l 257
 697.58 1738 l 257
EndSplineSet
EndChar

StartChar: uni030A
Encoding: 405 778 405
GlifName: uni030A_
Width: 0
VWidth: 0
GlyphClass: 4
Flags: W
AnchorPoint: "top" 4 780 mark 0
LayerCount: 2
Fore
SplineSet
-3 1032 m 257
 145 1032 l 257
 97 902 l 257
 -51 902 l 257
 -3 1032 l 257
-75 1123 m 257
 -188 813 l 257
 172 813 l 257
 285 1123 l 257
 -75 1123 l 257
EndSplineSet
EndChar

StartChar: uni030B
Encoding: 406 779 406
GlifName: uni030B_
Width: 0
VWidth: 0
GlyphClass: 4
Flags: W
AnchorPoint: "top" 3 783 mark 0
LayerCount: 2
Fore
SplineSet
-285.508 815 m 257
 -141.508 815 l 257
 39.0208 1063 l 257
 -104.979 1063 l 257
 -285.508 815 l 257
114.492 815 m 257
 258.492 815 l 257
 439.021 1063 l 257
 295.021 1063 l 257
 114.492 815 l 257
EndSplineSet
EndChar

StartChar: uni030C
Encoding: 407 780 407
GlifName: uni030C_
Width: 0
VWidth: 0
GlyphClass: 4
Flags: W
AnchorPoint: "top" -18 757 mark 0
LayerCount: 2
Fore
SplineSet
17 807 m 257
 10 1079 l 257
 -59 1054 l 257
 -43 807 l 257
 17 807 l 257
-24 855 m 257
 17 807 l 257
 213 1057 l 257
 161 1079 l 257
 -24 855 l 257
EndSplineSet
EndChar

StartChar: uni030F
Encoding: 408 783 408
GlifName: uni030F_
Width: 0
VWidth: 0
GlyphClass: 4
Flags: W
AnchorPoint: "top" -2 773 mark 0
LayerCount: 2
Fore
SplineSet
31 1032 m 257
 65 796 l 257
 172 842 l 257
 140 1079 l 257
 31 1032 l 257
-187 1032 m 257
 -153 796 l 257
 -46 842 l 257
 -78 1079 l 257
 -187 1032 l 257
EndSplineSet
EndChar

StartChar: uni0311
Encoding: 409 785 409
GlifName: uni0311
Width: 0
VWidth: 0
GlyphClass: 4
Flags: W
AnchorPoint: "top" 0 786 mark 0
LayerCount: 2
Fore
SplineSet
-202 831 m 257
 -178 899 l 257
 -367 831 l 257
 -403 734 l 257
 -202 831 l 257
122 831 m 257
 146 899 l 257
 -178 899 l 257
 -202 831 l 257
 122 831 l 257
263 749 m 257
 293 831 l 257
 146 899 l 257
 122 831 l 257
 263 749 l 257
EndSplineSet
EndChar

StartChar: uni0326
Encoding: 410 806 410
GlifName: uni0326
Width: 0
VWidth: 0
GlyphClass: 4
Flags: W
AnchorPoint: "base" 22 -5 mark 0
LayerCount: 2
Fore
SplineSet
-114.5 0 m 257
 -198.213 -230 l 257
 49.7871 -230 l 257
 133.5 0 l 257
 -114.5 0 l 257
-52.9902 -103 m 257
 -273.266 -384 l 257
 -152.104 -444 l 257
 46.3301 -234 l 257
 -52.9902 -103 l 257
EndSplineSet
EndChar

StartChar: uni0327
Encoding: 411 807 411
GlifName: uni0327
Width: 0
VWidth: 0
GlyphClass: 4
Flags: W
AnchorPoint: "base" -446 90 mark 0
LayerCount: 2
Fore
SplineSet
-157.985 180 m 257
 -275.912 -144 l 257
 -119.912 -144 l 257
 -1.98535 180 l 257
 -157.985 180 l 257
-327.323 -288 m 257
 -370.271 -406 l 257
 75.7285 -406 l 257
 118.677 -288 l 257
 -327.323 -288 l 257
71.5 0 m 257
 -63.8965 -372 l 257
 88.1035 -372 l 257
 223.5 0 l 257
 71.5 0 l 257
-222.5 0 m 257
 -279.279 -156 l 257
 166.721 -156 l 257
 223.5 0 l 257
 -222.5 0 l 257
EndSplineSet
EndChar

StartChar: uni0328
Encoding: 412 808 412
GlifName: uni0328
Width: 0
VWidth: 0
GlyphClass: 4
Flags: W
AnchorPoint: "base" -167 0 mark 0
LayerCount: 2
Fore
SplineSet
-375.823 -288 m 257
 -418.771 -406 l 257
 123.229 -406 l 257
 166.177 -288 l 257
 -375.823 -288 l 257
-271 0 m 257
 -418.771 -406 l 257
 -300.771 -406 l 257
 -153 0 l 257
 -271 0 l 257
-271 0 m 257
 -315.04 -121 l 257
 226.96 -121 l 257
 271 0 l 257
 -271 0 l 257
EndSplineSet
EndChar

StartChar: uni0331
Encoding: 413 817 413
GlifName: uni0331
Width: 0
VWidth: 0
GlyphClass: 4
Flags: W
AnchorPoint: "base" 4 -163 mark 0
LayerCount: 2
Fore
SplineSet
-341.875 -170 m 257
 -370.266 -248 l 257
 189.734 -248 l 257
 218.125 -170 l 257
 -341.875 -170 l 257
EndSplineSet
EndChar

StartChar: uni0900
Encoding: 414 2304 414
GlifName: uni0900
Width: 0
VWidth: 0
GlyphClass: 4
Flags: W
AnchorPoint: "abvm_deva" 641.823 1648 mark 0
LayerCount: 2
Fore
SplineSet
371.073 2124 m 257
 194.547 1639 l 257
 393.547 1639 l 257
 570.073 2124 l 257
 371.073 2124 l 257
417.073 2124 m 257
 344.643 1925 l 257
 978.643 1925 l 257
 1051.07 2124 l 257
 417.073 2124 l 257
588.805 1865 m 257
 516.011 1665 l 257
 716.011 1665 l 257
 788.805 1865 l 257
 588.805 1865 l 257
975.073 2124 m 257
 797.455 1636 l 257
 997.455 1636 l 257
 1175.07 2124 l 257
 975.073 2124 l 257
EndSplineSet
EndChar

StartChar: uni0901
Encoding: 415 2305 415
GlifName: uni0901
Width: 0
VWidth: 0
GlyphClass: 4
Flags: W
AnchorPoint: "abvm_deva" 588.904 1618 mark 0
LayerCount: 2
Fore
SplineSet
371.073 2124 m 257
 194.547 1639 l 257
 393.547 1639 l 257
 570.073 2124 l 257
 371.073 2124 l 257
314.434 1842 m 257
 241.275 1641 l 257
 875.275 1641 l 257
 948.434 1842 l 257
 314.434 1842 l 257
662.518 2095 m 257
 589.724 1895 l 257
 789.724 1895 l 257
 862.518 2095 l 257
 662.518 2095 l 257
977.984 2132 m 257
 799.275 1641 l 257
 999.275 1641 l 257
 1177.98 2132 l 257
 977.984 2132 l 257
EndSplineSet
EndChar

StartChar: uni0902
Encoding: 416 2306 416
GlifName: uni0902
Width: 0
VWidth: 0
GlyphClass: 4
Flags: W
AnchorPoint: "abvm_deva" 283.9 1607 mark 0
LayerCount: 2
Fore
SplineSet
569.341 1839 m 257
 496.547 1639 l 257
 696.547 1639 l 257
 769.341 1839 l 257
 569.341 1839 l 257
EndSplineSet
EndChar

StartChar: uni0903
Encoding: 417 2307 417
GlifName: uni0903
Width: 1024
VWidth: 0
GlyphClass: 2
Flags: W
LayerCount: 2
Fore
SplineSet
648.217 649 m 257
 575.423 449 l 257
 775.423 449 l 257
 848.217 649 l 257
 648.217 649 l 257
891.349 1317 m 257
 818.555 1117 l 257
 1018.55 1117 l 257
 1091.35 1317 l 257
 891.349 1317 l 257
EndSplineSet
EndChar

StartChar: uni0904
Encoding: 418 2308 418
GlifName: uni0904
Width: 1024
VWidth: 0
GlyphClass: 2
Flags: W
AnchorPoint: "abvm_deva" 1353.75 1972 basechar 0
LayerCount: 2
Fore
SplineSet
1050.36 2155 m 257
 934.249 1836 l 257
 1132.25 1836 l 257
 1248.36 2155 l 257
 1050.36 2155 l 257
980.93 1967 m 257
 908.499 1768 l 257
 1591.5 1768 l 257
 1663.93 1967 l 257
 980.93 1967 l 257
1460.93 1956 m 257
 1300.78 1516 l 257
 1501.78 1516 l 257
 1661.93 1956 l 257
 1460.93 1956 l 257
1279.43 1548 m 257
 1206.27 1347 l 257
 1515.27 1347 l 257
 1588.43 1548 l 257
 1279.43 1548 l 257
1293.47 1419 m 257
 777 0 l 257
 976 0 l 257
 1492.47 1419 l 257
 1293.47 1419 l 257
613.426 1548 m 257
 540.632 1348 l 257
 1063.63 1348 l 257
 1136.43 1548 l 257
 613.426 1548 l 257
962.426 1548 m 257
 449.956 140 l 257
 649.956 140 l 257
 1162.43 1548 l 257
 962.426 1548 l 257
459.39 894 m 257
 386.231 693 l 257
 1083.23 693 l 257
 1156.39 894 l 257
 459.39 894 l 257
98.1582 201 m 257
 25 0 l 257
 599 0 l 257
 672.158 201 l 257
 98.1582 201 l 257
EndSplineSet
EndChar

StartChar: uni0905
Encoding: 419 2309 419
GlifName: uni0905
Width: 1024
VWidth: 0
GlyphClass: 2
Flags: W
AnchorPoint: "abvm_deva" 1440.9 1618 basechar 0
LayerCount: 2
Fore
SplineSet
1279.43 1548 m 257
 1206.63 1348 l 257
 1517.63 1348 l 257
 1590.43 1548 l 257
 1279.43 1548 l 257
1293.47 1419 m 257
 777 0 l 257
 976 0 l 257
 1492.47 1419 l 257
 1293.47 1419 l 257
613.426 1548 m 257
 540.632 1348 l 257
 1063.63 1348 l 257
 1136.43 1548 l 257
 613.426 1548 l 257
962.426 1548 m 257
 449.956 140 l 257
 649.956 140 l 257
 1162.43 1548 l 257
 962.426 1548 l 257
459.39 894 m 257
 386.231 693 l 257
 1083.23 693 l 257
 1156.39 894 l 257
 459.39 894 l 257
98.1582 201 m 257
 25 0 l 257
 599 0 l 257
 672.158 201 l 257
 98.1582 201 l 257
EndSplineSet
EndChar

StartChar: uni0906
Encoding: 420 2310 420
GlifName: uni0906
Width: 1024
VWidth: 0
GlyphClass: 2
Flags: W
AnchorPoint: "abvm_deva" 1346.54 1606 basechar 0
LayerCount: 2
Fore
SplineSet
1091.43 1548 m 257
 1018.63 1348 l 257
 1515.63 1348 l 257
 1588.43 1548 l 257
 1091.43 1548 l 257
1060.47 1419 m 257
 544 0 l 257
 743 0 l 257
 1259.47 1419 l 257
 1060.47 1419 l 257
588.426 1548 m 257
 515.632 1348 l 257
 875.632 1348 l 257
 948.426 1548 l 257
 588.426 1548 l 257
774.426 1548 m 257
 261.956 140 l 257
 461.956 140 l 257
 974.426 1548 l 257
 774.426 1548 l 257
434.39 894 m 257
 361.231 693 l 257
 895.231 693 l 257
 968.39 894 l 257
 434.39 894 l 257
73.1582 201 m 257
 0 0 l 257
 411 0 l 257
 484.158 201 l 257
 73.1582 201 l 257
1327.84 1420 m 257
 811 0 l 257
 1010 0 l 257
 1526.84 1420 l 257
 1327.84 1420 l 257
EndSplineSet
EndChar

StartChar: uni0907
Encoding: 421 2311 421
GlifName: uni0907
Width: 1024
VWidth: 0
GlyphClass: 2
Flags: W
AnchorPoint: "abvm_deva" 1212.35 1600 basechar 0
LayerCount: 2
Fore
SplineSet
563.426 1548 m 257
 490.632 1348 l 257
 1515.63 1348 l 257
 1588.43 1548 l 257
 563.426 1548 l 257
1102.87 1530 m 257
 950.007 1110 l 257
 1150.01 1110 l 257
 1302.87 1530 l 257
 1102.87 1530 l 257
603.584 1205 m 257
 530.426 1004 l 257
 1111.43 1004 l 257
 1184.58 1205 l 257
 603.584 1205 l 257
594.849 1181 m 257
 433.61 738 l 257
 603.61 738 l 257
 764.849 1181 l 257
 594.849 1181 l 257
485.658 881 m 257
 412.863 681 l 257
 1007.86 681 l 257
 1080.66 881 l 257
 485.658 881 l 257
959.658 881 m 257
 740.184 278 l 257
 939.184 278 l 257
 1158.66 881 l 257
 959.658 881 l 257
251.463 298 m 257
 178.305 97 l 257
 873.305 97 l 257
 946.463 298 l 257
 251.463 298 l 257
367.463 298 m 257
 170.191 -244 l 257
 370.191 -244 l 257
 567.463 298 l 257
 367.463 298 l 257
EndSplineSet
EndChar

StartChar: uni0908
Encoding: 422 2312 422
GlifName: uni0908
Width: 1024
VWidth: 0
GlyphClass: 2
Flags: W
AnchorPoint: "abvm_deva" 1371.09 1624 basechar 0
LayerCount: 2
Fore
SplineSet
563.426 1548 m 257
 490.632 1348 l 257
 1515.63 1348 l 257
 1588.43 1548 l 257
 563.426 1548 l 257
1109.43 1548 m 257
 947.823 1104 l 257
 1147.82 1104 l 257
 1309.43 1548 l 257
 1109.43 1548 l 257
603.584 1205 m 257
 530.426 1004 l 257
 1111.43 1004 l 257
 1184.58 1205 l 257
 603.584 1205 l 257
594.849 1181 m 257
 433.61 738 l 257
 633.61 738 l 257
 794.849 1181 l 257
 594.849 1181 l 257
485.658 881 m 257
 412.863 681 l 257
 1007.86 681 l 257
 1080.66 881 l 257
 485.658 881 l 257
977.658 881 m 257
 760.731 285 l 257
 941.731 285 l 257
 1158.66 881 l 257
 977.658 881 l 257
251.463 298 m 257
 178.305 97 l 257
 876.305 97 l 257
 949.463 298 l 257
 251.463 298 l 257
367.463 298 m 257
 170.191 -244 l 257
 393.191 -244 l 257
 590.463 298 l 257
 367.463 298 l 257
912.228 1770 m 257
 1032.93 1423 l 257
 1237.42 1537 l 257
 1116.45 1886 l 257
 912.228 1770 l 257
EndSplineSet
EndChar

StartChar: uni0909
Encoding: 423 2313 423
GlifName: uni0909
Width: 1024
VWidth: 0
GlyphClass: 2
Flags: W
AnchorPoint: "abvm_deva" 1142.54 1606 basechar 0
LayerCount: 2
Fore
SplineSet
563.426 1548 m 257
 490.632 1348 l 257
 1516.63 1348 l 257
 1589.43 1548 l 257
 563.426 1548 l 257
1036.87 1530 m 257
 844.334 1001 l 257
 1043.33 1001 l 257
 1235.87 1530 l 257
 1036.87 1530 l 257
614.985 1044 m 257
 542.555 845 l 257
 1184.55 845 l 257
 1256.99 1044 l 257
 614.985 1044 l 257
1039.79 994 m 257
 678 0 l 257
 878 0 l 257
 1239.79 994 l 257
 1039.79 994 l 257
203.158 201 m 257
 130 0 l 257
 867 0 l 257
 940.158 201 l 257
 203.158 201 l 257
262.121 363 m 257
 143.103 36 l 257
 343.103 36 l 257
 462.121 363 l 257
 262.121 363 l 257
EndSplineSet
EndChar

StartChar: uni090A
Encoding: 424 2314 424
GlifName: uni090A_
Width: 1024
VWidth: 0
GlyphClass: 2
Flags: W
AnchorPoint: "abvm_deva" 1102.72 1612 basechar 0
LayerCount: 2
Fore
SplineSet
563.426 1548 m 257
 490.632 1348 l 257
 1515.63 1348 l 257
 1588.43 1548 l 257
 563.426 1548 l 257
864.874 1530 m 257
 672.334 1001 l 257
 871.334 1001 l 257
 1063.87 1530 l 257
 864.874 1530 l 257
530.985 1044 m 257
 458.555 845 l 257
 1281.55 845 l 257
 1353.99 1044 l 257
 530.985 1044 l 257
848.786 994 m 257
 491.004 11 l 257
 691.004 11 l 257
 1048.79 994 l 257
 848.786 994 l 257
120.25 204 m 257
 47.8203 5 l 257
 685.82 5 l 257
 758.25 204 l 257
 120.25 204 l 257
179.213 366 m 257
 60.1953 39 l 257
 260.195 39 l 257
 379.213 366 l 257
 179.213 366 l 257
1119.32 946 m 257
 853.981 217 l 257
 1052.98 217 l 257
 1318.32 946 l 257
 1119.32 946 l 257
EndSplineSet
EndChar

StartChar: uni090B
Encoding: 425 2315 425
GlifName: uni090B_
Width: 1024
VWidth: 0
GlyphClass: 2
Flags: W
AnchorPoint: "abvm_deva" 1182.35 1600 basechar 0
LayerCount: 2
Fore
SplineSet
563.426 1548 m 257
 489.904 1346 l 257
 1516.9 1346 l 257
 1590.43 1548 l 257
 563.426 1548 l 257
1073.05 1525 m 257
 518 0 l 257
 717 0 l 257
 1272.05 1525 l 257
 1073.05 1525 l 257
401.985 1044 m 257
 329.555 845 l 257
 633.555 845 l 257
 705.985 1044 l 257
 401.985 1044 l 257
691.529 496 m 257
 237.746 329 l 257
 249.5 136 l 257
 703.283 303 l 257
 691.529 496 l 257
705.985 1044 m 257
 633.919 846 l 257
 878.065 742 l 257
 951.588 944 l 257
 705.985 1044 l 257
1021.48 897 m 257
 949.415 699 l 257
 1264.42 699 l 257
 1336.48 897 l 257
 1021.48 897 l 257
1114.48 897 m 257
 883.36 262 l 257
 1082.36 262 l 257
 1313.48 897 l 257
 1114.48 897 l 257
1032.15 462 m 257
 959.36 262 l 257
 1123.36 262 l 257
 1196.15 462 l 257
 1032.15 462 l 257
EndSplineSet
EndChar

StartChar: uni090C
Encoding: 426 2316 426
GlifName: uni090C_
Width: 1024
VWidth: 0
GlyphClass: 2
Flags: W
AnchorPoint: "abvm_deva" 1195.98 1588 basechar 0
LayerCount: 2
Fore
SplineSet
563.426 1548 m 257
 491.359 1350 l 257
 1517.36 1350 l 257
 1589.43 1548 l 257
 563.426 1548 l 257
1111.69 1524 m 257
 807.775 689 l 257
 1007.78 689 l 257
 1311.69 1524 l 257
 1111.69 1524 l 257
1232.9 791 m 257
 328.9 791 l 257
 255.742 590 l 257
 1159.74 590 l 257
 1232.9 791 l 257
324.805 777 m 257
 133.721 252 l 257
 334.721 252 l 257
 525.805 777 l 257
 324.805 777 l 257
680.9 791 m 257
 550.599 433 l 257
 751.599 433 l 257
 881.9 791 l 257
 680.9 791 l 257
1032.9 791 m 257
 771.206 72 l 257
 971.206 72 l 257
 1232.9 791 l 257
 1032.9 791 l 257
914.632 260 m 257
 846.206 72 l 257
 1047.21 72 l 257
 1115.63 260 l 257
 914.632 260 l 257
EndSplineSet
EndChar

StartChar: uni090D
Encoding: 427 2317 427
GlifName: uni090D_
Width: 1024
VWidth: 0
GlyphClass: 2
Flags: W
AnchorPoint: "abvm_deva" 1239.79 2104 basechar 0
LayerCount: 2
Fore
SplineSet
563.426 1548 m 257
 490.632 1348 l 257
 1516.63 1348 l 257
 1589.43 1548 l 257
 563.426 1548 l 257
1292.43 1548 m 257
 1012.53 779 l 257
 1211.53 779 l 257
 1491.43 1548 l 257
 1292.43 1548 l 257
940.371 839 m 257
 867.577 639 l 257
 1160.58 639 l 257
 1233.37 839 l 257
 940.371 839 l 257
703.242 1542 m 257
 265.021 338 l 257
 464.021 338 l 257
 902.242 1542 l 257
 703.242 1542 l 257
322.529 496 m 257
 250.1 297 l 257
 857.1 297 l 257
 929.529 496 l 257
 322.529 496 l 257
680.302 358 m 257
 514.331 -98 l 257
 713.331 -98 l 257
 879.302 358 l 257
 680.302 358 l 257
423.761 101 m 257
 351.331 -98 l 257
 711.331 -98 l 257
 783.761 101 l 257
 423.761 101 l 257
930.073 2124 m 257
 753.547 1639 l 257
 952.547 1639 l 257
 1129.07 2124 l 257
 930.073 2124 l 257
872.705 1840 m 257
 800.275 1641 l 257
 1394.28 1641 l 257
 1466.71 1840 l 257
 872.705 1840 l 257
1397.98 2132 m 257
 1219.28 1641 l 257
 1418.28 1641 l 257
 1596.98 2132 l 257
 1397.98 2132 l 257
EndSplineSet
EndChar

StartChar: uni090E
Encoding: 428 2318 428
GlifName: uni090E_
Width: 1024
VWidth: 0
GlyphClass: 2
Flags: W
AnchorPoint: "abvm_deva" 1640.54 1606 basechar 0
LayerCount: 2
Fore
SplineSet
563.426 1548 m 257
 490.632 1348 l 257
 1516.63 1348 l 257
 1589.43 1548 l 257
 563.426 1548 l 257
1239.65 1403 m 257
 1012.53 779 l 257
 1211.53 779 l 257
 1438.65 1403 l 257
 1239.65 1403 l 257
991.327 979 m 257
 918.533 779 l 257
 1211.53 779 l 257
 1284.33 979 l 257
 991.327 979 l 257
703.242 1542 m 257
 265.021 338 l 257
 464.021 338 l 257
 902.242 1542 l 257
 703.242 1542 l 257
272.302 358 m 257
 199.871 159 l 257
 799.871 159 l 257
 872.302 358 l 257
 272.302 358 l 257
671.302 358 m 257
 505.331 -98 l 257
 706.331 -98 l 257
 872.302 358 l 257
 671.302 358 l 257
368.169 -38 m 257
 295.375 -238 l 257
 655.375 -238 l 257
 728.169 -38 l 257
 368.169 -38 l 257
1020.51 2062 m 257
 933.518 1823 l 257
 1133.52 1823 l 257
 1220.51 2062 l 257
 1020.51 2062 l 257
948.896 1868 m 257
 875.738 1667 l 257
 1558.74 1667 l 257
 1631.9 1868 l 257
 948.896 1868 l 257
1426.26 1858 m 257
 1309.42 1537 l 257
 1511.42 1537 l 257
 1628.26 1858 l 257
 1426.26 1858 l 257
EndSplineSet
EndChar

StartChar: uni090F
Encoding: 429 2319 429
GlifName: uni090F_
Width: 1024
VWidth: 0
GlyphClass: 2
Flags: W
AnchorPoint: "abvm_deva" 1115.27 1630 basechar 0
LayerCount: 2
Fore
SplineSet
563.426 1548 m 257
 490.632 1348 l 257
 1516.63 1348 l 257
 1589.43 1548 l 257
 563.426 1548 l 257
1287.43 1548 m 257
 1008.62 782 l 257
 1208.62 782 l 257
 1487.43 1548 l 257
 1287.43 1548 l 257
987.327 979 m 257
 914.533 779 l 257
 1207.53 779 l 257
 1280.33 979 l 257
 987.327 979 l 257
699.242 1542 m 257
 261.021 338 l 257
 461.021 338 l 257
 899.242 1542 l 257
 699.242 1542 l 257
318.894 497 m 257
 246.1 297 l 257
 846.1 297 l 257
 918.894 497 l 257
 318.894 497 l 257
717.158 473 m 257
 509.331 -98 l 257
 709.331 -98 l 257
 917.158 473 l 257
 717.158 473 l 257
420.125 102 m 257
 347.331 -98 l 257
 707.331 -98 l 257
 780.125 102 l 257
 420.125 102 l 257
EndSplineSet
EndChar

StartChar: uni0910
Encoding: 430 2320 430
GlifName: uni0910
Width: 1024
VWidth: 0
GlyphClass: 2
Flags: W
AnchorPoint: "abvm_deva" 1555.48 1702 basechar 0
LayerCount: 2
Fore
SplineSet
563.426 1548 m 257
 490.632 1348 l 257
 1516.63 1348 l 257
 1589.43 1548 l 257
 563.426 1548 l 257
1287.43 1548 m 257
 1007.53 779 l 257
 1207.53 779 l 257
 1487.43 1548 l 257
 1287.43 1548 l 257
987.327 979 m 257
 914.533 779 l 257
 1207.53 779 l 257
 1280.33 979 l 257
 987.327 979 l 257
699.242 1542 m 257
 261.021 338 l 257
 461.021 338 l 257
 899.242 1542 l 257
 699.242 1542 l 257
318.894 497 m 257
 246.1 297 l 257
 846.1 297 l 257
 918.894 497 l 257
 318.894 497 l 257
710.158 473 m 257
 502.331 -98 l 257
 702.331 -98 l 257
 910.158 473 l 257
 710.158 473 l 257
420.125 102 m 257
 347.331 -98 l 257
 707.331 -98 l 257
 780.125 102 l 257
 420.125 102 l 257
1127.36 1883 m 257
 1279.57 1433 l 257
 1485.43 1548 l 257
 1333.21 1998 l 257
 1127.36 1883 l 257
EndSplineSet
EndChar

StartChar: uni0911
Encoding: 431 2321 431
GlifName: uni0911
Width: 1024
VWidth: 0
GlyphClass: 2
Flags: W
AnchorPoint: "abvm_deva" 1563.82 2170 basechar 0
LayerCount: 2
Fore
SplineSet
1091.43 1548 m 257
 1018.63 1348 l 257
 1515.63 1348 l 257
 1588.43 1548 l 257
 1091.43 1548 l 257
1060.47 1419 m 257
 544 0 l 257
 743 0 l 257
 1259.47 1419 l 257
 1060.47 1419 l 257
588.426 1548 m 257
 515.632 1348 l 257
 875.632 1348 l 257
 948.426 1548 l 257
 588.426 1548 l 257
774.426 1548 m 257
 261.956 140 l 257
 461.956 140 l 257
 974.426 1548 l 257
 774.426 1548 l 257
434.39 894 m 257
 361.231 693 l 257
 895.231 693 l 257
 968.39 894 l 257
 434.39 894 l 257
73.1582 201 m 257
 0 0 l 257
 411 0 l 257
 484.158 201 l 257
 73.1582 201 l 257
1327.84 1420 m 257
 811 0 l 257
 1010 0 l 257
 1526.84 1420 l 257
 1327.84 1420 l 257
1290.88 2085 m 257
 1128.55 1639 l 257
 1328.55 1639 l 257
 1490.88 2085 l 257
 1290.88 2085 l 257
1201.34 1839 m 257
 1128.18 1638 l 257
 1619.18 1638 l 257
 1692.34 1839 l 257
 1201.34 1839 l 257
1581.15 2083 m 257
 1420.28 1641 l 257
 1620.28 1641 l 257
 1781.15 2083 l 257
 1581.15 2083 l 257
EndSplineSet
EndChar

StartChar: uni0912
Encoding: 432 2322 432
GlifName: uni0912
Width: 1024
VWidth: 0
GlyphClass: 2
Flags: W
AnchorPoint: "abvm_deva" 1653.54 1628 basechar 0
LayerCount: 2
Fore
SplineSet
1091.43 1548 m 257
 1018.63 1348 l 257
 1515.63 1348 l 257
 1588.43 1548 l 257
 1091.43 1548 l 257
1065.47 1419 m 257
 549 0 l 257
 748 0 l 257
 1264.47 1419 l 257
 1065.47 1419 l 257
588.426 1548 m 257
 515.632 1348 l 257
 875.632 1348 l 257
 948.426 1548 l 257
 588.426 1548 l 257
774.426 1548 m 257
 261.956 140 l 257
 461.956 140 l 257
 974.426 1548 l 257
 774.426 1548 l 257
434.39 894 m 257
 361.231 693 l 257
 895.231 693 l 257
 968.39 894 l 257
 434.39 894 l 257
73.1582 201 m 257
 0 0 l 257
 411 0 l 257
 484.158 201 l 257
 73.1582 201 l 257
1327.84 1420 m 257
 811 0 l 257
 1010 0 l 257
 1526.84 1420 l 257
 1327.84 1420 l 257
1050.36 2155 m 257
 934.249 1836 l 257
 1132.25 1836 l 257
 1248.36 2155 l 257
 1050.36 2155 l 257
980.93 1967 m 257
 908.499 1768 l 257
 1591.5 1768 l 257
 1663.93 1967 l 257
 980.93 1967 l 257
1460.93 1956 m 257
 1300.78 1516 l 257
 1501.78 1516 l 257
 1661.93 1956 l 257
 1460.93 1956 l 257
EndSplineSet
EndChar

StartChar: uni0913
Encoding: 433 2323 433
GlifName: uni0913
Width: 1024
VWidth: 0
GlyphClass: 2
Flags: W
AnchorPoint: "abvm_deva" 1607.8 1582 basechar 0
LayerCount: 2
Fore
SplineSet
1091.43 1548 m 257
 1018.63 1348 l 257
 1515.63 1348 l 257
 1588.43 1548 l 257
 1091.43 1548 l 257
1060.47 1419 m 257
 544 0 l 257
 743 0 l 257
 1259.47 1419 l 257
 1060.47 1419 l 257
588.426 1548 m 257
 515.632 1348 l 257
 875.632 1348 l 257
 948.426 1548 l 257
 588.426 1548 l 257
774.426 1548 m 257
 261.956 140 l 257
 461.956 140 l 257
 974.426 1548 l 257
 774.426 1548 l 257
434.39 894 m 257
 361.231 693 l 257
 895.231 693 l 257
 968.39 894 l 257
 434.39 894 l 257
78.1582 201 m 257
 5 0 l 257
 411 0 l 257
 484.158 201 l 257
 78.1582 201 l 257
1328.93 1423 m 257
 811 0 l 257
 1010 0 l 257
 1527.93 1423 l 257
 1328.93 1423 l 257
1282.5 1768 m 257
 1330.67 1458 l 257
 1541.43 1548 l 257
 1493.35 1861 l 257
 1282.5 1768 l 257
EndSplineSet
EndChar

StartChar: uni0914
Encoding: 434 2324 434
GlifName: uni0914
Width: 1024
VWidth: 0
GlyphClass: 2
Flags: W
AnchorPoint: "abvm_deva" 1619.25 1564 basechar 0
LayerCount: 2
Fore
SplineSet
1091.43 1548 m 257
 1018.63 1348 l 257
 1515.63 1348 l 257
 1588.43 1548 l 257
 1091.43 1548 l 257
1060.47 1419 m 257
 544 0 l 257
 743 0 l 257
 1259.47 1419 l 257
 1060.47 1419 l 257
588.426 1548 m 257
 515.632 1348 l 257
 875.632 1348 l 257
 948.426 1548 l 257
 588.426 1548 l 257
774.426 1548 m 257
 261.956 140 l 257
 461.956 140 l 257
 974.426 1548 l 257
 774.426 1548 l 257
434.39 894 m 257
 361.231 693 l 257
 895.231 693 l 257
 968.39 894 l 257
 434.39 894 l 257
85.1582 201 m 257
 12 0 l 257
 411 0 l 257
 484.158 201 l 257
 85.1582 201 l 257
1327.84 1420 m 257
 811 0 l 257
 1010 0 l 257
 1526.84 1420 l 257
 1327.84 1420 l 257
975.948 1750 m 257
 1182.43 1548 l 257
 1474.43 1548 l 257
 1167.64 1903 l 257
 975.948 1750 l 257
1437.38 1949 m 257
 1344.96 1522 l 257
 1566.43 1548 l 257
 1648.57 1988 l 257
 1437.38 1949 l 257
EndSplineSet
EndChar

StartChar: uni0915
Encoding: 435 2325 435
GlifName: uni0915
Width: 1024
VWidth: 0
GlyphClass: 2
Flags: W
AnchorPoint: "abvm_deva" 1203.54 1617 basechar 0
AnchorPoint: "blwm_deva" 606.9 -25 basechar 0
LayerCount: 2
Fore
SplineSet
563.426 1548 m 257
 490.632 1348 l 257
 1515.63 1348 l 257
 1588.43 1548 l 257
 563.426 1548 l 257
1073.78 1516 m 257
 525.64 10 l 257
 725.64 10 l 257
 1273.78 1516 l 257
 1073.78 1516 l 257
506.525 1029 m 257
 433.367 828 l 257
 796.367 828 l 257
 869.525 1029 l 257
 506.525 1029 l 257
491.967 989 m 257
 293.239 443 l 257
 491.239 443 l 257
 689.967 989 l 257
 491.967 989 l 257
385.488 647 m 257
 311.239 443 l 257
 737.239 443 l 257
 811.488 647 l 257
 385.488 647 l 257
946.11 874 m 257
 873.68 675 l 257
 1179.68 675 l 257
 1252.11 874 l 257
 946.11 874 l 257
1103.11 874 m 257
 996.831 582 l 257
 1195.83 582 l 257
 1302.11 874 l 257
 1103.11 874 l 257
EndSplineSet
EndChar

StartChar: uni0915_uni0930_uni094D.vatu
Encoding: 436 -1 436
GlifName: uni0915_uni0930_uni094D_.vatu
Width: 1024
VWidth: 0
GlyphClass: 3
Flags: W
LayerCount: 2
Fore
SplineSet
563.426 1548 m 257
 490.268 1347 l 257
 1506.27 1347 l 257
 1579.43 1548 l 257
 563.426 1548 l 257
1073.78 1516 m 257
 525.64 10 l 257
 725.64 10 l 257
 1273.78 1516 l 257
 1073.78 1516 l 257
506.525 1029 m 257
 433.367 828 l 257
 915.367 828 l 257
 988.525 1029 l 257
 506.525 1029 l 257
494.967 989 m 257
 296.239 443 l 257
 494.239 443 l 257
 692.967 989 l 257
 494.967 989 l 257
384.033 643 m 257
 309.783 439 l 257
 735.783 439 l 257
 810.033 643 l 257
 384.033 643 l 257
946.11 874 m 257
 873.68 675 l 257
 1179.68 675 l 257
 1252.11 874 l 257
 946.11 874 l 257
1104.93 879 m 257
 998.65 587 l 257
 1197.65 587 l 257
 1303.93 879 l 257
 1104.93 879 l 257
75 0 m 257
 332 0 l 257
 750.254 215 l 257
 823.411 416 l 257
 75 0 l 257
EndSplineSet
Ligature2: "rkrfRakarVariantsinDevanagari2lookup0 subtable" uni0915 uni094D uni0930
EndChar

StartChar: uni0915_uni094D.half
Encoding: 437 -1 437
GlifName: uni0915_uni094D_.half
Width: 1024
VWidth: 0
GlyphClass: 2
Flags: W
LayerCount: 2
Fore
SplineSet
563.426 1548 m 257
 490.268 1347 l 257
 1506.27 1347 l 257
 1579.43 1548 l 257
 563.426 1548 l 257
1073.78 1516 m 257
 525.64 10 l 257
 725.64 10 l 257
 1273.78 1516 l 257
 1073.78 1516 l 257
506.525 1029 m 257
 433.367 828 l 257
 915.367 828 l 257
 988.525 1029 l 257
 506.525 1029 l 257
494.967 989 m 257
 296.239 443 l 257
 494.239 443 l 257
 692.967 989 l 257
 494.967 989 l 257
384.033 643 m 257
 309.783 439 l 257
 735.783 439 l 257
 810.033 643 l 257
 384.033 643 l 257
946.11 874 m 257
 873.68 675 l 257
 1258.68 675 l 257
 1331.11 874 l 257
 946.11 874 l 257
EndSplineSet
Ligature2: "halfHalfFormsinDevanagari2lookup0 subtable" uni0915 uni094D
EndChar

StartChar: uni0915_uni094D.haln
Encoding: 438 -1 438
GlifName: uni0915_uni094D_.haln
Width: 1024
VWidth: 0
GlyphClass: 3
Flags: W
LayerCount: 2
Fore
SplineSet
564.416 1548 m 257
 489.358 1348 l 257
 1516.36 1348 l 257
 1591.42 1548 l 257
 564.416 1548 l 257
1076.41 1516 m 257
 511.225 10 l 257
 711.225 10 l 257
 1276.41 1516 l 257
 1076.41 1516 l 257
503.643 1029 m 257
 428.21 828 l 257
 791.21 828 l 257
 866.643 1029 l 257
 503.643 1029 l 257
488.631 989 m 257
 283.723 443 l 257
 481.723 443 l 257
 686.631 989 l 257
 488.631 989 l 257
378.283 647 m 257
 301.723 443 l 257
 727.723 443 l 257
 804.283 647 l 257
 378.283 647 l 257
941.472 874 m 257
 866.791 675 l 257
 1172.79 675 l 257
 1247.47 874 l 257
 941.472 874 l 257
1098.47 874 m 257
 988.89 582 l 257
 1187.89 582 l 257
 1297.47 874 l 257
 1098.47 874 l 257
708.567 -22 m 257
 635.012 -218 l 257
 992.015 -218 l 257
 1065.57 -22 l 257
 708.567 -22 l 257
864.147 -183 m 257
 1049.16 -588 l 257
 1254.33 -425 l 257
 1067.95 -21 l 257
 864.147 -183 l 257
EndSplineSet
Ligature2: "halnHalantFormsinDevanagari2lookup0 subtable" uni0915 uni094D
EndChar

StartChar: uni0915_uni094D_uni0937.akhn
Encoding: 439 -1 439
GlifName: uni0915_uni094D__uni0937.akhn
Width: 1024
VWidth: 0
GlyphClass: 3
Flags: W
LayerCount: 2
Fore
SplineSet
1228.43 1548 m 257
 1156.72 1351 l 257
 1515.72 1351 l 257
 1587.43 1548 l 257
 1228.43 1548 l 257
1271.96 1511 m 257
 722 0 l 257
 921 0 l 257
 1470.96 1511 l 257
 1271.96 1511 l 257
440.36 1078 m 257
 367.565 878 l 257
 1240.57 878 l 257
 1313.36 1078 l 257
 440.36 1078 l 257
419.342 1023 m 257
 620.342 1023 l 257
 765.565 1422 l 257
 564.565 1422 l 257
 419.342 1023 l 257
570.297 1435 m 257
 497.503 1235 l 257
 1016.5 1235 l 257
 1089.3 1435 l 257
 570.297 1435 l 257
885.565 1422 m 257
 689.021 882 l 257
 887.021 882 l 257
 1083.57 1422 l 257
 885.565 1422 l 257
389.121 635 m 257
 586.121 635 l 257
 885.294 880 l 257
 687.294 880 l 257
 389.121 635 l 257
389.121 635 m 257
 230.794 200 l 257
 429.794 200 l 257
 588.121 635 l 257
 389.121 635 l 257
291.577 367 m 257
 218.419 166 l 257
 942.419 166 l 257
 1015.58 367 l 257
 291.577 367 l 257
EndSplineSet
Ligature2: "akhnAkhandinDevanagari2lookup0 subtable" uni0915 uni094D uni0937
EndChar

StartChar: uni0915_uni094D_uni0937.half
Encoding: 440 -1 440
GlifName: uni0915_uni094D__uni0937.half
Width: 1024
VWidth: 0
GlyphClass: 3
Flags: W
LayerCount: 2
Fore
SplineSet
1218.43 1548 m 257
 1146.72 1351 l 257
 1505.72 1351 l 257
 1577.43 1548 l 257
 1218.43 1548 l 257
430.36 1078 m 257
 357.565 878 l 257
 1430.57 878 l 257
 1503.36 1078 l 257
 430.36 1078 l 257
409.342 1023 m 257
 610.342 1023 l 257
 755.565 1422 l 257
 554.565 1422 l 257
 409.342 1023 l 257
560.297 1435 m 257
 487.503 1235 l 257
 1006.5 1235 l 257
 1079.3 1435 l 257
 560.297 1435 l 257
875.565 1422 m 257
 679.021 882 l 257
 877.021 882 l 257
 1073.57 1422 l 257
 875.565 1422 l 257
379.121 635 m 257
 576.121 635 l 257
 875.294 880 l 257
 677.294 880 l 257
 379.121 635 l 257
379.121 635 m 257
 220.794 200 l 257
 419.794 200 l 257
 578.121 635 l 257
 379.121 635 l 257
281.577 367 m 257
 208.419 166 l 257
 1132.42 166 l 257
 1205.58 367 l 257
 281.577 367 l 257
EndSplineSet
Ligature2: "halfHalfFormsinDevanagari2lookup0 subtable" uni0915_uni094D_uni0937.akhn uni094D
EndChar

StartChar: uni0915_uni094D_uni0937_uni094D
Encoding: 441 -1 441
GlifName: uni0915_uni094D__uni0937_uni094D_
Width: 1024
VWidth: 0
GlyphClass: 2
Flags: W
LayerCount: 2
Fore
SplineSet
1220.1 1548 m 257
 1146.17 1351 l 257
 1505.16 1351 l 257
 1579.1 1548 l 257
 1220.1 1548 l 257
1263.21 1511 m 257
 696.156 0 l 257
 895.156 0 l 257
 1462.21 1511 l 257
 1263.21 1511 l 257
426.715 1078 m 257
 351.655 878 l 257
 1224.66 878 l 257
 1299.71 1078 l 257
 426.715 1078 l 257
405.073 1023 m 257
 606.072 1023 l 257
 755.812 1422 l 257
 554.812 1422 l 257
 405.073 1023 l 257
560.691 1435 m 257
 485.634 1235 l 257
 1004.63 1235 l 257
 1079.69 1435 l 257
 560.691 1435 l 257
875.812 1422 m 257
 673.159 882 l 257
 871.159 882 l 257
 1073.81 1422 l 257
 875.812 1422 l 257
370.463 635 m 257
 567.463 635 l 257
 869.407 880 l 257
 671.407 880 l 257
 370.463 635 l 257
370.463 635 m 257
 207.212 200 l 257
 406.212 200 l 257
 569.463 635 l 257
 370.463 635 l 257
269.886 367 m 257
 194.452 166 l 257
 918.452 166 l 257
 993.886 367 l 257
 269.886 367 l 257
573.34 -22 m 257
 499.784 -218 l 257
 856.784 -218 l 257
 930.34 -22 l 257
 573.34 -22 l 257
728.918 -183 m 257
 913.926 -588 l 257
 1119.1 -425 l 257
 932.716 -21 l 257
 728.918 -183 l 257
EndSplineSet
Ligature2: "halnHalantFormsinDevanagari2lookup0 subtable" uni0915_uni094D_uni0937.akhn uni094D
EndChar

StartChar: uni0916
Encoding: 442 2326 442
GlifName: uni0916
Width: 1024
VWidth: 0
GlyphClass: 2
Flags: W
AnchorPoint: "abvm_deva" 1335.8 1593 basechar 0
AnchorPoint: "blwm_deva" 788.805 -39 basechar 0
LayerCount: 2
Fore
SplineSet
556.426 1548 m 257
 483.996 1349 l 257
 1514 1349 l 257
 1586.43 1548 l 257
 556.426 1548 l 257
1241.05 1514 m 257
 690 0 l 257
 890 0 l 257
 1441.05 1514 l 257
 1241.05 1514 l 257
785.327 979 m 257
 712.533 779 l 257
 940.533 779 l 257
 1013.33 979 l 257
 785.327 979 l 257
755.327 979 m 257
 565.334 457 l 257
 765.334 457 l 257
 955.327 979 l 257
 755.327 979 l 257
605.735 568 m 257
 532.941 368 l 257
 875.941 368 l 257
 948.735 568 l 257
 605.735 568 l 257
638.481 1441 m 257
 157.677 120 l 257
 357.677 120 l 257
 838.481 1441 l 257
 638.481 1441 l 257
276.154 734 m 257
 203.36 534 l 257
 507.36 534 l 257
 580.154 734 l 257
 276.154 734 l 257
211.271 270 m 257
 138.478 70 l 257
 852.478 70 l 257
 925.271 270 l 257
 211.271 270 l 257
EndSplineSet
EndChar

StartChar: uni0916_uni0930_uni094D.vatu
Encoding: 443 -1 443
GlifName: uni0916_uni0930_uni094D_.vatu
Width: 1024
VWidth: 0
GlyphClass: 3
Flags: W
LayerCount: 2
Fore
SplineSet
75 0 m 257
 332 0 l 257
 750.254 215 l 257
 823.411 416 l 257
 75 0 l 257
556.426 1548 m 257
 483.996 1349 l 257
 1514 1349 l 257
 1586.43 1548 l 257
 556.426 1548 l 257
1241.05 1514 m 257
 690 0 l 257
 890 0 l 257
 1441.05 1514 l 257
 1241.05 1514 l 257
845.746 1145 m 257
 772.952 945 l 257
 1000.95 945 l 257
 1073.75 1145 l 257
 845.746 1145 l 257
815.746 1145 m 257
 625.754 623 l 257
 825.754 623 l 257
 1015.75 1145 l 257
 815.746 1145 l 257
666.154 734 m 257
 593.36 534 l 257
 936.36 534 l 257
 1009.15 734 l 257
 666.154 734 l 257
638.481 1441 m 257
 218.096 286 l 257
 418.096 286 l 257
 838.481 1441 l 257
 638.481 1441 l 257
336.573 900 m 257
 263.779 700 l 257
 567.779 700 l 257
 640.573 900 l 257
 336.573 900 l 257
271.691 436 m 257
 198.897 236 l 257
 912.897 236 l 257
 985.691 436 l 257
 271.691 436 l 257
EndSplineSet
Ligature2: "rkrfRakarVariantsinDevanagari2lookup0 subtable" uni0916 uni094D uni0930
EndChar

StartChar: uni0916_uni094D.half
Encoding: 444 -1 444
GlifName: uni0916_uni094D_.half
Width: 1024
VWidth: 0
GlyphClass: 2
Flags: W
LayerCount: 2
Fore
SplineSet
556.426 1548 m 257
 483.996 1349 l 257
 1514 1349 l 257
 1586.43 1548 l 257
 556.426 1548 l 257
979.327 979 m 257
 906.533 779 l 257
 1134.53 779 l 257
 1207.33 979 l 257
 979.327 979 l 257
949.327 979 m 257
 759.334 457 l 257
 959.334 457 l 257
 1149.33 979 l 257
 949.327 979 l 257
799.735 568 m 257
 726.941 368 l 257
 1148.94 368 l 257
 1221.74 568 l 257
 799.735 568 l 257
832.481 1441 m 257
 351.677 120 l 257
 551.677 120 l 257
 1032.48 1441 l 257
 832.481 1441 l 257
470.154 734 m 257
 397.36 534 l 257
 701.36 534 l 257
 774.154 734 l 257
 470.154 734 l 257
405.271 270 m 257
 332.478 70 l 257
 1046.48 70 l 257
 1119.27 270 l 257
 405.271 270 l 257
EndSplineSet
Ligature2: "halfHalfFormsinDevanagari2lookup0 subtable" uni0916 uni094D
EndChar

StartChar: uni0916_uni094D.haln
Encoding: 445 -1 445
GlifName: uni0916_uni094D_.haln
Width: 1024
VWidth: 0
GlyphClass: 3
Flags: W
LayerCount: 2
Fore
SplineSet
565.677 1548 m 257
 490.995 1349 l 257
 1521 1349 l 257
 1595.68 1548 l 257
 565.677 1548 l 257
1249.92 1514 m 257
 681.733 0 l 257
 881.733 0 l 257
 1449.92 1514 l 257
 1249.92 1514 l 257
788.139 979 m 257
 713.083 779 l 257
 941.083 779 l 257
 1016.14 979 l 257
 788.139 979 l 257
758.139 979 m 257
 562.239 457 l 257
 762.239 457 l 257
 958.139 979 l 257
 758.139 979 l 257
603.896 568 m 257
 528.838 368 l 257
 871.838 368 l 257
 946.896 568 l 257
 603.896 568 l 257
646.521 1441 m 257
 150.768 120 l 257
 350.768 120 l 257
 846.521 1441 l 257
 646.521 1441 l 257
276.194 734 m 257
 201.137 534 l 257
 505.136 534 l 257
 580.194 734 l 257
 276.194 734 l 257
206.061 270 m 257
 131.003 70 l 257
 845.003 70 l 257
 920.061 270 l 257
 206.061 270 l 257
483.446 -22 m 257
 409.892 -218 l 257
 766.892 -218 l 257
 840.446 -22 l 257
 483.446 -22 l 257
639.026 -183 m 257
 824.035 -588 l 257
 1029.2 -425 l 257
 842.822 -21 l 257
 639.026 -183 l 257
EndSplineSet
Ligature2: "halnHalantFormsinDevanagari2lookup0 subtable" uni0916 uni094D
EndChar

StartChar: uni0917
Encoding: 446 2327 446
GlifName: uni0917
Width: 1024
VWidth: 0
GlyphClass: 2
Flags: W
AnchorPoint: "abvm_deva" 1429.9 1607 basechar 0
AnchorPoint: "blwm_deva" 834.802 -50 basechar 0
LayerCount: 2
Fore
SplineSet
412.467 853 m 257
 611.467 853 l 257
 680.985 1044 l 257
 481.985 1044 l 257
 412.467 853 l 257
423.021 882 m 257
 350.592 683 l 257
 826.592 683 l 257
 899.021 882 l 257
 423.021 882 l 257
942.426 1548 m 257
 674.544 812 l 257
 873.544 812 l 257
 1141.43 1548 l 257
 942.426 1548 l 257
1588.43 1548 m 257
 824.426 1548 l 257
 751.632 1348 l 257
 1515.63 1348 l 257
 1588.43 1548 l 257
1286.33 1523 m 257
 732 0 l 257
 931 0 l 257
 1485.33 1523 l 257
 1286.33 1523 l 257
EndSplineSet
EndChar

StartChar: uni0917_uni0930_uni094D.vatu
Encoding: 447 -1 447
GlifName: uni0917_uni0930_uni094D_.vatu
Width: 1024
VWidth: 0
GlyphClass: 3
Flags: W
LayerCount: 2
Fore
SplineSet
153 0 m 257
 410 0 l 257
 828.254 215 l 257
 901.411 416 l 257
 153 0 l 257
412.467 853 m 257
 611.467 853 l 257
 680.985 1044 l 257
 481.985 1044 l 257
 412.467 853 l 257
423.021 882 m 257
 350.592 683 l 257
 826.592 683 l 257
 899.021 882 l 257
 423.021 882 l 257
942.426 1548 m 257
 674.544 812 l 257
 873.544 812 l 257
 1141.43 1548 l 257
 942.426 1548 l 257
1575.43 1548 m 257
 824.426 1548 l 257
 751.632 1348 l 257
 1502.63 1348 l 257
 1575.43 1548 l 257
1286.33 1523 m 257
 732 0 l 257
 931 0 l 257
 1485.33 1523 l 257
 1286.33 1523 l 257
EndSplineSet
Ligature2: "rkrfRakarVariantsinDevanagari2lookup0 subtable" uni0917 uni094D uni0930
EndChar

StartChar: uni0917_uni094D.half
Encoding: 448 -1 448
GlifName: uni0917_uni094D_.half
Width: 1024
VWidth: 0
GlyphClass: 3
Flags: W
LayerCount: 2
Fore
SplineSet
412.467 853 m 257
 611.467 853 l 257
 680.985 1044 l 257
 481.985 1044 l 257
 412.467 853 l 257
423.021 882 m 257
 350.592 683 l 257
 826.592 683 l 257
 899.021 882 l 257
 423.021 882 l 257
942.426 1548 m 257
 674.544 812 l 257
 873.544 812 l 257
 1141.43 1548 l 257
 942.426 1548 l 257
1575.43 1548 m 257
 824.426 1548 l 257
 751.632 1348 l 257
 1502.63 1348 l 257
 1575.43 1548 l 257
EndSplineSet
Ligature2: "halfHalfFormsinDevanagari2lookup0 subtable" uni0917 uni094D
EndChar

StartChar: uni0917_uni094D.haln
Encoding: 449 -1 449
GlifName: uni0917_uni094D_.haln
Width: 1024
VWidth: 0
GlyphClass: 3
Flags: W
LayerCount: 2
Fore
SplineSet
399.238 853 m 257
 598.237 853 l 257
 669.919 1044 l 257
 470.919 1044 l 257
 399.238 853 l 257
410.121 882 m 257
 335.439 683 l 257
 811.439 683 l 257
 886.122 882 l 257
 410.121 882 l 257
937.062 1548 m 257
 660.852 812 l 257
 859.852 812 l 257
 1136.06 1548 l 257
 937.062 1548 l 257
1583.07 1548 m 257
 819.062 1548 l 257
 744.005 1348 l 257
 1508 1348 l 257
 1583.07 1548 l 257
1280.68 1523 m 257
 709.119 0 l 257
 908.119 0 l 257
 1479.68 1523 l 257
 1280.68 1523 l 257
785.888 -22 m 257
 712.331 -218 l 257
 1069.33 -218 l 257
 1142.88 -22 l 257
 785.888 -22 l 257
941.464 -183 m 257
 1126.48 -588 l 257
 1331.64 -425 l 257
 1145.27 -21 l 257
 941.464 -183 l 257
EndSplineSet
Ligature2: "halnHalantFormsinDevanagari2lookup0 subtable" uni0917 uni094D
EndChar

StartChar: uni0918
Encoding: 450 2328 450
GlifName: uni0918
Width: 1024
VWidth: 0
GlyphClass: 2
Flags: W
AnchorPoint: "abvm_deva" 1320.9 1618 basechar 0
AnchorPoint: "blwm_deva" 806.975 -77 basechar 0
LayerCount: 2
Fore
SplineSet
563.426 1548 m 257
 490.632 1348 l 257
 1516.63 1348 l 257
 1589.43 1548 l 257
 563.426 1548 l 257
1254.96 1522 m 257
 705.731 13 l 257
 905.731 13 l 257
 1454.96 1522 l 257
 1254.96 1522 l 257
724.415 1515 m 257
 494.386 883 l 257
 693.386 883 l 257
 923.415 1515 l 257
 724.415 1515 l 257
600.761 917 m 257
 527.967 717 l 257
 771.967 717 l 257
 844.761 917 l 257
 600.761 917 l 257
349.702 469 m 257
 276.908 269 l 257
 974.908 269 l 257
 1047.7 469 l 257
 349.702 469 l 257
270.908 269 m 257
 469.908 269 l 257
 650.073 764 l 257
 451.073 764 l 257
 270.908 269 l 257
EndSplineSet
EndChar

StartChar: uni0918_uni0930_uni094D.vatu
Encoding: 451 -1 451
GlifName: uni0918_uni0930_uni094D_.vatu
Width: 1024
VWidth: 0
GlyphClass: 3
Flags: W
LayerCount: 2
Fore
SplineSet
129 0 m 257
 386 0 l 257
 804.254 215 l 257
 877.411 416 l 257
 129 0 l 257
565.609 1554 m 257
 492.815 1354 l 257
 1514.82 1354 l 257
 1587.61 1554 l 257
 565.609 1554 l 257
1254.96 1522 m 257
 705.731 13 l 257
 905.731 13 l 257
 1454.96 1522 l 257
 1254.96 1522 l 257
724.415 1515 m 257
 494.386 883 l 257
 693.386 883 l 257
 923.415 1515 l 257
 724.415 1515 l 257
600.761 917 m 257
 527.967 717 l 257
 771.967 717 l 257
 844.761 917 l 257
 600.761 917 l 257
349.702 469 m 257
 276.908 269 l 257
 974.908 269 l 257
 1047.7 469 l 257
 349.702 469 l 257
270.908 269 m 257
 469.908 269 l 257
 650.073 764 l 257
 451.073 764 l 257
 270.908 269 l 257
EndSplineSet
Ligature2: "rkrfRakarVariantsinDevanagari2lookup0 subtable" uni0918 uni094D uni0930
EndChar

StartChar: uni0918_uni094D.half
Encoding: 452 -1 452
GlifName: uni0918_uni094D_.half
Width: 1024
VWidth: 0
GlyphClass: 3
Flags: W
LayerCount: 2
Fore
SplineSet
565.609 1554 m 257
 492.815 1354 l 257
 1514.82 1354 l 257
 1587.61 1554 l 257
 565.609 1554 l 257
724.415 1515 m 257
 494.386 883 l 257
 693.386 883 l 257
 923.415 1515 l 257
 724.415 1515 l 257
600.761 917 m 257
 527.967 717 l 257
 771.967 717 l 257
 844.761 917 l 257
 600.761 917 l 257
349.702 469 m 257
 276.908 269 l 257
 1111.91 269 l 257
 1184.7 469 l 257
 349.702 469 l 257
270.908 269 m 257
 469.908 269 l 257
 650.073 764 l 257
 451.073 764 l 257
 270.908 269 l 257
EndSplineSet
Ligature2: "halfHalfFormsinDevanagari2lookup0 subtable" uni0918 uni094D
EndChar

StartChar: uni0918_uni094D.haln
Encoding: 453 -1 453
GlifName: uni0918_uni094D_.haln
Width: 1024
VWidth: 0
GlyphClass: 3
Flags: W
LayerCount: 2
Fore
SplineSet
565.746 1548 m 257
 490.689 1348 l 257
 1516.69 1348 l 257
 1591.75 1548 l 257
 565.746 1548 l 257
1256.99 1522 m 257
 690.682 13 l 257
 890.682 13 l 257
 1456.99 1522 l 257
 1256.99 1522 l 257
726.361 1515 m 257
 489.182 883 l 257
 688.182 883 l 257
 925.361 1515 l 257
 726.361 1515 l 257
595.941 917 m 257
 520.883 717 l 257
 764.883 717 l 257
 839.941 917 l 257
 595.941 917 l 257
339.812 469 m 257
 264.756 269 l 257
 962.756 269 l 257
 1037.81 469 l 257
 339.812 469 l 257
258.756 269 m 257
 457.756 269 l 257
 643.521 764 l 257
 444.521 764 l 257
 258.756 269 l 257
673.227 -22 m 257
 599.672 -218 l 257
 956.675 -218 l 257
 1030.22 -22 l 257
 673.227 -22 l 257
828.806 -183 m 257
 1013.82 -588 l 257
 1218.98 -425 l 257
 1032.61 -21 l 257
 828.806 -183 l 257
EndSplineSet
Ligature2: "halnHalantFormsinDevanagari2lookup0 subtable" uni0918 uni094D
EndChar

StartChar: uni0919
Encoding: 454 2329 454
GlifName: uni0919
Width: 1024
VWidth: 0
GlyphClass: 2
Flags: W
AnchorPoint: "abvm_deva" 1205.8 1582 basechar 0
AnchorPoint: "blwm_deva" 655.606 -89 basechar 0
LayerCount: 2
Fore
SplineSet
563.426 1548 m 257
 491.359 1350 l 257
 1516.36 1350 l 257
 1588.43 1548 l 257
 563.426 1548 l 257
1070.61 1543 m 257
 881.342 1023 l 257
 1081.34 1023 l 257
 1270.61 1543 l 257
 1070.61 1543 l 257
1146.23 1226 m 257
 672.228 1226 l 257
 598.342 1023 l 257
 1072.34 1023 l 257
 1146.23 1226 l 257
619.18 1083 m 257
 453.938 629 l 257
 658.938 629 l 257
 824.18 1083 l 257
 619.18 1083 l 257
523.456 820 m 257
 450.661 620 l 257
 1011.66 620 l 257
 1084.46 820 l 257
 523.456 820 l 257
833.5 680 m 257
 596.555 29 l 257
 796.555 29 l 257
 1033.5 680 l 257
 833.5 680 l 257
185.158 201 m 257
 112 0 l 257
 787 0 l 257
 860.158 201 l 257
 185.158 201 l 257
265.959 423 m 257
 114.912 8 l 257
 315.912 8 l 257
 466.959 423 l 257
 265.959 423 l 257
1190.44 1037 m 257
 1136.93 890 l 257
 1293.93 890 l 257
 1347.44 1037 l 257
 1190.44 1037 l 257
EndSplineSet
EndChar

StartChar: uni0919_uni0930_uni094D.vatu
Encoding: 455 -1 455
GlifName: uni0919_uni0930_uni094D_.vatu
Width: 1024
VWidth: 0
GlyphClass: 3
Flags: W
LayerCount: 2
Fore
SplineSet
380.765 112 m 257
 466.456 -268 l 257
 748.456 -268 l 257
 564.275 281 l 257
 380.765 112 l 257
564.275 281 m 257
 -45.8193 -277 l 257
 175.181 -277 l 257
 619.221 116 l 257
 564.275 281 l 257
565.609 1554 m 257
 492.815 1354 l 257
 1514.82 1354 l 257
 1587.61 1554 l 257
 565.609 1554 l 257
1070.61 1543 m 257
 905 1088 l 257
 1105 1088 l 257
 1270.61 1543 l 257
 1070.61 1543 l 257
1168.79 1288 m 257
 694.794 1288 l 257
 622 1088 l 257
 1096 1088 l 257
 1168.79 1288 l 257
641.746 1145 m 257
 476.504 691 l 257
 681.504 691 l 257
 846.746 1145 l 257
 641.746 1145 l 257
546.021 882 m 257
 473.228 682 l 257
 1034.23 682 l 257
 1107.02 882 l 257
 546.021 882 l 257
856.065 742 m 257
 706.475 331 l 257
 906.475 331 l 257
 1056.07 742 l 257
 856.065 742 l 257
295.077 503 m 257
 221.919 302 l 257
 896.919 302 l 257
 970.077 503 l 257
 295.077 503 l 257
344.577 639 m 257
 224.831 310 l 257
 425.831 310 l 257
 545.577 639 l 257
 344.577 639 l 257
1213 1099 m 257
 1159.5 952 l 257
 1316.5 952 l 257
 1370 1099 l 257
 1213 1099 l 257
EndSplineSet
Ligature2: "rkrfRakarVariantsinDevanagari2lookup0 subtable" uni0919 uni094D uni0930
EndChar

StartChar: uni0919_uni094D.half
Encoding: 456 -1 456
GlifName: uni0919_uni094D_.half
Width: 1024
VWidth: 0
GlyphClass: 3
Flags: W
LayerCount: 2
Fore
SplineSet
565.609 1554 m 257
 492.815 1354 l 257
 1514.82 1354 l 257
 1587.61 1554 l 257
 565.609 1554 l 257
1070.61 1543 m 257
 881.342 1023 l 257
 1081.34 1023 l 257
 1270.61 1543 l 257
 1070.61 1543 l 257
1146.23 1226 m 257
 672.228 1226 l 257
 598.342 1023 l 257
 1072.34 1023 l 257
 1146.23 1226 l 257
619.18 1083 m 257
 453.938 629 l 257
 658.938 629 l 257
 824.18 1083 l 257
 619.18 1083 l 257
523.456 820 m 257
 450.661 620 l 257
 1011.66 620 l 257
 1084.46 820 l 257
 523.456 820 l 257
833.5 680 m 257
 646.055 165 l 257
 846.055 165 l 257
 1033.5 680 l 257
 833.5 680 l 257
234.658 337 m 257
 161.5 136 l 257
 836.5 136 l 257
 909.658 337 l 257
 234.658 337 l 257
315.459 559 m 257
 164.412 144 l 257
 365.412 144 l 257
 516.459 559 l 257
 315.459 559 l 257
1190.44 1037 m 257
 1136.93 890 l 257
 1293.93 890 l 257
 1347.44 1037 l 257
 1190.44 1037 l 257
359.019 55 m 257
 163.681 -141 l 257
 520.681 -141 l 257
 716.019 55 l 257
 359.019 55 l 257
510.419 -106 m 257
 700.011 -511 l 257
 903.338 -348 l 257
 712.383 56 l 257
 510.419 -106 l 257
EndSplineSet
Ligature2: "halfHalfFormsinDevanagari2lookup0 subtable" uni0919 uni094D
EndChar

StartChar: uni0919_uni094D.haln
Encoding: 457 -1 457
GlifName: uni0919_uni094D_.haln
Width: 1024
VWidth: 0
GlyphClass: 3
Flags: W
LayerCount: 2
Fore
SplineSet
565.654 1548 m 257
 491.348 1350 l 257
 1516.35 1350 l 257
 1590.66 1548 l 257
 565.654 1548 l 257
1072.78 1543 m 257
 877.629 1023 l 257
 1077.63 1023 l 257
 1272.78 1543 l 257
 1072.78 1543 l 257
1144.81 1226 m 257
 670.812 1226 l 257
 594.629 1023 l 257
 1068.63 1023 l 257
 1144.81 1226 l 257
616.146 1083 m 257
 445.766 629 l 257
 650.766 629 l 257
 821.146 1083 l 257
 616.146 1083 l 257
517.445 820 m 257
 442.39 620 l 257
 1003.39 620 l 257
 1078.45 820 l 257
 517.445 820 l 257
825.905 680 m 257
 581.594 29 l 257
 781.594 29 l 257
 1025.91 680 l 257
 825.905 680 l 257
172.145 201 m 257
 96.7109 0 l 257
 771.711 0 l 257
 847.144 201 l 257
 172.145 201 l 257
255.457 423 m 257
 99.7139 8 l 257
 300.714 8 l 257
 456.457 423 l 257
 255.457 423 l 257
1186.88 1037 m 257
 1131.72 890 l 257
 1288.72 890 l 257
 1343.88 1037 l 257
 1186.88 1037 l 257
436.187 -22 m 257
 362.632 -218 l 257
 719.632 -218 l 257
 793.187 -22 l 257
 436.187 -22 l 257
591.766 -183 m 257
 776.775 -588 l 257
 981.942 -425 l 257
 795.562 -21 l 257
 591.766 -183 l 257
EndSplineSet
Ligature2: "halnHalantFormsinDevanagari2lookup0 subtable" uni0919 uni094D
EndChar

StartChar: uni091A
Encoding: 458 2330 458
GlifName: uni091A_
Width: 1024
VWidth: 0
GlyphClass: 2
Flags: W
AnchorPoint: "abvm_deva" 1311.09 1624 basechar 0
AnchorPoint: "blwm_deva" 722.596 -122 basechar 0
LayerCount: 2
Fore
SplineSet
563.426 1548 m 257
 491.724 1351 l 257
 1516.72 1351 l 257
 1588.43 1548 l 257
 563.426 1548 l 257
1201.25 1553 m 257
 636 0 l 257
 836 0 l 257
 1401.25 1553 l 257
 1201.25 1553 l 257
904.912 280 m 257
 977.706 480 l 257
 470.706 480 l 257
 397.912 280 l 257
 904.912 280 l 257
600.644 837 m 257
 449.231 421 l 257
 649.231 421 l 257
 800.644 837 l 257
 600.644 837 l 257
432.694 991 m 257
 359.9 791 l 257
 855.9 791 l 257
 928.694 991 l 257
 432.694 991 l 257
EndSplineSet
EndChar

StartChar: uni091A_uni0930_uni094D.vatu
Encoding: 459 -1 459
GlifName: uni091A__uni0930_uni094D_.vatu
Width: 1024
VWidth: 0
GlyphClass: 2
Flags: W
LayerCount: 2
Fore
SplineSet
129 0 m 257
 386 0 l 257
 804.254 215 l 257
 877.411 416 l 257
 129 0 l 257
566.338 1556 m 257
 493.544 1356 l 257
 1515.54 1356 l 257
 1588.34 1556 l 257
 566.338 1556 l 257
1201.25 1553 m 257
 636 0 l 257
 836 0 l 257
 1401.25 1553 l 257
 1201.25 1553 l 257
904.912 280 m 257
 977.706 480 l 257
 470.706 480 l 257
 397.912 280 l 257
 904.912 280 l 257
600.644 837 m 257
 449.231 421 l 257
 649.231 421 l 257
 800.644 837 l 257
 600.644 837 l 257
432.694 991 m 257
 359.9 791 l 257
 855.9 791 l 257
 928.694 991 l 257
 432.694 991 l 257
EndSplineSet
Ligature2: "rkrfRakarVariantsinDevanagari2lookup0 subtable" uni091A uni094D uni0930
EndChar

StartChar: uni091A_uni094D.half
Encoding: 460 -1 460
GlifName: uni091A__uni094D_.half
Width: 1024
VWidth: 0
GlyphClass: 3
Flags: W
LayerCount: 2
Fore
SplineSet
566.338 1556 m 257
 493.544 1356 l 257
 1515.54 1356 l 257
 1588.34 1556 l 257
 566.338 1556 l 257
1154.91 280 m 257
 1227.71 480 l 257
 470.706 480 l 257
 397.912 280 l 257
 1154.91 280 l 257
600.644 837 m 257
 449.231 421 l 257
 649.231 421 l 257
 800.644 837 l 257
 600.644 837 l 257
432.694 991 m 257
 359.9 791 l 257
 855.9 791 l 257
 928.694 991 l 257
 432.694 991 l 257
EndSplineSet
Ligature2: "halfHalfFormsinDevanagari2lookup0 subtable" uni091A uni094D
EndChar

StartChar: uni091A_uni094D.haln
Encoding: 461 -1 461
GlifName: uni091A__uni094D_.haln
Width: 1024
VWidth: 0
GlyphClass: 3
Flags: W
LayerCount: 2
Fore
SplineSet
565.183 1548 m 257
 491.252 1351 l 257
 1516.25 1351 l 257
 1590.19 1548 l 257
 565.183 1548 l 257
1203.06 1553 m 257
 620.24 0 l 257
 820.24 0 l 257
 1403.06 1553 l 257
 1203.06 1553 l 257
892.32 280 m 257
 967.378 480 l 257
 460.378 480 l 257
 385.32 280 l 257
 892.32 280 l 257
594.354 837 m 257
 438.235 421 l 257
 638.235 421 l 257
 794.354 837 l 257
 594.354 837 l 257
428.148 991 m 257
 353.091 791 l 257
 849.091 791 l 257
 924.148 991 l 257
 428.148 991 l 257
806.669 -22 m 257
 733.112 -218 l 257
 1090.11 -218 l 257
 1163.67 -22 l 257
 806.669 -22 l 257
962.243 -183 m 257
 1147.26 -588 l 257
 1352.43 -425 l 257
 1166.05 -21 l 257
 962.243 -183 l 257
EndSplineSet
Ligature2: "halnHalantFormsinDevanagari2lookup0 subtable" uni091A uni094D
EndChar

StartChar: uni091B
Encoding: 462 2331 462
GlifName: uni091B_
Width: 1024
VWidth: 0
GlyphClass: 2
Flags: W
AnchorPoint: "abvm_deva" 1182.35 1600 basechar 0
AnchorPoint: "blwm_deva" 635.353 -32 basechar 0
LayerCount: 2
Fore
SplineSet
563.426 1548 m 257
 491.359 1350 l 257
 1517.36 1350 l 257
 1589.43 1548 l 257
 563.426 1548 l 257
844.286 1130 m 257
 503.286 1130 l 257
 430.856 931 l 257
 771.856 931 l 257
 844.286 1130 l 257
500.286 1130 m 257
 301.559 584 l 257
 501.559 584 l 257
 700.286 1130 l 257
 500.286 1130 l 257
399.577 639 m 257
 326.783 439 l 257
 576.783 439 l 257
 649.577 639 l 257
 399.577 639 l 257
263.438 493 m 257
 84 0 l 257
 284 0 l 257
 463.438 493 l 257
 263.438 493 l 257
156.43 199 m 257
 84 0 l 257
 719 0 l 257
 791.43 199 l 257
 156.43 199 l 257
520.184 6 m 257
 721.184 6 l 257
 1270.42 1515 l 257
 1069.42 1515 l 257
 520.184 6 l 257
1025.52 1007 m 257
 953.088 808 l 257
 1291.09 808 l 257
 1363.52 1007 l 257
 1025.52 1007 l 257
1111.93 868 m 257
 967.43 471 l 257
 1168.43 471 l 257
 1312.93 868 l 257
 1111.93 868 l 257
EndSplineSet
EndChar

StartChar: uni091B_uni0930_uni094D.vatu
Encoding: 463 -1 463
GlifName: uni091B__uni0930_uni094D_.vatu
Width: 1024
VWidth: 0
GlyphClass: 3
Flags: W
LayerCount: 2
Fore
SplineSet
100 0 m 257
 357 0 l 257
 775.254 215 l 257
 848.411 416 l 257
 100 0 l 257
559.974 1555 m 257
 487.18 1355 l 257
 1509.18 1355 l 257
 1581.97 1555 l 257
 559.974 1555 l 257
871.948 1206 m 257
 530.948 1206 l 257
 458.518 1007 l 257
 799.518 1007 l 257
 871.948 1206 l 257
527.948 1206 m 257
 360.521 746 l 257
 560.521 746 l 257
 727.948 1206 l 257
 527.948 1206 l 257
458.54 801 m 257
 385.746 601 l 257
 635.746 601 l 257
 708.54 801 l 257
 458.54 801 l 257
322.4 655 m 257
 169.169 234 l 257
 369.169 234 l 257
 522.4 655 l 257
 322.4 655 l 257
241.599 433 m 257
 169.169 234 l 257
 804.169 234 l 257
 876.599 433 l 257
 241.599 433 l 257
518 0 m 257
 719 0 l 257
 1245.3 1446 l 257
 1044.3 1446 l 257
 518 0 l 257
1025.52 1007 m 257
 953.088 808 l 257
 1291.09 808 l 257
 1363.52 1007 l 257
 1025.52 1007 l 257
1111.93 868 m 257
 967.43 471 l 257
 1168.43 471 l 257
 1312.93 868 l 257
 1111.93 868 l 257
EndSplineSet
Ligature2: "rkrfRakarVariantsinDevanagari2lookup0 subtable" uni091B uni094D uni0930
EndChar

StartChar: uni091B_uni094D.half
Encoding: 464 -1 464
GlifName: uni091B__uni094D_.half
Width: 1024
VWidth: 0
GlyphClass: 3
Flags: W
LayerCount: 2
Fore
SplineSet
559.974 1555 m 257
 487.18 1355 l 257
 1509.18 1355 l 257
 1581.97 1555 l 257
 559.974 1555 l 257
1094.29 1130 m 257
 753.286 1130 l 257
 680.856 931 l 257
 1021.86 931 l 257
 1094.29 1130 l 257
750.286 1130 m 257
 551.559 584 l 257
 751.559 584 l 257
 950.286 1130 l 257
 750.286 1130 l 257
649.577 639 m 257
 576.783 439 l 257
 826.783 439 l 257
 899.577 639 l 257
 649.577 639 l 257
513.438 493 m 257
 334 0 l 257
 534 0 l 257
 713.438 493 l 257
 513.438 493 l 257
406.43 199 m 257
 334 0 l 257
 1019 0 l 257
 1091.43 199 l 257
 406.43 199 l 257
EndSplineSet
Ligature2: "halfHalfFormsinDevanagari2lookup0 subtable" uni091B uni094D
EndChar

StartChar: uni091B_uni094D.haln
Encoding: 465 -1 465
GlifName: uni091B__uni094D_.haln
Width: 1024
VWidth: 0
GlyphClass: 3
Flags: W
LayerCount: 2
Fore
SplineSet
564.947 1548 m 257
 490.641 1350 l 257
 1516.64 1350 l 257
 1590.95 1548 l 257
 564.947 1548 l 257
841.078 1130 m 257
 500.078 1130 l 257
 425.396 931 l 257
 766.396 931 l 257
 841.078 1130 l 257
497.078 1130 m 257
 292.172 584 l 257
 492.172 584 l 257
 697.078 1130 l 257
 497.078 1130 l 257
390.812 639 m 257
 315.755 439 l 257
 565.755 439 l 257
 640.812 639 l 257
 390.812 639 l 257
253.02 493 m 257
 68.0039 0 l 257
 268.004 0 l 257
 453.02 493 l 257
 253.02 493 l 257
142.686 199 m 257
 68.0039 0 l 257
 703.004 0 l 257
 777.687 199 l 257
 142.686 199 l 257
504.256 6 m 257
 705.256 6 l 257
 1271.56 1515 l 257
 1070.56 1515 l 257
 504.256 6 l 257
1020.92 1007 m 257
 946.235 808 l 257
 1284.24 808 l 257
 1358.92 1007 l 257
 1020.92 1007 l 257
1105.75 868 m 257
 956.764 471 l 257
 1157.76 471 l 257
 1306.75 868 l 257
 1105.75 868 l 257
248.075 -13 m 257
 174.521 -209 l 257
 531.521 -209 l 257
 605.075 -13 l 257
 248.075 -13 l 257
403.655 -174 m 257
 588.664 -579 l 257
 793.834 -416 l 257
 607.451 -12 l 257
 403.655 -174 l 257
EndSplineSet
Ligature2: "halnHalantFormsinDevanagari2lookup0 subtable" uni091B uni094D
EndChar

StartChar: uni091C
Encoding: 466 2332 466
GlifName: uni091C_
Width: 1024
VWidth: 0
GlyphClass: 2
Flags: W
AnchorPoint: "abvm_deva" 1342.17 1594 basechar 0
AnchorPoint: "blwm_deva" 718.228 -134 basechar 0
LayerCount: 2
Fore
SplineSet
563.426 1548 m 257
 490.632 1348 l 257
 1516.63 1348 l 257
 1589.43 1548 l 257
 563.426 1548 l 257
1241.43 1548 m 257
 673.633 -12 l 257
 872.633 -12 l 257
 1440.43 1548 l 257
 1241.43 1548 l 257
710.015 860 m 257
 638.312 663 l 257
 1052.31 663 l 257
 1124.01 860 l 257
 710.015 860 l 257
664.015 860 m 257
 501.319 413 l 257
 701.319 413 l 257
 864.015 860 l 257
 664.015 860 l 257
247.371 567 m 257
 174.577 367 l 257
 684.577 367 l 257
 757.371 567 l 257
 247.371 567 l 257
305.606 727 m 257
 226.261 509 l 257
 426.261 509 l 257
 505.606 727 l 257
 305.606 727 l 257
EndSplineSet
EndChar

StartChar: uni091C_uni0930_uni094D.vatu
Encoding: 467 -1 467
GlifName: uni091C__uni0930_uni094D_.vatu
Width: 1024
VWidth: 0
GlyphClass: 2
Flags: W
LayerCount: 2
Fore
SplineSet
129 0 m 257
 386 0 l 257
 804.254 215 l 257
 877.411 416 l 257
 129 0 l 257
529.426 1548 m 257
 457.359 1350 l 257
 1515.36 1350 l 257
 1587.43 1548 l 257
 529.426 1548 l 257
1241.43 1548 m 257
 673.633 -12 l 257
 872.633 -12 l 257
 1440.43 1548 l 257
 1241.43 1548 l 257
710.015 860 m 257
 638.312 663 l 257
 1052.31 663 l 257
 1124.01 860 l 257
 710.015 860 l 257
664.015 860 m 257
 501.319 413 l 257
 701.319 413 l 257
 864.015 860 l 257
 664.015 860 l 257
247.371 567 m 257
 174.577 367 l 257
 684.577 367 l 257
 757.371 567 l 257
 247.371 567 l 257
305.606 727 m 257
 226.261 509 l 257
 426.261 509 l 257
 505.606 727 l 257
 305.606 727 l 257
EndSplineSet
Ligature2: "rkrfRakarVariantsinDevanagari2lookup0 subtable" uni091C uni094D uni0930
EndChar

StartChar: uni091C_uni094D.half
Encoding: 468 -1 468
GlifName: uni091C__uni094D_.half
Width: 1024
VWidth: 0
GlyphClass: 3
Flags: W
LayerCount: 2
Fore
SplineSet
529.426 1548 m 257
 457.359 1350 l 257
 1515.36 1350 l 257
 1587.43 1548 l 257
 529.426 1548 l 257
860.015 860 m 257
 788.312 663 l 257
 1302.31 663 l 257
 1374.01 860 l 257
 860.015 860 l 257
814.015 860 m 257
 651.319 413 l 257
 851.319 413 l 257
 1014.01 860 l 257
 814.015 860 l 257
397.371 567 m 257
 324.577 367 l 257
 834.577 367 l 257
 907.371 567 l 257
 397.371 567 l 257
455.606 727 m 257
 376.261 509 l 257
 576.261 509 l 257
 655.606 727 l 257
 455.606 727 l 257
EndSplineSet
Ligature2: "halfHalfFormsinDevanagari2lookup0 subtable" uni091C uni094D
EndChar

StartChar: uni091C_uni094D.haln
Encoding: 469 -1 469
GlifName: uni091C__uni094D_.haln
Width: 1024
VWidth: 0
GlyphClass: 3
Flags: W
LayerCount: 2
Fore
SplineSet
565.076 1548 m 257
 490.021 1348 l 257
 1516.02 1348 l 257
 1591.08 1548 l 257
 565.076 1548 l 257
1243.08 1548 m 257
 657.629 -12 l 257
 856.629 -12 l 257
 1442.08 1548 l 257
 1243.08 1548 l 257
703.88 860 m 257
 629.947 663 l 257
 1043.95 663 l 257
 1117.88 860 l 257
 703.88 860 l 257
657.88 860 m 257
 490.128 413 l 257
 690.128 413 l 257
 857.88 860 l 257
 657.88 860 l 257
237.92 567 m 257
 162.864 367 l 257
 672.864 367 l 257
 747.92 567 l 257
 237.92 567 l 257
297.968 727 m 257
 216.155 509 l 257
 416.156 509 l 257
 497.968 727 l 257
 297.968 727 l 257
528.396 -22 m 257
 454.841 -218 l 257
 811.841 -218 l 257
 885.396 -22 l 257
 528.396 -22 l 257
683.975 -183 m 257
 868.985 -588 l 257
 1074.15 -425 l 257
 887.771 -21 l 257
 683.975 -183 l 257
EndSplineSet
Ligature2: "halnHalantFormsinDevanagari2lookup0 subtable" uni091C uni094D
EndChar

StartChar: uni091C_uni094D_uni091E.akhn
Encoding: 470 -1 470
GlifName: uni091C__uni094D__uni091E_.akhn
Width: 1024
VWidth: 0
GlyphClass: 3
Flags: W
LayerCount: 2
Fore
SplineSet
529.426 1548 m 257
 457.359 1350 l 257
 1515.36 1350 l 257
 1587.43 1548 l 257
 529.426 1548 l 257
1241.43 1548 m 257
 673.633 -12 l 257
 872.633 -12 l 257
 1440.43 1548 l 257
 1241.43 1548 l 257
710.015 860 m 257
 638.312 663 l 257
 1052.31 663 l 257
 1124.01 860 l 257
 710.015 860 l 257
664.015 860 m 257
 501.319 413 l 257
 701.319 413 l 257
 864.015 860 l 257
 664.015 860 l 257
247.371 567 m 257
 174.577 367 l 257
 684.577 367 l 257
 757.371 567 l 257
 247.371 567 l 257
174.941 368 m 257
 216.298 75 l 257
 474.298 75 l 257
 417.941 368 l 257
 174.941 368 l 257
EndSplineSet
Ligature2: "akhnAkhandinDevanagari2lookup0 subtable" uni091C uni094D uni091E
EndChar

StartChar: uni091C_uni094D_uni091E.half
Encoding: 471 -1 471
GlifName: uni091C__uni094D__uni091E_.half
Width: 1024
VWidth: 0
GlyphClass: 3
Flags: W
LayerCount: 2
Fore
SplineSet
529.426 1548 m 257
 457.359 1350 l 257
 1515.36 1350 l 257
 1587.43 1548 l 257
 529.426 1548 l 257
906.015 860 m 257
 834.312 663 l 257
 1248.31 663 l 257
 1320.01 860 l 257
 906.015 860 l 257
860.015 860 m 257
 697.319 413 l 257
 897.319 413 l 257
 1060.01 860 l 257
 860.015 860 l 257
443.371 567 m 257
 370.577 367 l 257
 880.577 367 l 257
 953.371 567 l 257
 443.371 567 l 257
370.941 368 m 257
 412.298 75 l 257
 670.298 75 l 257
 613.941 368 l 257
 370.941 368 l 257
EndSplineSet
Ligature2: "halfHalfFormsinDevanagari2lookup0 subtable" uni091C_uni094D_uni091E.akhn uni094D
EndChar

StartChar: uni091C_uni094D_uni091E_uni094D
Encoding: 472 -1 472
GlifName: uni091C__uni094D__uni091E__uni094D_
Width: 1024
VWidth: 0
GlyphClass: 2
Flags: W
LayerCount: 2
Fore
SplineSet
552.356 1548 m 257
 478.05 1350 l 257
 1536.05 1350 l 257
 1610.36 1548 l 257
 552.356 1548 l 257
1264.36 1548 m 257
 678.909 -12 l 257
 877.909 -12 l 257
 1463.36 1548 l 257
 1264.36 1548 l 257
725.16 860 m 257
 651.228 663 l 257
 1065.23 663 l 257
 1139.16 860 l 257
 725.16 860 l 257
679.16 860 m 257
 511.406 413 l 257
 711.406 413 l 257
 879.16 860 l 257
 679.16 860 l 257
259.2 567 m 257
 184.145 367 l 257
 694.145 367 l 257
 769.2 567 l 257
 259.2 567 l 257
184.519 368 m 257
 222.561 75 l 257
 480.561 75 l 257
 427.518 368 l 257
 184.519 368 l 257
640.678 -22 m 257
 567.121 -218 l 257
 924.124 -218 l 257
 997.673 -22 l 257
 640.678 -22 l 257
796.256 -183 m 257
 981.266 -588 l 257
 1186.43 -425 l 257
 1000.06 -21 l 257
 796.256 -183 l 257
EndSplineSet
Ligature2: "halnHalantFormsinDevanagari2lookup0 subtable" uni091C_uni094D_uni091E.akhn uni094D
EndChar

StartChar: uni091D
Encoding: 473 2333 473
GlifName: uni091D_
Width: 1024
VWidth: 0
GlyphClass: 2
Flags: W
AnchorPoint: "abvm_deva" 1342.17 1594 basechar 0
AnchorPoint: "blwm_deva" 789.621 -45 basechar 0
LayerCount: 2
Fore
SplineSet
563.426 1548 m 257
 490.996 1349 l 257
 1517 1349 l 257
 1589.43 1548 l 257
 563.426 1548 l 257
1242.43 1548 m 257
 679 0 l 257
 880 0 l 257
 1443.43 1548 l 257
 1242.43 1548 l 257
1006.42 1537 m 257
 819.342 1023 l 257
 1018.34 1023 l 257
 1205.42 1537 l 257
 1006.42 1537 l 257
570.136 1223 m 257
 497.342 1023 l 257
 1018.34 1023 l 257
 1091.14 1223 l 257
 570.136 1223 l 257
519.907 1085 m 257
 361.944 651 l 257
 561.944 651 l 257
 719.907 1085 l 257
 519.907 1085 l 257
429.644 837 m 257
 357.213 638 l 257
 1106.21 638 l 257
 1178.64 837 l 257
 429.644 837 l 257
669.504 691 m 257
 420.548 7 l 257
 620.548 7 l 257
 869.504 691 l 257
 669.504 691 l 257
197.794 200 m 257
 125 0 l 257
 618 0 l 257
 690.794 200 l 257
 197.794 200 l 257
147.93 63 m 257
 71.1328 -148 l 257
 271.133 -148 l 257
 347.93 63 l 257
 147.93 63 l 257
EndSplineSet
EndChar

StartChar: uni091D_uni0930_uni094D.vatu
Encoding: 474 -1 474
GlifName: uni091D__uni0930_uni094D_.vatu
Width: 1024
VWidth: 0
GlyphClass: 3
Flags: W
LayerCount: 2
Fore
SplineSet
391 0 m 257
 557 0 l 257
 868.254 215 l 257
 968.346 490 l 257
 391 0 l 257
545.426 1548 m 257
 472.996 1349 l 257
 1514 1349 l 257
 1586.43 1548 l 257
 545.426 1548 l 257
1299.42 1537 m 257
 738.18 -5 l 257
 939.18 -5 l 257
 1500.42 1537 l 257
 1299.42 1537 l 257
1006.42 1537 m 257
 819.342 1023 l 257
 1018.34 1023 l 257
 1205.42 1537 l 257
 1006.42 1537 l 257
570.136 1223 m 257
 497.342 1023 l 257
 1018.34 1023 l 257
 1091.14 1223 l 257
 570.136 1223 l 257
485.315 1218 m 257
 278.944 651 l 257
 478.944 651 l 257
 685.315 1218 l 257
 485.315 1218 l 257
434.011 849 m 257
 361.581 650 l 257
 1110.58 650 l 257
 1183.01 849 l 257
 434.011 849 l 257
472.504 691 m 257
 274.504 147 l 257
 474.504 147 l 257
 672.504 691 l 257
 472.504 691 l 257
145.39 350 m 257
 71.5039 147 l 257
 453.504 147 l 257
 527.39 350 l 257
 145.39 350 l 257
94.4336 210 m 257
 18 0 l 257
 218 0 l 257
 294.434 210 l 257
 94.4336 210 l 257
EndSplineSet
Ligature2: "rkrfRakarVariantsinDevanagari2lookup0 subtable" uni091D uni094D uni0930
EndChar

StartChar: uni091D_uni094D.half
Encoding: 475 -1 475
GlifName: uni091D__uni094D_.half
Width: 1024
VWidth: 0
GlyphClass: 3
Flags: W
LayerCount: 2
Fore
SplineSet
545.426 1548 m 257
 472.996 1349 l 257
 1514 1349 l 257
 1586.43 1548 l 257
 545.426 1548 l 257
1006.42 1537 m 257
 819.342 1023 l 257
 1018.34 1023 l 257
 1205.42 1537 l 257
 1006.42 1537 l 257
570.136 1223 m 257
 497.342 1023 l 257
 1018.34 1023 l 257
 1091.14 1223 l 257
 570.136 1223 l 257
519.907 1085 m 257
 361.944 651 l 257
 561.944 651 l 257
 719.907 1085 l 257
 519.907 1085 l 257
429.644 837 m 257
 357.213 638 l 257
 1306.21 638 l 257
 1378.64 837 l 257
 429.644 837 l 257
669.504 691 m 257
 420.548 7 l 257
 620.548 7 l 257
 869.504 691 l 257
 669.504 691 l 257
198.886 203 m 257
 125 0 l 257
 618 0 l 257
 691.886 203 l 257
 198.886 203 l 257
147.93 63 m 257
 71.1328 -148 l 257
 271.133 -148 l 257
 347.93 63 l 257
 147.93 63 l 257
EndSplineSet
Ligature2: "halfHalfFormsinDevanagari2lookup0 subtable" uni091D uni094D
EndChar

StartChar: uni091D_uni094D.haln
Encoding: 476 -1 476
GlifName: uni091D__uni094D_.haln
Width: 1024
VWidth: 0
GlyphClass: 3
Flags: W
LayerCount: 2
Fore
SplineSet
565.521 1548 m 257
 490.84 1349 l 257
 1516.84 1349 l 257
 1591.53 1548 l 257
 565.521 1548 l 257
1244.52 1548 m 257
 663.579 0 l 257
 864.579 0 l 257
 1445.52 1548 l 257
 1244.52 1548 l 257
1008.39 1537 m 257
 815.495 1023 l 257
 1014.5 1023 l 257
 1207.39 1537 l 257
 1008.39 1537 l 257
568.555 1223 m 257
 493.495 1023 l 257
 1014.5 1023 l 257
 1089.55 1223 l 257
 568.555 1223 l 257
516.764 1085 m 257
 353.89 651 l 257
 553.89 651 l 257
 716.764 1085 l 257
 516.764 1085 l 257
423.693 837 m 257
 349.011 638 l 257
 1098.01 638 l 257
 1172.69 837 l 257
 423.693 837 l 257
661.901 691 m 257
 405.206 7 l 257
 605.206 7 l 257
 861.901 691 l 257
 661.901 691 l 257
184.636 200 m 257
 109.579 0 l 257
 602.579 0 l 257
 677.636 200 l 257
 184.636 200 l 257
133.222 63 m 257
 54.0361 -148 l 257
 254.036 -148 l 257
 333.222 63 l 257
 133.222 63 l 257
375.116 -22 m 257
 301.562 -218 l 257
 658.562 -218 l 257
 732.116 -22 l 257
 375.116 -22 l 257
530.696 -183 m 257
 715.705 -588 l 257
 920.873 -425 l 257
 734.492 -21 l 257
 530.696 -183 l 257
EndSplineSet
Ligature2: "halnHalantFormsinDevanagari2lookup0 subtable" uni091D uni094D
EndChar

StartChar: uni091E
Encoding: 477 2334 477
GlifName: uni091E_
Width: 1024
VWidth: 0
GlyphClass: 2
Flags: W
AnchorPoint: "abvm_deva" 1416.35 1600 basechar 0
AnchorPoint: "blwm_deva" 829.621 -45 basechar 0
LayerCount: 2
Fore
SplineSet
563.426 1548 m 257
 490.632 1348 l 257
 1516.63 1348 l 257
 1589.43 1548 l 257
 563.426 1548 l 257
1294.42 1537 m 257
 732.088 -8 l 257
 932.088 -8 l 257
 1494.42 1537 l 257
 1294.42 1537 l 257
733.246 737 m 257
 660.452 537 l 257
 1027.45 537 l 257
 1100.25 737 l 257
 733.246 737 l 257
433.411 960 m 257
 360.617 760 l 257
 718.617 760 l 257
 791.411 960 l 257
 433.411 960 l 257
760.411 960 m 257
 526.015 316 l 257
 726.015 316 l 257
 960.411 960 l 257
 760.411 960 l 257
228.427 460 m 257
 155.632 260 l 257
 705.632 260 l 257
 778.427 460 l 257
 228.427 460 l 257
EndSplineSet
EndChar

StartChar: uni091E_uni0930_uni094D.vatu
Encoding: 478 -1 478
GlifName: uni091E__uni0930_uni094D_.vatu
Width: 1024
VWidth: 0
GlyphClass: 3
Flags: W
LayerCount: 2
Fore
SplineSet
168 0 m 257
 425 0 l 257
 831.242 182 l 257
 904.4 383 l 257
 168 0 l 257
558.426 1548 m 257
 485.632 1348 l 257
 1519.63 1348 l 257
 1592.43 1548 l 257
 558.426 1548 l 257
1294.42 1537 m 257
 732.088 -8 l 257
 932.088 -8 l 257
 1494.42 1537 l 257
 1294.42 1537 l 257
733.246 737 m 257
 660.452 537 l 257
 1027.45 537 l 257
 1100.25 737 l 257
 733.246 737 l 257
433.411 960 m 257
 360.617 760 l 257
 718.617 760 l 257
 791.411 960 l 257
 433.411 960 l 257
760.411 960 m 257
 526.015 316 l 257
 726.015 316 l 257
 960.411 960 l 257
 760.411 960 l 257
246.625 510 m 257
 173.831 310 l 257
 723.831 310 l 257
 796.625 510 l 257
 246.625 510 l 257
EndSplineSet
Ligature2: "rkrfRakarVariantsinDevanagari2lookup0 subtable" uni091E uni094D uni0930
EndChar

StartChar: uni091E_uni094D.half
Encoding: 479 -1 479
GlifName: uni091E__uni094D_.half
Width: 1024
VWidth: 0
GlyphClass: 3
Flags: W
LayerCount: 2
Fore
SplineSet
558.426 1548 m 257
 485.632 1348 l 257
 1519.63 1348 l 257
 1592.43 1548 l 257
 558.426 1548 l 257
933.246 737 m 257
 860.452 537 l 257
 1227.45 537 l 257
 1300.25 737 l 257
 933.246 737 l 257
633.411 960 m 257
 560.617 760 l 257
 918.617 760 l 257
 991.411 960 l 257
 633.411 960 l 257
960.411 960 m 257
 726.015 316 l 257
 926.015 316 l 257
 1160.41 960 l 257
 960.411 960 l 257
428.427 460 m 257
 355.632 260 l 257
 905.632 260 l 257
 978.427 460 l 257
 428.427 460 l 257
EndSplineSet
Ligature2: "halfHalfFormsinDevanagari2lookup0 subtable" uni091E uni094D
EndChar

StartChar: uni091E_uni094D.haln
Encoding: 480 -1 480
GlifName: uni091E__uni094D_.haln
Width: 1024
VWidth: 0
GlyphClass: 3
Flags: W
LayerCount: 2
Fore
SplineSet
565.021 1548 m 257
 489.966 1348 l 257
 1515.96 1348 l 257
 1591.03 1548 l 257
 565.021 1548 l 257
1295.89 1537 m 257
 716.075 -8 l 257
 916.075 -8 l 257
 1495.89 1537 l 257
 1295.89 1537 l 257
725.665 737 m 257
 650.608 537 l 257
 1017.61 537 l 257
 1092.67 737 l 257
 725.665 737 l 257
428.354 960 m 257
 353.296 760 l 257
 711.296 760 l 257
 786.354 960 l 257
 428.354 960 l 257
755.354 960 m 257
 513.67 316 l 257
 713.67 316 l 257
 955.354 960 l 257
 755.354 960 l 257
217.712 460 m 257
 142.654 260 l 257
 692.654 260 l 257
 767.711 460 l 257
 217.712 460 l 257
499.866 -22 m 257
 426.312 -218 l 257
 783.312 -218 l 257
 856.866 -22 l 257
 499.866 -22 l 257
655.446 -183 m 257
 840.455 -588 l 257
 1045.62 -425 l 257
 859.242 -21 l 257
 655.446 -183 l 257
EndSplineSet
Ligature2: "halnHalantFormsinDevanagari2lookup0 subtable" uni091E uni094D
EndChar

StartChar: uni091F
Encoding: 481 2335 481
GlifName: uni091F_
Width: 1024
VWidth: 0
GlyphClass: 2
Flags: W
AnchorPoint: "abvm_deva" 1235.8 1582 basechar 0
AnchorPoint: "blwm_deva" 503.621 -45 basechar 0
LayerCount: 2
Fore
SplineSet
573.426 1548 m 257
 500.996 1349 l 257
 1515 1349 l 257
 1587.43 1548 l 257
 573.426 1548 l 257
1125.15 1528 m 257
 928.603 988 l 257
 1128.6 988 l 257
 1325.15 1528 l 257
 1125.15 1528 l 257
1141.34 1023 m 257
 492.342 1023 l 257
 419.184 822 l 257
 1068.18 822 l 257
 1141.34 1023 l 257
471.342 1023 m 257
 100.82 5 l 257
 300.82 5 l 257
 671.342 1023 l 257
 471.342 1023 l 257
172.158 201 m 257
 99 0 l 257
 812 0 l 257
 885.158 201 l 257
 172.158 201 l 257
EndSplineSet
EndChar

StartChar: uni091F_uni0930_uni094D.vatu
Encoding: 482 -1 482
GlifName: uni091F__uni0930_uni094D_.vatu
Width: 1024
VWidth: 0
GlyphClass: 3
Flags: W
LayerCount: 2
Fore
SplineSet
488.525 213 m 257
 574.217 -167 l 257
 856.217 -167 l 257
 672.037 382 l 257
 488.525 213 l 257
672.037 382 m 257
 61.9414 -176 l 257
 282.941 -176 l 257
 726.981 217 l 257
 672.037 382 l 257
563.426 1548 m 257
 490.632 1348 l 257
 1516.63 1348 l 257
 1589.43 1548 l 257
 563.426 1548 l 257
1115.15 1528 m 257
 946.265 1064 l 257
 1146.26 1064 l 257
 1315.15 1528 l 257
 1115.15 1528 l 257
1159 1099 m 257
 510.003 1099 l 257
 436.846 898 l 257
 1085.85 898 l 257
 1159 1099 l 257
489.367 1100 m 257
 236.408 405 l 257
 436.408 405 l 257
 689.367 1100 l 257
 489.367 1100 l 257
307.746 601 m 257
 234.588 400 l 257
 947.588 400 l 257
 1020.75 601 l 257
 307.746 601 l 257
EndSplineSet
Ligature2: "rkrfRakarVariantsinDevanagari2lookup0 subtable" uni091F uni094D uni0930
EndChar

StartChar: uni091F_uni094D.haln
Encoding: 483 -1 483
GlifName: uni091F__uni094D_.haln
Width: 1024
VWidth: 0
GlyphClass: 3
Flags: W
LayerCount: 2
Fore
SplineSet
565.654 1548 m 257
 490.973 1349 l 257
 1504.98 1349 l 257
 1579.66 1548 l 257
 565.654 1548 l 257
1117.15 1528 m 257
 914.494 988 l 257
 1114.49 988 l 257
 1317.15 1528 l 257
 1117.15 1528 l 257
1127.63 1023 m 257
 478.629 1023 l 257
 403.197 822 l 257
 1052.2 822 l 257
 1127.63 1023 l 257
457.629 1023 m 257
 75.5879 5 l 257
 275.588 5 l 257
 657.629 1023 l 257
 457.629 1023 l 257
149.145 201 m 257
 73.7109 0 l 257
 786.711 0 l 257
 862.144 201 l 257
 149.145 201 l 257
407.187 -22 m 257
 333.632 -218 l 257
 690.632 -218 l 257
 764.187 -22 l 257
 407.187 -22 l 257
562.766 -183 m 257
 747.775 -588 l 257
 952.942 -425 l 257
 766.562 -21 l 257
 562.766 -183 l 257
EndSplineSet
Ligature2: "halnHalantFormsinDevanagari2lookup0 subtable" uni091F uni094D
EndChar

StartChar: uni0920
Encoding: 484 2336 484
GlifName: uni0920
Width: 1024
VWidth: 0
GlyphClass: 2
Flags: W
AnchorPoint: "abvm_deva" 1132.17 1594 basechar 0
AnchorPoint: "blwm_deva" 496.342 -65 basechar 0
LayerCount: 2
Fore
SplineSet
563.426 1548 m 257
 490.996 1349 l 257
 1516 1349 l 257
 1588.43 1548 l 257
 563.426 1548 l 257
951.132 1484 m 257
 783.342 1023 l 257
 983.342 1023 l 257
 1151.13 1484 l 257
 951.132 1484 l 257
461.709 1035 m 257
 388.551 834 l 257
 1266.55 834 l 257
 1339.71 1035 l 257
 461.709 1035 l 257
448.709 1035 m 257
 76.7314 13 l 257
 276.731 13 l 257
 648.709 1035 l 257
 448.709 1035 l 257
1139.71 1035 m 257
 763 0 l 257
 963 0 l 257
 1339.71 1035 l 257
 1139.71 1035 l 257
145.066 198 m 257
 73 0 l 257
 943 0 l 257
 1015.07 198 l 257
 145.066 198 l 257
EndSplineSet
EndChar

StartChar: uni0920_uni0930_uni094D.vatu
Encoding: 485 -1 485
GlifName: uni0920_uni0930_uni094D_.vatu
Width: 1024
VWidth: 0
GlyphClass: 3
Flags: W
LayerCount: 2
Fore
SplineSet
513.617 216 m 257
 599.309 -164 l 257
 881.309 -164 l 257
 697.129 385 l 257
 513.617 216 l 257
697.129 385 m 257
 87.0332 -173 l 257
 308.033 -173 l 257
 752.073 220 l 257
 697.129 385 l 257
563.426 1548 m 257
 491.359 1350 l 257
 1517.36 1350 l 257
 1589.43 1548 l 257
 563.426 1548 l 257
997.132 1484 m 257
 829.342 1023 l 257
 1029.34 1023 l 257
 1197.13 1484 l 257
 997.132 1484 l 257
461.709 1035 m 257
 388.551 834 l 257
 1266.55 834 l 257
 1339.71 1035 l 257
 461.709 1035 l 257
448.709 1035 m 257
 222.319 413 l 257
 422.319 413 l 257
 648.709 1035 l 257
 448.709 1035 l 257
1139.71 1035 m 257
 907.86 398 l 257
 1107.86 398 l 257
 1339.71 1035 l 257
 1139.71 1035 l 257
290.654 598 m 257
 217.496 397 l 257
 1087.5 397 l 257
 1160.65 598 l 257
 290.654 598 l 257
EndSplineSet
Ligature2: "rkrfRakarVariantsinDevanagari2lookup0 subtable" uni0920 uni094D uni0930
EndChar

StartChar: uni0920_uni094D.haln
Encoding: 486 -1 486
GlifName: uni0920_uni094D_.haln
Width: 1024
VWidth: 0
GlyphClass: 3
Flags: W
LayerCount: 2
Fore
SplineSet
568.154 1548 m 257
 493.473 1349 l 257
 1518.48 1349 l 257
 1593.16 1548 l 257
 568.154 1548 l 257
955.136 1484 m 257
 782.129 1023 l 257
 982.129 1023 l 257
 1155.14 1484 l 257
 955.136 1484 l 257
460.633 1035 m 257
 385.199 834 l 257
 1263.2 834 l 257
 1338.63 1035 l 257
 460.633 1035 l 257
447.633 1035 m 257
 64.0898 13 l 257
 264.09 13 l 257
 647.633 1035 l 257
 447.633 1035 l 257
1138.63 1035 m 257
 750.211 0 l 257
 950.211 0 l 257
 1338.63 1035 l 257
 1138.63 1035 l 257
134.518 198 m 257
 60.2109 0 l 257
 930.211 0 l 257
 1004.52 198 l 257
 134.518 198 l 257
380.187 -22 m 257
 306.632 -218 l 257
 663.632 -218 l 257
 737.187 -22 l 257
 380.187 -22 l 257
535.766 -183 m 257
 720.775 -588 l 257
 925.942 -425 l 257
 739.562 -21 l 257
 535.766 -183 l 257
EndSplineSet
Ligature2: "halnHalantFormsinDevanagari2lookup0 subtable" uni0920 uni094D
EndChar

StartChar: uni0921
Encoding: 487 2337 487
GlifName: uni0921
Width: 1024
VWidth: 0
GlyphClass: 2
Flags: W
AnchorPoint: "abvm_deva" 1448.54 1606 basechar 0
AnchorPoint: "blwm_deva" 464.331 -98 basechar 0
LayerCount: 2
Fore
SplineSet
563.426 1548 m 257
 490.632 1348 l 257
 1516.63 1348 l 257
 1589.43 1548 l 257
 563.426 1548 l 257
765.805 1049 m 257
 616.213 638 l 257
 815.213 638 l 257
 964.805 1049 l 257
 765.805 1049 l 257
655.521 746 m 257
 579.816 538 l 257
 1122.82 538 l 257
 1198.52 746 l 257
 655.521 746 l 257
983.871 703 m 257
 729.82 5 l 257
 928.82 5 l 257
 1182.87 703 l 257
 983.871 703 l 257
134.794 200 m 257
 62 0 l 257
 927 0 l 257
 999.794 200 l 257
 134.794 200 l 257
182.475 331 m 257
 63.8203 5 l 257
 263.82 5 l 257
 382.475 331 l 257
 182.475 331 l 257
796.742 1134 m 257
 721.036 926 l 257
 1264.04 926 l 257
 1339.74 1134 l 257
 796.742 1134 l 257
1234.28 1391 m 257
 1084.69 980 l 257
 1283.69 980 l 257
 1433.28 1391 l 257
 1234.28 1391 l 257
EndSplineSet
EndChar

StartChar: uni0921_uni0930_uni094D.vatu
Encoding: 488 -1 488
GlifName: uni0921_uni0930_uni094D_.vatu
Width: 1024
VWidth: 0
GlyphClass: 3
Flags: W
LayerCount: 2
Fore
SplineSet
474.772 134 m 257
 600.136 -137 l 257
 882.136 -137 l 257
 640.812 255 l 257
 474.772 134 l 257
640.812 255 m 257
 88.9521 -143 l 257
 309.952 -143 l 257
 712.864 137 l 257
 640.812 255 l 257
563.426 1548 m 257
 490.632 1348 l 257
 1516.63 1348 l 257
 1589.43 1548 l 257
 563.426 1548 l 257
794.923 1129 m 257
 659.161 756 l 257
 858.161 756 l 257
 993.923 1129 l 257
 794.923 1129 l 257
698.471 864 m 257
 622.765 656 l 257
 1165.76 656 l 257
 1241.47 864 l 257
 698.471 864 l 257
1026.82 821 m 257
 820.448 254 l 257
 1019.45 254 l 257
 1225.82 821 l 257
 1026.82 821 l 257
225.423 449 m 257
 152.629 249 l 257
 1017.63 249 l 257
 1090.42 449 l 257
 225.423 449 l 257
273.103 580 m 257
 154.448 254 l 257
 354.448 254 l 257
 473.103 580 l 257
 273.103 580 l 257
825.86 1214 m 257
 750.154 1006 l 257
 1293.15 1006 l 257
 1368.86 1214 l 257
 825.86 1214 l 257
1234.28 1391 m 257
 1113.81 1060 l 257
 1312.81 1060 l 257
 1433.28 1391 l 257
 1234.28 1391 l 257
EndSplineSet
Ligature2: "rkrfRakarVariantsinDevanagari2lookup0 subtable" uni0921 uni094D uni0930
EndChar

StartChar: uni0921_uni094D.haln
Encoding: 489 -1 489
GlifName: uni0921_uni094D_.haln
Width: 1024
VWidth: 0
GlyphClass: 3
Flags: W
LayerCount: 2
Fore
SplineSet
565.154 1548 m 257
 490.098 1348 l 257
 1516.1 1348 l 257
 1591.16 1548 l 257
 565.154 1548 l 257
761.887 1049 m 257
 607.644 638 l 257
 806.644 638 l 257
 960.887 1049 l 257
 761.887 1049 l 257
648.174 746 m 257
 570.115 538 l 257
 1113.12 538 l 257
 1191.17 746 l 257
 648.174 746 l 257
976.037 703 m 257
 714.088 5 l 257
 913.088 5 l 257
 1175.04 703 l 257
 976.037 703 l 257
121.268 200 m 257
 46.2109 0 l 257
 911.211 0 l 257
 986.268 200 l 257
 121.268 200 l 257
170.431 331 m 257
 48.0879 5 l 257
 248.088 5 l 257
 370.431 331 l 257
 170.431 331 l 257
793.785 1134 m 257
 715.727 926 l 257
 1258.73 926 l 257
 1336.79 1134 l 257
 793.785 1134 l 257
1234.23 1391 m 257
 1079.99 980 l 257
 1278.99 980 l 257
 1433.23 1391 l 257
 1234.23 1391 l 257
360.187 -22 m 257
 286.632 -218 l 257
 643.632 -218 l 257
 717.187 -22 l 257
 360.187 -22 l 257
515.766 -183 m 257
 700.775 -588 l 257
 905.942 -425 l 257
 719.562 -21 l 257
 515.766 -183 l 257
EndSplineSet
Ligature2: "halnHalantFormsinDevanagari2lookup0 subtable" uni0921 uni094D
EndChar

StartChar: uni0922
Encoding: 490 2338 490
GlifName: uni0922
Width: 1024
VWidth: 0
GlyphClass: 2
Flags: W
AnchorPoint: "abvm_deva" 1273.98 1588 basechar 0
AnchorPoint: "blwm_deva" 501 -65 basechar 0
LayerCount: 2
Fore
SplineSet
563.426 1548 m 257
 490.632 1348 l 257
 1515.63 1348 l 257
 1588.43 1548 l 257
 563.426 1548 l 257
1125.15 1528 m 257
 928.603 988 l 257
 1128.6 988 l 257
 1325.15 1528 l 257
 1125.15 1528 l 257
1141.34 1023 m 257
 492.342 1023 l 257
 419.184 822 l 257
 1068.18 822 l 257
 1141.34 1023 l 257
471.342 1023 m 257
 100.82 5 l 257
 300.82 5 l 257
 671.342 1023 l 257
 471.342 1023 l 257
172.158 201 m 257
 99 0 l 257
 812 0 l 257
 885.158 201 l 257
 172.158 201 l 257
811 544 m 257
 613 0 l 257
 814 0 l 257
 1012 544 l 257
 811 544 l 257
759.092 547 m 257
 686.298 347 l 257
 938.298 347 l 257
 1011.09 547 l 257
 759.092 547 l 257
EndSplineSet
EndChar

StartChar: uni0922_uni0930_uni094D.vatu
Encoding: 491 -1 491
GlifName: uni0922_uni0930_uni094D_.vatu
Width: 1024
VWidth: 0
GlyphClass: 2
Flags: W
LayerCount: 2
Fore
SplineSet
509.713 230 m 257
 595.404 -150 l 257
 877.404 -150 l 257
 693.225 399 l 257
 509.713 230 l 257
693.225 399 m 257
 83.1289 -159 l 257
 304.129 -159 l 257
 748.169 234 l 257
 693.225 399 l 257
573.426 1548 m 257
 500.632 1348 l 257
 1514.63 1348 l 257
 1587.43 1548 l 257
 573.426 1548 l 257
1125.15 1528 m 257
 928.603 988 l 257
 1128.6 988 l 257
 1325.15 1528 l 257
 1125.15 1528 l 257
1194.48 1169 m 257
 545.481 1169 l 257
 472.323 968 l 257
 1121.32 968 l 257
 1194.48 1169 l 257
524.117 1168 m 257
 246.408 405 l 257
 446.408 405 l 257
 724.117 1168 l 257
 524.117 1168 l 257
317.746 601 m 257
 244.588 400 l 257
 957.588 400 l 257
 1030.75 601 l 257
 317.746 601 l 257
920.19 844 m 257
 757.86 398 l 257
 958.86 398 l 257
 1121.19 844 l 257
 920.19 844 l 257
868.283 847 m 257
 795.488 647 l 257
 1047.49 647 l 257
 1120.28 847 l 257
 868.283 847 l 257
EndSplineSet
Ligature2: "rkrfRakarVariantsinDevanagari2lookup0 subtable" uni0922 uni094D uni0930
EndChar

StartChar: uni0922_uni094D.haln
Encoding: 492 -1 492
GlifName: uni0922_uni094D_.haln
Width: 1024
VWidth: 0
GlyphClass: 3
Flags: W
LayerCount: 2
Fore
SplineSet
565.154 1548 m 257
 490.098 1348 l 257
 1515.1 1348 l 257
 1590.16 1548 l 257
 565.154 1548 l 257
1126.65 1528 m 257
 923.994 988 l 257
 1123.99 988 l 257
 1326.65 1528 l 257
 1126.65 1528 l 257
1137.13 1023 m 257
 488.129 1023 l 257
 412.697 822 l 257
 1061.7 822 l 257
 1137.13 1023 l 257
467.129 1023 m 257
 85.0879 5 l 257
 285.088 5 l 257
 667.129 1023 l 257
 467.129 1023 l 257
158.645 201 m 257
 83.2109 0 l 257
 796.211 0 l 257
 871.644 201 l 257
 158.645 201 l 257
801.367 544 m 257
 597.211 0 l 257
 798.211 0 l 257
 1002.37 544 l 257
 801.367 544 l 257
749.492 547 m 257
 674.436 347 l 257
 926.436 347 l 257
 1001.49 547 l 257
 749.492 547 l 257
416.187 -22 m 257
 342.632 -218 l 257
 699.632 -218 l 257
 773.187 -22 l 257
 416.187 -22 l 257
571.766 -183 m 257
 756.775 -588 l 257
 961.942 -425 l 257
 775.562 -21 l 257
 571.766 -183 l 257
EndSplineSet
Ligature2: "halnHalantFormsinDevanagari2lookup0 subtable" uni0922 uni094D
EndChar

StartChar: uni0923
Encoding: 493 2339 493
GlifName: uni0923
Width: 1024
VWidth: 0
GlyphClass: 2
Flags: W
AnchorPoint: "abvm_deva" 1423.98 1588 basechar 0
AnchorPoint: "blwm_deva" 871 -60 basechar 0
LayerCount: 2
Fore
SplineSet
563.426 1548 m 257
 490.632 1348 l 257
 1515.63 1348 l 257
 1588.43 1548 l 257
 563.426 1548 l 257
1277.87 1530 m 257
 721 0 l 257
 921 0 l 257
 1477.87 1530 l 257
 1277.87 1530 l 257
670.606 1543 m 257
 420.194 855 l 257
 620.194 855 l 257
 870.606 1543 l 257
 670.606 1543 l 257
1021.15 1528 m 257
 772.19 844 l 257
 972.19 844 l 257
 1221.15 1528 l 257
 1021.15 1528 l 257
481.342 1023 m 257
 409.275 825 l 257
 965.275 825 l 257
 1037.34 1023 l 257
 481.342 1023 l 257
EndSplineSet
EndChar

StartChar: uni0923_uni0930_uni094D.vatu
Encoding: 494 -1 494
GlifName: uni0923_uni0930_uni094D_.vatu
Width: 1024
VWidth: 0
GlyphClass: 2
Flags: W
LayerCount: 2
Fore
SplineSet
129 0 m 257
 386 0 l 257
 804.254 215 l 257
 877.411 416 l 257
 129 0 l 257
563.426 1548 m 257
 491.359 1350 l 257
 1520.36 1350 l 257
 1592.43 1548 l 257
 563.426 1548 l 257
1277.87 1530 m 257
 721 0 l 257
 921 0 l 257
 1477.87 1530 l 257
 1277.87 1530 l 257
670.606 1543 m 257
 420.194 855 l 257
 620.194 855 l 257
 870.606 1543 l 257
 670.606 1543 l 257
1021.15 1528 m 257
 772.19 844 l 257
 972.19 844 l 257
 1221.15 1528 l 257
 1021.15 1528 l 257
481.342 1023 m 257
 409.275 825 l 257
 965.275 825 l 257
 1037.34 1023 l 257
 481.342 1023 l 257
EndSplineSet
Ligature2: "rkrfRakarVariantsinDevanagari2lookup0 subtable" uni0923 uni094D uni0930
EndChar

StartChar: uni0923_uni094D.half
Encoding: 495 -1 495
GlifName: uni0923_uni094D_.half
Width: 1024
VWidth: 0
GlyphClass: 3
Flags: W
LayerCount: 2
Fore
SplineSet
563.426 1548 m 257
 491.359 1350 l 257
 1520.36 1350 l 257
 1592.43 1548 l 257
 563.426 1548 l 257
870.606 1543 m 257
 620.194 855 l 257
 820.194 855 l 257
 1070.61 1543 l 257
 870.606 1543 l 257
1221.15 1528 m 257
 972.19 844 l 257
 1172.19 844 l 257
 1421.15 1528 l 257
 1221.15 1528 l 257
681.342 1023 m 257
 609.275 825 l 257
 1165.28 825 l 257
 1237.34 1023 l 257
 681.342 1023 l 257
EndSplineSet
Ligature2: "halfHalfFormsinDevanagari2lookup0 subtable" uni0923 uni094D
EndChar

StartChar: uni0923_uni094D.haln
Encoding: 496 -1 496
GlifName: uni0923_uni094D_.haln
Width: 1024
VWidth: 0
GlyphClass: 3
Flags: W
LayerCount: 2
Fore
SplineSet
564.88 1548 m 257
 489.822 1348 l 257
 1514.82 1348 l 257
 1589.88 1548 l 257
 564.88 1548 l 257
1279.12 1530 m 257
 704.937 0 l 257
 904.937 0 l 257
 1479.12 1530 l 257
 1279.12 1530 l 257
672.003 1543 m 257
 413.806 855 l 257
 613.806 855 l 257
 872.003 1543 l 257
 672.003 1543 l 257
1022.38 1528 m 257
 765.677 844 l 257
 965.677 844 l 257
 1222.38 1528 l 257
 1022.38 1528 l 257
476.854 1023 m 257
 402.548 825 l 257
 958.548 825 l 257
 1032.85 1023 l 257
 476.854 1023 l 257
881.049 -22 m 257
 807.492 -218 l 257
 1164.49 -218 l 257
 1238.05 -22 l 257
 881.049 -22 l 257
1036.62 -183 m 257
 1221.64 -588 l 257
 1426.81 -425 l 257
 1240.43 -21 l 257
 1036.62 -183 l 257
EndSplineSet
Ligature2: "halnHalantFormsinDevanagari2lookup0 subtable" uni0923 uni094D
EndChar

StartChar: uni0924
Encoding: 497 2340 497
GlifName: uni0924
Width: 1024
VWidth: 0
GlyphClass: 2
Flags: W
AnchorPoint: "abvm_deva" 1319.8 1582 basechar 0
LayerCount: 2
Fore
SplineSet
563.426 1548 m 257
 490.632 1348 l 257
 1515.63 1348 l 257
 1588.43 1548 l 257
 563.426 1548 l 257
1179.96 1511 m 257
 630 0 l 257
 829 0 l 257
 1378.96 1511 l 257
 1179.96 1511 l 257
1070.81 788 m 257
 391.809 788 l 257
 319.015 588 l 257
 998.015 588 l 257
 1070.81 788 l 257
319.015 588 m 257
 227 0 l 257
 427 0 l 257
 519.015 588 l 257
 319.015 588 l 257
EndSplineSet
EndChar

StartChar: uni0924_uni0930_uni094D.vatu
Encoding: 498 -1 498
GlifName: uni0924_uni0930_uni094D_.vatu
Width: 1024
VWidth: 0
GlyphClass: 3
Flags: W
LayerCount: 2
Fore
SplineSet
129 0 m 257
 483 0 l 257
 843.198 322 l 257
 916.356 523 l 257
 129 0 l 257
538.521 1562 m 257
 465.728 1362 l 257
 1515.73 1362 l 257
 1588.52 1562 l 257
 538.521 1562 l 257
1198.52 1562 m 257
 630 0 l 257
 829 0 l 257
 1397.52 1562 l 257
 1198.52 1562 l 257
955.728 546 m 257
 700.312 935 l 257
 394.312 935 l 257
 762.408 405 l 257
 955.728 546 l 257
EndSplineSet
Ligature2: "rkrfRakarVariantsinDevanagari2lookup0 subtable" uni0924 uni094D uni0930
EndChar

StartChar: uni0924_uni094D.half
Encoding: 499 -1 499
GlifName: uni0924_uni094D_.half
Width: 1024
VWidth: 0
GlyphClass: 3
Flags: W
LayerCount: 2
Fore
SplineSet
538.521 1562 m 257
 465.728 1362 l 257
 1515.73 1362 l 257
 1588.52 1562 l 257
 538.521 1562 l 257
1370.81 788 m 257
 691.809 788 l 257
 619.015 588 l 257
 1298.01 588 l 257
 1370.81 788 l 257
619.015 588 m 257
 544 0 l 257
 744 0 l 257
 819.015 588 l 257
 619.015 588 l 257
EndSplineSet
Ligature2: "halfHalfFormsinDevanagari2lookup0 subtable" uni0924 uni094D
EndChar

StartChar: uni0924_uni094D.haln
Encoding: 500 -1 500
GlifName: uni0924_uni094D_.haln
Width: 1024
VWidth: 0
GlyphClass: 3
Flags: W
LayerCount: 2
Fore
SplineSet
565.154 1548 m 257
 490.098 1348 l 257
 1515.1 1348 l 257
 1590.16 1548 l 257
 565.154 1548 l 257
1181.27 1511 m 257
 614.211 0 l 257
 813.211 0 l 257
 1380.27 1511 l 257
 1181.27 1511 l 257
1063.94 788 m 257
 384.938 788 l 257
 309.879 588 l 257
 988.879 588 l 257
 1063.94 788 l 257
309.879 588 m 257
 211.211 0 l 257
 411.211 0 l 257
 509.879 588 l 257
 309.879 588 l 257
608.187 -22 m 257
 534.632 -218 l 257
 891.632 -218 l 257
 965.187 -22 l 257
 608.187 -22 l 257
763.766 -183 m 257
 948.775 -588 l 257
 1153.94 -425 l 257
 967.562 -21 l 257
 763.766 -183 l 257
EndSplineSet
Ligature2: "halnHalantFormsinDevanagari2lookup0 subtable" uni0924 uni094D
EndChar

StartChar: uni0924_uni094D_uni0924.pres
Encoding: 501 -1 501
GlifName: uni0924_uni094D__uni0924.pres
Width: 1024
VWidth: 0
GlyphClass: 3
Flags: W
LayerCount: 2
Fore
SplineSet
535.609 1554 m 257
 462.815 1354 l 257
 1512.82 1354 l 257
 1585.61 1554 l 257
 535.609 1554 l 257
1179.96 1511 m 257
 630 0 l 257
 829 0 l 257
 1378.96 1511 l 257
 1179.96 1511 l 257
1070.81 788 m 257
 391.809 788 l 257
 319.015 588 l 257
 998.015 588 l 257
 1070.81 788 l 257
319.015 588 m 257
 212 0 l 257
 412 0 l 257
 518.015 588 l 257
 319.015 588 l 257
1072.8 1038 m 257
 393.801 1038 l 257
 321.007 838 l 257
 1000.01 838 l 257
 1072.8 1038 l 257
EndSplineSet
Ligature2: "presPreBaseSubstitutionsinDevanagari2lookup0 subtable" uni0924_uni094D.half uni0924
EndChar

StartChar: uni0925
Encoding: 502 2341 502
GlifName: uni0925
Width: 1024
VWidth: 0
GlyphClass: 2
Flags: W
AnchorPoint: "abvm_deva" 1350.35 1600 basechar 0
LayerCount: 2
Fore
SplineSet
1209.43 1548 m 257
 1136.63 1348 l 257
 1516.63 1348 l 257
 1589.43 1548 l 257
 1209.43 1548 l 257
1341.42 1537 m 257
 775.448 -18 l 257
 974.448 -18 l 257
 1540.42 1537 l 257
 1341.42 1537 l 257
597.426 1548 m 257
 524.632 1348 l 257
 969.632 1348 l 257
 1042.43 1548 l 257
 597.426 1548 l 257
792.29 1413 m 257
 615.4 927 l 257
 815.4 927 l 257
 992.29 1413 l 257
 792.29 1413 l 257
849.521 1018 m 257
 408.521 1018 l 257
 332.815 810 l 257
 773.815 810 l 257
 849.521 1018 l 257
382.315 946 m 257
 86.0439 132 l 257
 285.044 132 l 257
 581.315 946 l 257
 382.315 946 l 257
158.475 331 m 257
 86.0439 132 l 257
 1029.04 132 l 257
 1101.47 331 l 257
 158.475 331 l 257
EndSplineSet
EndChar

StartChar: uni0925_uni0930_uni094D.vatu
Encoding: 503 -1 503
GlifName: uni0925_uni0930_uni094D_.vatu
Width: 1024
VWidth: 0
GlyphClass: 3
Flags: W
LayerCount: 2
Fore
SplineSet
182 0 m 257
 439 0 l 257
 857.254 215 l 257
 930.411 416 l 257
 182 0 l 257
1209.43 1548 m 257
 1137.36 1350 l 257
 1521.36 1350 l 257
 1593.43 1548 l 257
 1209.43 1548 l 257
1341.42 1537 m 257
 775.448 -18 l 257
 974.448 -18 l 257
 1540.42 1537 l 257
 1341.42 1537 l 257
597.426 1548 m 257
 525.359 1350 l 257
 970.359 1350 l 257
 1042.43 1548 l 257
 597.426 1548 l 257
792.29 1413 m 257
 615.4 927 l 257
 815.4 927 l 257
 992.29 1413 l 257
 792.29 1413 l 257
849.521 1018 m 257
 408.521 1018 l 257
 332.815 810 l 257
 773.815 810 l 257
 849.521 1018 l 257
382.315 946 m 257
 126.444 243 l 257
 325.444 243 l 257
 581.315 946 l 257
 382.315 946 l 257
198.875 442 m 257
 126.444 243 l 257
 1069.44 243 l 257
 1141.88 442 l 257
 198.875 442 l 257
EndSplineSet
Ligature2: "rkrfRakarVariantsinDevanagari2lookup0 subtable" uni0925 uni094D uni0930
EndChar

StartChar: uni0925_uni094D.half
Encoding: 504 -1 504
GlifName: uni0925_uni094D_.half
Width: 1024
VWidth: 0
GlyphClass: 3
Flags: W
LayerCount: 2
Fore
SplineSet
1209.43 1548 m 257
 1137.36 1350 l 257
 1521.36 1350 l 257
 1593.43 1548 l 257
 1209.43 1548 l 257
597.426 1548 m 257
 525.359 1350 l 257
 970.359 1350 l 257
 1042.43 1548 l 257
 597.426 1548 l 257
792.29 1413 m 257
 615.4 927 l 257
 815.4 927 l 257
 992.29 1413 l 257
 792.29 1413 l 257
849.521 1018 m 257
 408.521 1018 l 257
 332.815 810 l 257
 773.815 810 l 257
 849.521 1018 l 257
382.315 946 m 257
 86.0439 132 l 257
 285.044 132 l 257
 581.315 946 l 257
 382.315 946 l 257
158.475 331 m 257
 86.0439 132 l 257
 1029.04 132 l 257
 1101.47 331 l 257
 158.475 331 l 257
EndSplineSet
Ligature2: "halfHalfFormsinDevanagari2lookup0 subtable" uni0925 uni094D
EndChar

StartChar: uni0925_uni094D.haln
Encoding: 505 -1 505
GlifName: uni0925_uni094D_.haln
Width: 1024
VWidth: 0
GlyphClass: 3
Flags: W
LayerCount: 2
Fore
SplineSet
1187.11 1548 m 257
 1112.05 1348 l 257
 1492.05 1348 l 257
 1567.11 1548 l 257
 1187.11 1548 l 257
1318.98 1537 m 257
 735.411 -18 l 257
 934.411 -18 l 257
 1517.98 1537 l 257
 1318.98 1537 l 257
575.11 1548 m 257
 500.053 1348 l 257
 945.053 1348 l 257
 1020.11 1548 l 257
 575.11 1548 l 257
768.446 1413 m 257
 586.058 927 l 257
 786.058 927 l 257
 968.446 1413 l 257
 768.446 1413 l 257
821.21 1018 m 257
 380.209 1018 l 257
 302.147 810 l 257
 743.147 810 l 257
 821.21 1018 l 257
353.187 946 m 257
 47.7041 132 l 257
 246.704 132 l 257
 552.187 946 l 257
 353.187 946 l 257
122.388 331 m 257
 47.7041 132 l 257
 990.704 132 l 257
 1065.39 331 l 257
 122.388 331 l 257
372.168 -22 m 257
 298.611 -218 l 257
 655.611 -218 l 257
 729.168 -22 l 257
 372.168 -22 l 257
527.746 -183 m 257
 712.757 -588 l 257
 917.933 -425 l 257
 731.544 -21 l 257
 527.746 -183 l 257
EndSplineSet
Ligature2: "halnHalantFormsinDevanagari2lookup0 subtable" uni0925 uni094D
EndChar

StartChar: uni0926
Encoding: 506 2342 506
GlifName: uni0926
Width: 1024
VWidth: 0
GlyphClass: 2
Flags: W
AnchorPoint: "abvm_deva" 1162.17 1594 basechar 0
LayerCount: 2
Fore
SplineSet
563.426 1548 m 257
 490.632 1348 l 257
 1515.63 1348 l 257
 1588.43 1548 l 257
 563.426 1548 l 257
1033.23 1509 m 257
 819.944 923 l 257
 1019.94 923 l 257
 1233.23 1509 l 257
 1033.23 1509 l 257
1055.34 1023 m 257
 433.342 1023 l 257
 359.819 821 l 257
 981.819 821 l 257
 1055.34 1023 l 257
419.515 996 m 257
 136.71 219 l 257
 336.71 219 l 257
 619.515 996 l 257
 419.515 996 l 257
182.934 346 m 257
 110.14 146 l 257
 862.14 146 l 257
 934.934 346 l 257
 182.934 346 l 257
760.771 406 m 257
 610.452 -7 l 257
 810.452 -7 l 257
 960.771 406 l 257
 760.771 406 l 257
EndSplineSet
EndChar

StartChar: uni0926_uni0930_uni094D.vatu
Encoding: 507 -1 507
GlifName: uni0926_uni0930_uni094D_.vatu
Width: 1024
VWidth: 0
GlyphClass: 3
Flags: W
LayerCount: 2
Fore
SplineSet
182 0 m 257
 439 0 l 257
 857.254 215 l 257
 930.411 416 l 257
 182 0 l 257
570.426 1548 m 257
 498.359 1350 l 257
 1513.36 1350 l 257
 1585.43 1548 l 257
 570.426 1548 l 257
1033.23 1509 m 257
 819.944 923 l 257
 1019.94 923 l 257
 1233.23 1509 l 257
 1033.23 1509 l 257
1055.34 1023 m 257
 433.342 1023 l 257
 359.819 821 l 257
 981.819 821 l 257
 1055.34 1023 l 257
419.515 996 m 257
 156.728 274 l 257
 356.728 274 l 257
 619.515 996 l 257
 419.515 996 l 257
202.952 401 m 257
 130.158 201 l 257
 882.158 201 l 257
 954.952 401 l 257
 202.952 401 l 257
780.79 461 m 257
 610.452 -7 l 257
 810.452 -7 l 257
 980.79 461 l 257
 780.79 461 l 257
EndSplineSet
Ligature2: "rkrfRakarVariantsinDevanagari2lookup0 subtable" uni0926 uni094D uni0930
EndChar

StartChar: uni0926_uni094D.half
Encoding: 508 -1 508
GlifName: uni0926_uni094D_.half
Width: 1024
VWidth: 0
GlyphClass: 3
Flags: W
LayerCount: 2
Fore
SplineSet
563.426 1548 m 257
 490.632 1348 l 257
 1515.63 1348 l 257
 1588.43 1548 l 257
 563.426 1548 l 257
1033.23 1509 m 257
 819.944 923 l 257
 1019.94 923 l 257
 1233.23 1509 l 257
 1033.23 1509 l 257
1055.34 1023 m 257
 433.342 1023 l 257
 359.819 821 l 257
 981.819 821 l 257
 1055.34 1023 l 257
419.515 996 m 257
 136.71 219 l 257
 336.71 219 l 257
 619.515 996 l 257
 419.515 996 l 257
182.934 346 m 257
 110.14 146 l 257
 862.14 146 l 257
 934.934 346 l 257
 182.934 346 l 257
760.771 406 m 257
 610.452 -7 l 257
 810.452 -7 l 257
 960.771 406 l 257
 760.771 406 l 257
338.992 -22 m 257
 267.654 -218 l 257
 624.654 -218 l 257
 695.992 -22 l 257
 338.992 -22 l 257
496.394 -183 m 257
 685.985 -588 l 257
 889.312 -425 l 257
 698.356 -21 l 257
 496.394 -183 l 257
EndSplineSet
Ligature2: "halfHalfFormsinDevanagari2lookup0 subtable" uni0926 uni094D
EndChar

StartChar: uni0926_uni094D.haln
Encoding: 509 -1 509
GlifName: uni0926_uni094D_.haln
Width: 1024
VWidth: 0
GlyphClass: 3
Flags: W
LayerCount: 2
Fore
SplineSet
565.014 1548 m 257
 489.958 1348 l 257
 1514.96 1348 l 257
 1590.02 1548 l 257
 565.014 1548 l 257
1034.38 1509 m 257
 814.462 923 l 257
 1014.46 923 l 257
 1234.38 1509 l 257
 1034.38 1509 l 257
1050.99 1023 m 257
 428.988 1023 l 257
 353.182 821 l 257
 975.182 821 l 257
 1050.99 1023 l 257
414.856 996 m 257
 123.261 219 l 257
 323.261 219 l 257
 614.856 996 l 257
 414.856 996 l 257
170.92 346 m 257
 95.8633 146 l 257
 847.863 146 l 257
 922.92 346 l 257
 170.92 346 l 257
749.437 406 m 257
 594.444 -7 l 257
 794.444 -7 l 257
 949.437 406 l 257
 749.437 406 l 257
432.616 -22 m 257
 359.062 -218 l 257
 716.062 -218 l 257
 789.616 -22 l 257
 432.616 -22 l 257
588.196 -183 m 257
 773.205 -588 l 257
 978.373 -425 l 257
 791.992 -21 l 257
 588.196 -183 l 257
EndSplineSet
Ligature2: "halnHalantFormsinDevanagari2lookup0 subtable" uni0926 uni094D
EndChar

StartChar: uni0926_uni094D_uni0926.pres
Encoding: 510 -1 510
GlifName: uni0926_uni094D__uni0926.pres
Width: 1024
VWidth: 0
GlyphClass: 3
Flags: W
LayerCount: 2
Fore
SplineSet
570.426 1548 m 257
 498.359 1350 l 257
 1513.36 1350 l 257
 1585.43 1548 l 257
 570.426 1548 l 257
1033.23 1509 m 257
 884.367 1100 l 257
 1084.37 1100 l 257
 1233.23 1509 l 257
 1033.23 1509 l 257
1118.67 1197 m 257
 496.673 1197 l 257
 424.242 998 l 257
 1046.24 998 l 257
 1118.67 1197 l 257
483.938 1173 m 257
 332.89 758 l 257
 532.89 758 l 257
 683.938 1173 l 257
 483.938 1173 l 257
182.934 346 m 257
 110.14 146 l 257
 862.14 146 l 257
 934.934 346 l 257
 182.934 346 l 257
760.771 406 m 257
 610.452 -7 l 257
 810.452 -7 l 257
 960.771 406 l 257
 760.771 406 l 257
973.448 798 m 257
 492.448 798 l 257
 420.019 599 l 257
 901.019 599 l 257
 973.448 798 l 257
293.944 651 m 257
 158.548 279 l 257
 358.548 279 l 257
 493.944 651 l 257
 293.944 651 l 257
EndSplineSet
Ligature2: "presPreBaseSubstitutionsinDevanagari2lookup0 subtable" uni0926_uni094D.half uni0926
EndChar

StartChar: uni0926_uni094D_uni0927.pres
Encoding: 511 -1 511
GlifName: uni0926_uni094D__uni0927.pres
Width: 1024
VWidth: 0
GlyphClass: 3
Flags: W
LayerCount: 2
Fore
SplineSet
570.426 1548 m 257
 498.359 1350 l 257
 1513.36 1350 l 257
 1585.43 1548 l 257
 570.426 1548 l 257
1180.23 1509 m 257
 966.944 923 l 257
 1166.94 923 l 257
 1380.23 1509 l 257
 1180.23 1509 l 257
1202.34 1023 m 257
 753.342 1023 l 257
 679.819 821 l 257
 1128.82 821 l 257
 1202.34 1023 l 257
743.515 996 m 257
 460.71 219 l 257
 660.71 219 l 257
 943.515 996 l 257
 743.515 996 l 257
907.771 406 m 257
 757.452 -7 l 257
 957.452 -7 l 257
 1107.77 406 l 257
 907.771 406 l 257
406.555 1117 m 257
 334.125 918 l 257
 636.125 918 l 257
 708.555 1117 l 257
 406.555 1117 l 257
345.771 950 m 257
 261.331 718 l 257
 456.331 718 l 257
 540.771 950 l 257
 345.771 950 l 257
256.694 719 m 257
 183.536 518 l 257
 582.536 518 l 257
 655.694 719 l 257
 256.694 719 l 257
274.316 674 m 257
 108.346 218 l 257
 308.346 218 l 257
 474.316 674 l 257
 274.316 674 l 257
152.386 339 m 257
 79.5918 139 l 257
 897.592 139 l 257
 970.386 339 l 257
 152.386 339 l 257
EndSplineSet
Ligature2: "presPreBaseSubstitutionsinDevanagari2lookup0 subtable" uni0926_uni094D.half uni0927
EndChar

StartChar: uni0926_uni094D_uni092F.pres
Encoding: 512 -1 512
GlifName: uni0926_uni094D__uni092F_.pres
Width: 1024
VWidth: 0
GlyphClass: 3
Flags: W
LayerCount: 2
Fore
SplineSet
1358.24 1531 m 257
 801 0 l 257
 1002 0 l 257
 1559.24 1531 l 257
 1358.24 1531 l 257
829.779 428 m 257
 757.35 229 l 257
 801 0 l 257
 925.419 166 l 257
 829.779 428 l 257
558.426 1548 m 257
 486.359 1350 l 257
 1513.36 1350 l 257
 1585.43 1548 l 257
 558.426 1548 l 257
1033.23 1509 m 257
 819.944 923 l 257
 1019.94 923 l 257
 1233.23 1509 l 257
 1033.23 1509 l 257
829.779 428 m 257
 212.779 428 l 257
 140.35 229 l 257
 757.35 229 l 257
 829.779 428 l 257
419.515 996 m 257
 162.552 290 l 257
 362.552 290 l 257
 619.515 996 l 257
 419.515 996 l 257
1056.34 1023 m 257
 428.342 1023 l 257
 354.819 821 l 257
 982.819 821 l 257
 1056.34 1023 l 257
EndSplineSet
Ligature2: "presPreBaseSubstitutionsinDevanagari2lookup0 subtable" uni0926_uni094D.half uni092F
EndChar

StartChar: uni0926_uni094D_uni0935.pres
Encoding: 513 -1 513
GlifName: uni0926_uni094D__uni0935.pres
Width: 1024
VWidth: 0
GlyphClass: 3
Flags: W
LayerCount: 2
Fore
SplineSet
570.426 1548 m 257
 498.359 1350 l 257
 1513.36 1350 l 257
 1585.43 1548 l 257
 570.426 1548 l 257
1033.23 1509 m 257
 901.11 1146 l 257
 1101.11 1146 l 257
 1233.23 1509 l 257
 1033.23 1509 l 257
1135.42 1243 m 257
 513.415 1243 l 257
 440.985 1044 l 257
 1062.99 1044 l 257
 1135.42 1243 l 257
509.415 1243 m 257
 296.856 659 l 257
 496.856 659 l 257
 709.415 1243 l 257
 509.415 1243 l 257
357.275 825 m 257
 284.481 625 l 257
 1036.48 625 l 257
 1109.28 825 l 257
 357.275 825 l 257
920.919 846 m 257
 610.452 -7 l 257
 810.452 -7 l 257
 1120.92 846 l 257
 920.919 846 l 257
253.617 488 m 257
 113.125 102 l 257
 313.125 102 l 257
 453.617 488 l 257
 253.617 488 l 257
176.728 274 m 257
 103.934 74 l 257
 838.934 74 l 257
 911.728 274 l 257
 176.728 274 l 257
276.275 553 m 257
 203.117 352 l 257
 639.117 352 l 257
 712.275 553 l 257
 276.275 553 l 257
EndSplineSet
Ligature2: "presPreBaseSubstitutionsinDevanagari2lookup0 subtable" uni0926_uni094D.half uni0935
EndChar

StartChar: uni0927
Encoding: 514 2343 514
GlifName: uni0927
Width: 1024
VWidth: 0
GlyphClass: 2
Flags: W
AnchorPoint: "abvm_deva" 1464.35 1600 basechar 0
LayerCount: 2
Fore
SplineSet
1297.43 1548 m 257
 1224.63 1348 l 257
 1525.63 1348 l 257
 1598.43 1548 l 257
 1297.43 1548 l 257
1307.12 1440 m 257
 780.816 -6 l 257
 979.816 -6 l 257
 1506.12 1440 l 257
 1307.12 1440 l 257
676.426 1548 m 257
 603.632 1348 l 257
 989.632 1348 l 257
 1062.43 1548 l 257
 676.426 1548 l 257
659.319 1501 m 257
 407.088 808 l 257
 606.088 808 l 257
 858.319 1501 l 257
 659.319 1501 l 257
433.021 882 m 257
 359.863 681 l 257
 758.863 681 l 257
 832.021 882 l 257
 433.021 882 l 257
404.783 711 m 257
 220.614 205 l 257
 420.614 205 l 257
 604.783 711 l 257
 404.783 711 l 257
264.654 326 m 257
 191.86 126 l 257
 894.86 126 l 257
 967.654 326 l 257
 264.654 326 l 257
EndSplineSet
EndChar

StartChar: uni0927_uni0930_uni094D.vatu
Encoding: 515 -1 515
GlifName: uni0927_uni0930_uni094D_.vatu
Width: 1024
VWidth: 0
GlyphClass: 3
Flags: W
LayerCount: 2
Fore
SplineSet
182 0 m 257
 439 0 l 257
 857.254 215 l 257
 930.411 416 l 257
 182 0 l 257
1297.43 1548 m 257
 1224.63 1348 l 257
 1525.63 1348 l 257
 1598.43 1548 l 257
 1297.43 1548 l 257
1307.12 1440 m 257
 780.816 -6 l 257
 979.816 -6 l 257
 1506.12 1440 l 257
 1307.12 1440 l 257
682.426 1548 m 257
 608.904 1346 l 257
 994.904 1346 l 257
 1068.43 1548 l 257
 682.426 1548 l 257
659.319 1501 m 257
 407.088 808 l 257
 606.088 808 l 257
 858.319 1501 l 257
 659.319 1501 l 257
433.021 882 m 257
 359.863 681 l 257
 758.863 681 l 257
 832.021 882 l 257
 433.021 882 l 257
404.783 711 m 257
 258.831 310 l 257
 458.831 310 l 257
 604.783 711 l 257
 404.783 711 l 257
302.871 431 m 257
 230.077 231 l 257
 933.077 231 l 257
 1005.87 431 l 257
 302.871 431 l 257
EndSplineSet
Ligature2: "rkrfRakarVariantsinDevanagari2lookup0 subtable" uni0927 uni094D uni0930
EndChar

StartChar: uni0927_uni094D.half
Encoding: 516 -1 516
GlifName: uni0927_uni094D_.half
Width: 1024
VWidth: 0
GlyphClass: 3
Flags: W
LayerCount: 2
Fore
SplineSet
862.426 1548 m 257
 788.904 1346 l 257
 1174.9 1346 l 257
 1248.43 1548 l 257
 862.426 1548 l 257
839.319 1501 m 257
 587.088 808 l 257
 786.088 808 l 257
 1038.32 1501 l 257
 839.319 1501 l 257
613.021 882 m 257
 539.863 681 l 257
 938.863 681 l 257
 1012.02 882 l 257
 613.021 882 l 257
584.783 711 m 257
 400.614 205 l 257
 600.614 205 l 257
 784.783 711 l 257
 584.783 711 l 257
444.654 326 m 257
 371.86 126 l 257
 1074.86 126 l 257
 1147.65 326 l 257
 444.654 326 l 257
EndSplineSet
Ligature2: "halfHalfFormsinDevanagari2lookup0 subtable" uni0927 uni094D
EndChar

StartChar: uni0927_uni094D.haln
Encoding: 517 -1 517
GlifName: uni0927_uni094D_.haln
Width: 1024
VWidth: 0
GlyphClass: 3
Flags: W
LayerCount: 2
Fore
SplineSet
1194.79 1548 m 257
 1119.74 1348 l 257
 1420.74 1348 l 257
 1495.79 1548 l 257
 1194.79 1548 l 257
1203.26 1440 m 257
 660.6 -6 l 257
 859.6 -6 l 257
 1402.26 1440 l 257
 1203.26 1440 l 257
573.795 1548 m 257
 498.736 1348 l 257
 884.736 1348 l 257
 959.795 1548 l 257
 573.795 1548 l 257
556.155 1501 m 257
 296.082 808 l 257
 495.082 808 l 257
 755.155 1501 l 257
 556.155 1501 l 257
322.854 882 m 257
 247.421 681 l 257
 646.422 681 l 257
 721.854 882 l 257
 322.854 882 l 257
292.681 711 m 257
 102.784 205 l 257
 302.784 205 l 257
 492.68 711 l 257
 292.681 711 l 257
148.195 326 m 257
 73.1367 126 l 257
 776.137 126 l 257
 851.195 326 l 257
 148.195 326 l 257
445.258 -22 m 257
 371.701 -218 l 257
 728.701 -218 l 257
 802.258 -22 l 257
 445.258 -22 l 257
600.835 -183 m 257
 785.846 -588 l 257
 991.022 -425 l 257
 804.633 -21 l 257
 600.835 -183 l 257
EndSplineSet
Ligature2: "halnHalantFormsinDevanagari2lookup0 subtable" uni0927 uni094D
EndChar

StartChar: uni0928
Encoding: 518 2344 518
GlifName: uni0928
Width: 1024
VWidth: 0
GlyphClass: 2
Flags: W
AnchorPoint: "abvm_deva" 1372.72 1612 basechar 0
LayerCount: 2
Fore
SplineSet
563.426 1548 m 257
 490.632 1348 l 257
 1515.63 1348 l 257
 1588.43 1548 l 257
 563.426 1548 l 257
1269.43 1548 m 257
 706 0 l 257
 905 0 l 257
 1468.43 1548 l 257
 1269.43 1548 l 257
371.794 744 m 257
 299 544 l 257
 1073 544 l 257
 1145.79 744 l 257
 371.794 744 l 257
371.702 741 m 257
 267.971 456 l 257
 468.971 456 l 257
 572.702 741 l 257
 371.702 741 l 257
EndSplineSet
EndChar

StartChar: uni0928_uni0930_uni094D.vatu
Encoding: 519 -1 519
GlifName: uni0928_uni0930_uni094D_.vatu
Width: 1024
VWidth: 0
GlyphClass: 3
Flags: W
LayerCount: 2
Fore
SplineSet
182 0 m 257
 439 0 l 257
 857.254 215 l 257
 930.411 416 l 257
 182 0 l 257
569.426 1548 m 257
 496.268 1347 l 257
 1511.27 1347 l 257
 1584.43 1548 l 257
 569.426 1548 l 257
1269.43 1548 m 257
 706 0 l 257
 905 0 l 257
 1468.43 1548 l 257
 1269.43 1548 l 257
371.794 744 m 257
 299 544 l 257
 1073 544 l 257
 1145.79 744 l 257
 371.794 744 l 257
371.702 741 m 257
 267.971 456 l 257
 468.971 456 l 257
 572.702 741 l 257
 371.702 741 l 257
EndSplineSet
Ligature2: "rkrfRakarVariantsinDevanagari2lookup0 subtable" uni0928 uni094D uni0930
EndChar

StartChar: uni0928_uni094D.half
Encoding: 520 -1 520
GlifName: uni0928_uni094D_.half
Width: 1024
VWidth: 0
GlyphClass: 3
Flags: W
LayerCount: 2
Fore
SplineSet
569.426 1548 m 257
 496.268 1347 l 257
 1511.27 1347 l 257
 1584.43 1548 l 257
 569.426 1548 l 257
551.794 744 m 257
 479 544 l 257
 1253 544 l 257
 1325.79 744 l 257
 551.794 744 l 257
551.702 741 m 257
 447.971 456 l 257
 648.971 456 l 257
 752.702 741 l 257
 551.702 741 l 257
EndSplineSet
Ligature2: "halfHalfFormsinDevanagari2lookup0 subtable" uni0928 uni094D
EndChar

StartChar: uni0928_uni094D.haln
Encoding: 521 -1 521
GlifName: uni0928_uni094D_.haln
Width: 1024
VWidth: 0
GlyphClass: 3
Flags: W
LayerCount: 2
Fore
SplineSet
564.684 1548 m 257
 489.627 1348 l 257
 1514.63 1348 l 257
 1589.69 1548 l 257
 564.684 1548 l 257
1270.68 1548 m 257
 689.741 0 l 257
 888.741 0 l 257
 1469.68 1548 l 257
 1270.68 1548 l 257
363.953 744 m 257
 288.896 544 l 257
 1062.9 544 l 257
 1137.95 744 l 257
 363.953 744 l 257
363.828 741 m 257
 256.871 456 l 257
 457.87 456 l 257
 564.828 741 l 257
 363.828 741 l 257
669.196 -22 m 257
 595.642 -218 l 257
 952.645 -218 l 257
 1026.19 -22 l 257
 669.196 -22 l 257
824.776 -183 m 257
 1009.79 -588 l 257
 1214.95 -425 l 257
 1028.58 -21 l 257
 824.776 -183 l 257
EndSplineSet
Ligature2: "halnHalantFormsinDevanagari2lookup0 subtable" uni0928 uni094D
EndChar

StartChar: uni0929
Encoding: 522 2345 522
GlifName: uni0929
Width: 1024
VWidth: 0
GlyphClass: 2
Flags: W
AnchorPoint: "abvm_deva" 1386.35 1600 basechar 0
LayerCount: 2
Fore
SplineSet
569.426 1548 m 257
 496.268 1347 l 257
 1511.27 1347 l 257
 1584.43 1548 l 257
 569.426 1548 l 257
1269.43 1548 m 257
 706 0 l 257
 905 0 l 257
 1468.43 1548 l 257
 1269.43 1548 l 257
371.794 744 m 257
 299 544 l 257
 1073 544 l 257
 1145.79 744 l 257
 371.794 744 l 257
371.702 741 m 257
 267.971 456 l 257
 468.971 456 l 257
 572.702 741 l 257
 371.702 741 l 257
353.254 -57 m 257
 263.354 -304 l 257
 527.354 -304 l 257
 617.254 -57 l 257
 353.254 -57 l 257
EndSplineSet
Ligature2: "nuktNuktaFormsinDevanagari2lookup0 subtable" uni0928 uni093C
EndChar

